<svg width="36" height="42" viewBox="0 0 36 42" fill="none" xmlns="http://www.w3.org/2000/svg">
<path d="M15.06 1.92997C13.17 1.91997 11.33 3.73997 12.17 5.99997H9C8.46957 5.99997 7.96086 6.21069 7.58579 6.58576C7.21071 6.96083 7 7.46954 7 7.99997V9.99997C7 10.2652 7.10536 10.5195 7.29289 10.7071C7.48043 10.8946 7.73478 11 8 11H17V7.99997H19V11H28C28.2652 11 28.5196 10.8946 28.7071 10.7071C28.8946 10.5195 29 10.2652 29 9.99997V7.99997C29 7.46954 28.7893 6.96083 28.4142 6.58576C28.0391 6.21069 27.5304 5.99997 27 5.99997H23.83C25 2.72997 20.6 0.419973 18.57 3.23997L18 3.99997L17.43 3.21997C16.8 2.32997 15.93 1.93997 15.06 1.92997ZM15 3.99997C15.89 3.99997 16.34 5.07997 15.71 5.70997C15.08 6.33997 14 5.88997 14 4.99997C14 4.73476 14.1054 4.4804 14.2929 4.29287C14.4804 4.10533 14.7348 3.99997 15 3.99997ZM21 3.99997C21.89 3.99997 22.34 5.07997 21.71 5.70997C21.08 6.33997 20 5.88997 20 4.99997C20 4.73476 20.1054 4.4804 20.2929 4.29287C20.4804 4.10533 20.7348 3.99997 21 3.99997ZM8 12V20C8 20.5304 8.21071 21.0391 8.58579 21.4142C8.96086 21.7893 9.46957 22 10 22H26C26.5304 22 27.0391 21.7893 27.4142 21.4142C27.7893 21.0391 28 20.5304 28 20V12H19V20H17V12H8Z" fill="white" fill-opacity="0.4"/>
<path d="M4.82227 39.2051C4.04102 39.2051 3.36328 39.0254 2.78906 38.666C2.21875 38.3066 1.7793 37.7969 1.4707 37.1367C1.16211 36.4766 1.00781 35.6914 1.00781 34.7812V34.7695C1.00781 33.8555 1.16211 33.0684 1.4707 32.4082C1.7793 31.748 2.21875 31.2383 2.78906 30.8789C3.35938 30.5195 4.03711 30.3398 4.82227 30.3398C5.44336 30.3398 6.00391 30.4629 6.50391 30.709C7.00781 30.9512 7.41992 31.2871 7.74023 31.7168C8.06445 32.1465 8.26172 32.6406 8.33203 33.1992V33.2344H7.02539L7.01953 33.2109C6.94141 32.8633 6.79883 32.5625 6.5918 32.3086C6.38477 32.0547 6.13086 31.8574 5.83008 31.7168C5.5293 31.5762 5.19336 31.5059 4.82227 31.5059C4.31836 31.5059 3.88086 31.6387 3.50977 31.9043C3.14258 32.1699 2.85742 32.5469 2.6543 33.0352C2.45508 33.5195 2.35547 34.0977 2.35547 34.7695V34.7812C2.35547 35.4453 2.45508 36.0215 2.6543 36.5098C2.85742 36.998 3.14258 37.375 3.50977 37.6406C3.88086 37.9062 4.32031 38.0391 4.82812 38.0391C5.19922 38.0391 5.53516 37.9766 5.83594 37.8516C6.14062 37.7266 6.39453 37.5488 6.59766 37.3184C6.80078 37.084 6.93945 36.8086 7.01367 36.4922L7.02539 36.4688H8.33789L8.33203 36.498C8.25 37.041 8.05078 37.5156 7.73438 37.9219C7.41797 38.3281 7.01172 38.6445 6.51562 38.8711C6.01953 39.0938 5.45508 39.2051 4.82227 39.2051ZM11.6602 39.1055C11.2578 39.1055 10.8965 39.0293 10.5762 38.877C10.2598 38.7207 10.0098 38.5 9.82617 38.2148C9.64258 37.9297 9.55078 37.5957 9.55078 37.2129V37.2012C9.55078 36.8184 9.64258 36.4922 9.82617 36.2227C10.0137 35.9531 10.2832 35.7422 10.6348 35.5898C10.9902 35.4336 11.4199 35.3398 11.9238 35.3086L14.2734 35.168V36.0645L12.0996 36.2051C11.6621 36.2324 11.3398 36.3262 11.1328 36.4863C10.9258 36.6426 10.8223 36.8633 10.8223 37.1484V37.1602C10.8223 37.4492 10.9336 37.6777 11.1562 37.8457C11.3789 38.0098 11.6602 38.0918 12 38.0918C12.3164 38.0918 12.5977 38.0293 12.8438 37.9043C13.0938 37.7754 13.2891 37.6035 13.4297 37.3887C13.5703 37.1699 13.6406 36.9238 13.6406 36.6504V34.6465C13.6406 34.2949 13.5312 34.0273 13.3125 33.8438C13.0977 33.6562 12.7773 33.5625 12.3516 33.5625C11.9961 33.5625 11.7051 33.625 11.4785 33.75C11.2559 33.875 11.1074 34.0508 11.0332 34.2773L11.0215 34.2949H9.79688L9.80273 34.2539C9.85352 33.9023 9.99219 33.5977 10.2188 33.3398C10.4492 33.0781 10.75 32.875 11.1211 32.7305C11.4961 32.5859 11.9238 32.5137 12.4043 32.5137C12.9395 32.5137 13.3926 32.5996 13.7637 32.7715C14.1387 32.9395 14.4219 33.1836 14.6133 33.5039C14.8086 33.8203 14.9062 34.2012 14.9062 34.6465V39H13.6406V38.0977H13.5469C13.4219 38.3125 13.2656 38.4961 13.0781 38.6484C12.8906 38.7969 12.6777 38.9102 12.4395 38.9883C12.2012 39.0664 11.9414 39.1055 11.6602 39.1055ZM19.0137 39.123C18.502 39.123 18.0566 39.0488 17.6777 38.9004C17.2988 38.748 16.998 38.5391 16.7754 38.2734C16.5527 38.0039 16.4219 37.6914 16.3828 37.3359V37.3242H17.6602V37.3359C17.7422 37.5742 17.8984 37.7676 18.1289 37.916C18.3594 38.0645 18.6641 38.1387 19.043 38.1387C19.3047 38.1387 19.5332 38.1016 19.7285 38.0273C19.9277 37.9531 20.084 37.8496 20.1973 37.7168C20.3105 37.584 20.3672 37.4316 20.3672 37.2598V37.248C20.3672 37.0488 20.2871 36.8809 20.127 36.7441C19.9668 36.6074 19.7031 36.4961 19.3359 36.4102L18.3164 36.1758C17.918 36.0859 17.5879 35.9629 17.3262 35.8066C17.0645 35.6504 16.8711 35.459 16.7461 35.2324C16.6211 35.002 16.5586 34.7324 16.5586 34.4238V34.418C16.5586 34.0469 16.6641 33.7188 16.875 33.4336C17.0859 33.1445 17.377 32.9199 17.748 32.7598C18.123 32.5957 18.5508 32.5137 19.0312 32.5137C19.5156 32.5137 19.9375 32.5898 20.2969 32.7422C20.6602 32.8906 20.9473 33.0977 21.1582 33.3633C21.3691 33.625 21.4941 33.9297 21.5332 34.2773V34.2832H20.3145V34.2715C20.2559 34.0488 20.1152 33.8633 19.8926 33.7148C19.6738 33.5664 19.3848 33.4922 19.0254 33.4922C18.7949 33.4922 18.5898 33.5293 18.4102 33.6035C18.2305 33.6738 18.0879 33.7734 17.9824 33.9023C17.8809 34.0273 17.8301 34.1758 17.8301 34.3477V34.3594C17.8301 34.4922 17.8633 34.6094 17.9297 34.7109C18 34.8086 18.1094 34.8965 18.2578 34.9746C18.4062 35.0488 18.5977 35.1152 18.832 35.1738L19.8457 35.4023C20.4551 35.5469 20.9082 35.7559 21.2051 36.0293C21.5059 36.3027 21.6562 36.6699 21.6562 37.1309V37.1426C21.6562 37.5332 21.541 37.8789 21.3105 38.1797C21.0801 38.4766 20.7656 38.709 20.3672 38.877C19.9727 39.041 19.5215 39.123 19.0137 39.123ZM25.8398 39.123C25.2188 39.123 24.6855 38.9902 24.2402 38.7246C23.7949 38.4551 23.4512 38.0742 23.209 37.582C22.9707 37.0898 22.8516 36.5078 22.8516 35.8359V35.8301C22.8516 35.166 22.9707 34.5859 23.209 34.0898C23.4512 33.5938 23.791 33.207 24.2285 32.9297C24.6699 32.6523 25.1855 32.5137 25.7754 32.5137C26.3691 32.5137 26.8789 32.6465 27.3047 32.9121C27.7344 33.1777 28.0645 33.5508 28.2949 34.0312C28.5254 34.5078 28.6406 35.0664 28.6406 35.707V36.1523H23.4961V35.2441H28.0078L27.3984 36.0879V35.5781C27.3984 35.125 27.3281 34.75 27.1875 34.4531C27.0508 34.1523 26.8613 33.9277 26.6191 33.7793C26.377 33.6309 26.0977 33.5566 25.7812 33.5566C25.4648 33.5566 25.1816 33.6348 24.9316 33.791C24.6855 33.9434 24.4902 34.1699 24.3457 34.4707C24.2051 34.7715 24.1348 35.1406 24.1348 35.5781V36.0879C24.1348 36.5059 24.2051 36.8633 24.3457 37.1602C24.4863 37.457 24.6855 37.6836 24.9434 37.8398C25.2051 37.9961 25.5137 38.0742 25.8691 38.0742C26.1426 38.0742 26.377 38.0371 26.5723 37.9629C26.7715 37.8848 26.9336 37.7891 27.0586 37.6758C27.1875 37.5625 27.2754 37.4512 27.3223 37.3418L27.3457 37.2949H28.5762L28.5645 37.3477C28.5098 37.5586 28.4141 37.7695 28.2773 37.9805C28.1406 38.1875 27.959 38.377 27.7324 38.5488C27.5098 38.7207 27.2402 38.8594 26.9238 38.9648C26.6113 39.0703 26.25 39.123 25.8398 39.123ZM32.4668 39.123C31.9551 39.123 31.5098 39.0488 31.1309 38.9004C30.752 38.748 30.4512 38.5391 30.2285 38.2734C30.0059 38.0039 29.875 37.6914 29.8359 37.3359V37.3242H31.1133V37.3359C31.1953 37.5742 31.3516 37.7676 31.582 37.916C31.8125 38.0645 32.1172 38.1387 32.4961 38.1387C32.7578 38.1387 32.9863 38.1016 33.1816 38.0273C33.3809 37.9531 33.5371 37.8496 33.6504 37.7168C33.7637 37.584 33.8203 37.4316 33.8203 37.2598V37.248C33.8203 37.0488 33.7402 36.8809 33.5801 36.7441C33.4199 36.6074 33.1562 36.4961 32.7891 36.4102L31.7695 36.1758C31.3711 36.0859 31.041 35.9629 30.7793 35.8066C30.5176 35.6504 30.3242 35.459 30.1992 35.2324C30.0742 35.002 30.0117 34.7324 30.0117 34.4238V34.418C30.0117 34.0469 30.1172 33.7188 30.3281 33.4336C30.5391 33.1445 30.8301 32.9199 31.2012 32.7598C31.5762 32.5957 32.0039 32.5137 32.4844 32.5137C32.9688 32.5137 33.3906 32.5898 33.75 32.7422C34.1133 32.8906 34.4004 33.0977 34.6113 33.3633C34.8223 33.625 34.9473 33.9297 34.9863 34.2773V34.2832H33.7676V34.2715C33.709 34.0488 33.5684 33.8633 33.3457 33.7148C33.127 33.5664 32.8379 33.4922 32.4785 33.4922C32.248 33.4922 32.043 33.5293 31.8633 33.6035C31.6836 33.6738 31.541 33.7734 31.4355 33.9023C31.334 34.0273 31.2832 34.1758 31.2832 34.3477V34.3594C31.2832 34.4922 31.3164 34.6094 31.3828 34.7109C31.4531 34.8086 31.5625 34.8965 31.7109 34.9746C31.8594 35.0488 32.0508 35.1152 32.2852 35.1738L33.2988 35.4023C33.9082 35.5469 34.3613 35.7559 34.6582 36.0293C34.959 36.3027 35.1094 36.6699 35.1094 37.1309V37.1426C35.1094 37.5332 34.9941 37.8789 34.7637 38.1797C34.5332 38.4766 34.2188 38.709 33.8203 38.877C33.4258 39.041 32.9746 39.123 32.4668 39.123Z" fill="white" fill-opacity="0.4"/>
</svg>
