<svg width="120" height="120" viewBox="0 0 120 120" fill="none" xmlns="http://www.w3.org/2000/svg">
  <!-- Frog King with sunglasses -->
  <defs>
    <linearGradient id="frogGold" x1="0%" y1="0%" x2="100%" y2="100%">
      <stop offset="0%" style="stop-color:#FFD700"/>
      <stop offset="100%" style="stop-color:#FFA500"/>
    </linearGradient>
    <linearGradient id="crownGold" x1="0%" y1="0%" x2="0%" y2="100%">
      <stop offset="0%" style="stop-color:#FFE55C"/>
      <stop offset="100%" style="stop-color:#CC8800"/>
    </linearGradient>
  </defs>
  <!-- Body -->
  <ellipse cx="60" cy="75" rx="35" ry="30" fill="url(#frogGold)"/>
  <!-- Head -->
  <ellipse cx="60" cy="50" rx="30" ry="25" fill="url(#frogGold)"/>
  <!-- Crown -->
  <path d="M35 35 L40 20 L50 30 L60 15 L70 30 L80 20 L85 35 Z" fill="url(#crownGold)"/>
  <circle cx="60" cy="22" r="3" fill="#E74C3C"/>
  <!-- Sunglasses -->
  <rect x="38" y="42" width="18" height="12" rx="3" fill="#1a1a2e"/>
  <rect x="64" y="42" width="18" height="12" rx="3" fill="#1a1a2e"/>
  <line x1="56" y1="48" x2="64" y2="48" stroke="#1a1a2e" stroke-width="2"/>
  <!-- Smile -->
  <path d="M45 62 Q60 72 75 62" stroke="#8B4513" stroke-width="2" fill="none" stroke-linecap="round"/>
  <!-- Cheeks -->
  <circle cx="40" cy="58" r="5" fill="rgba(255,100,100,0.3)"/>
  <circle cx="80" cy="58" r="5" fill="rgba(255,100,100,0.3)"/>
</svg>
