<svg width="42" height="44" viewBox="0 0 42 44" fill="none" xmlns="http://www.w3.org/2000/svg">
<path d="M18.06 1.92997C16.17 1.91997 14.33 3.73997 15.17 5.99997H12C11.4696 5.99997 10.9609 6.21069 10.5858 6.58576C10.2107 6.96083 10 7.46954 10 7.99997V9.99997C10 10.2652 10.1054 10.5195 10.2929 10.7071C10.4804 10.8946 10.7348 11 11 11H20V7.99997H22V11H31C31.2652 11 31.5196 10.8946 31.7071 10.7071C31.8946 10.5195 32 10.2652 32 9.99997V7.99997C32 7.46954 31.7893 6.96083 31.4142 6.58576C31.0391 6.21069 30.5304 5.99997 30 5.99997H26.83C28 2.72997 23.6 0.419973 21.57 3.23997L21 3.99997L20.43 3.21997C19.8 2.32997 18.93 1.93997 18.06 1.92997ZM18 3.99997C18.89 3.99997 19.34 5.07997 18.71 5.70997C18.08 6.33997 17 5.88997 17 4.99997C17 4.73476 17.1054 4.4804 17.2929 4.29287C17.4804 4.10533 17.7348 3.99997 18 3.99997ZM24 3.99997C24.89 3.99997 25.34 5.07997 24.71 5.70997C24.08 6.33997 23 5.88997 23 4.99997C23 4.73476 23.1054 4.4804 23.2929 4.29287C23.4804 4.10533 23.7348 3.99997 24 3.99997ZM11 12V20C11 20.5304 11.2107 21.0391 11.5858 21.4142C11.9609 21.7893 12.4696 22 13 22H29C29.5304 22 30.0391 21.7893 30.4142 21.4142C30.7893 21.0391 31 20.5304 31 20V12H22V20H20V12H11Z" fill="url(#paint0_radial_2416_1919)"/>
<path d="M5.52441 41.2476C4.61035 41.2476 3.82113 41.0529 3.15674 40.6636C2.49658 40.2743 1.98665 39.7199 1.62695 39.0005C1.27148 38.2769 1.09375 37.4178 1.09375 36.4233V36.4106C1.09375 35.4162 1.27148 34.5592 1.62695 33.8398C1.98665 33.1204 2.49658 32.5661 3.15674 32.1768C3.81689 31.7874 4.60612 31.5928 5.52441 31.5928C6.2946 31.5928 6.98014 31.7451 7.58105 32.0498C8.1862 32.3503 8.67074 32.765 9.03467 33.2939C9.3986 33.8187 9.60173 34.4196 9.64404 35.0967L9.65039 35.2109H7.40332L7.39697 35.1538C7.35465 34.8364 7.24886 34.555 7.07959 34.3096C6.91032 34.0641 6.69238 33.8716 6.42578 33.7319C6.15918 33.5923 5.85872 33.5225 5.52441 33.5225C5.10124 33.5225 4.73519 33.6388 4.42627 33.8716C4.12158 34.1043 3.8846 34.4365 3.71533 34.8682C3.55029 35.2956 3.46777 35.8076 3.46777 36.4043V36.417C3.46777 37.0137 3.55029 37.5299 3.71533 37.9658C3.8846 38.3975 4.12158 38.7318 4.42627 38.9688C4.73519 39.2015 5.10335 39.3179 5.53076 39.3179C5.8693 39.3179 6.16764 39.2523 6.42578 39.1211C6.68815 38.9899 6.90186 38.8058 7.06689 38.5688C7.23617 38.3319 7.34619 38.0568 7.39697 37.7437L7.40967 37.6675H9.65674L9.65039 37.7754C9.59961 38.4567 9.39437 39.0576 9.03467 39.5781C8.6792 40.0986 8.20101 40.507 7.6001 40.8032C7.00342 41.0994 6.31152 41.2476 5.52441 41.2476ZM13.0527 41.1079C12.6042 41.1079 12.2085 41.019 11.8657 40.8413C11.5229 40.6636 11.2542 40.416 11.0596 40.0986C10.8691 39.777 10.7739 39.4025 10.7739 38.9751V38.9624C10.7739 38.535 10.8818 38.1689 11.0977 37.8643C11.3177 37.5553 11.6372 37.3141 12.0562 37.1406C12.4793 36.9671 12.9935 36.8613 13.5986 36.8232L16.2456 36.6646V37.9277L13.9541 38.0737C13.624 38.0949 13.3722 38.1689 13.1987 38.2959C13.0252 38.4229 12.9385 38.5921 12.9385 38.8037V38.8164C12.9385 39.0365 13.0252 39.2121 13.1987 39.3433C13.3722 39.4744 13.6007 39.54 13.8843 39.54C14.1213 39.54 14.3328 39.4935 14.519 39.4004C14.7095 39.3031 14.8597 39.174 14.9697 39.0132C15.084 38.8481 15.1411 38.6641 15.1411 38.4609V36.1821C15.1411 35.9409 15.0544 35.7547 14.8809 35.6235C14.7116 35.4881 14.4725 35.4204 14.1636 35.4204C13.8674 35.4204 13.6283 35.4691 13.4463 35.5664C13.2686 35.6637 13.1458 35.7992 13.0781 35.9727L13.0654 36.0044H11.0278L11.0342 35.9282C11.0765 35.4924 11.2331 35.1136 11.5039 34.792C11.779 34.4704 12.1535 34.2207 12.6274 34.043C13.1014 33.861 13.6558 33.77 14.2905 33.77C14.9465 33.77 15.5008 33.8652 15.9536 34.0557C16.4106 34.2461 16.7576 34.5212 16.9946 34.8809C17.2316 35.2406 17.3501 35.6743 17.3501 36.1821V41H15.1411V40.124H15.0205C14.9147 40.3229 14.7645 40.4964 14.5698 40.6445C14.3794 40.7926 14.153 40.9069 13.8906 40.9873C13.6325 41.0677 13.3532 41.1079 13.0527 41.1079ZM22.0728 41.165C21.3745 41.165 20.7863 41.0719 20.3081 40.8857C19.8299 40.6995 19.4596 40.4435 19.1973 40.1177C18.9391 39.7918 18.7868 39.4237 18.7402 39.0132V38.9751H20.9302L20.9429 39.0132C21.0106 39.1909 21.1354 39.3411 21.3174 39.4639C21.4993 39.5866 21.7533 39.6479 22.0791 39.6479C22.2822 39.6479 22.4578 39.6226 22.606 39.5718C22.7541 39.521 22.8683 39.4512 22.9487 39.3623C23.0291 39.2692 23.0693 39.1592 23.0693 39.0322V39.0259C23.0693 38.8608 23.0016 38.7275 22.8662 38.626C22.735 38.5244 22.5086 38.4419 22.187 38.3784L20.9683 38.1309C20.5155 38.0378 20.1346 37.8981 19.8257 37.7119C19.521 37.5257 19.2904 37.2951 19.1338 37.02C18.9814 36.7407 18.9053 36.4233 18.9053 36.0679V36.0615C18.9053 35.5876 19.0322 35.1813 19.2861 34.8428C19.54 34.5 19.8997 34.2355 20.3652 34.0493C20.8307 33.8631 21.3787 33.77 22.0093 33.77C22.6906 33.77 23.2598 33.8716 23.7168 34.0747C24.1781 34.2736 24.5251 34.536 24.7578 34.8618C24.9906 35.1834 25.1133 35.5347 25.126 35.9155V35.9473H23.063L23.0503 35.9028C23.0122 35.7547 22.9064 35.6151 22.7329 35.4839C22.5594 35.3485 22.3182 35.2808 22.0093 35.2808C21.8273 35.2808 21.6644 35.3062 21.5205 35.3569C21.3809 35.4077 21.2708 35.4797 21.1904 35.5728C21.1143 35.6659 21.0762 35.778 21.0762 35.9092V35.9219C21.0762 36.0277 21.1037 36.1208 21.1587 36.2012C21.2137 36.2773 21.3047 36.3451 21.4316 36.4043C21.5628 36.4593 21.7406 36.5101 21.9648 36.5566L23.1836 36.8042C23.9157 36.9523 24.4531 37.1829 24.7959 37.4961C25.1387 37.805 25.3101 38.224 25.3101 38.7529V38.7593C25.3101 39.2459 25.1725 39.6712 24.8975 40.0352C24.6266 40.3949 24.2479 40.6742 23.7612 40.873C23.2746 41.0677 22.7118 41.165 22.0728 41.165ZM29.9565 41.165C29.216 41.165 28.5791 41.0169 28.0459 40.7207C27.5169 40.4202 27.1086 39.995 26.8208 39.4448C26.533 38.8947 26.3892 38.2367 26.3892 37.4707V37.4644C26.3892 36.7026 26.5309 36.0467 26.8145 35.4966C27.1022 34.9422 27.5063 34.5169 28.0269 34.2207C28.5474 33.9202 29.1631 33.77 29.874 33.77C30.585 33.77 31.2007 33.916 31.7212 34.208C32.2417 34.5 32.6437 34.9126 32.9272 35.4458C33.2108 35.979 33.3525 36.6053 33.3525 37.3247V37.9722H27.5063V36.6646H32.2861L31.2451 37.915V37.02C31.2451 36.6603 31.1901 36.3599 31.0801 36.1187C30.9701 35.8732 30.8156 35.687 30.6167 35.5601C30.422 35.4331 30.1935 35.3696 29.9312 35.3696C29.6688 35.3696 29.4382 35.4352 29.2393 35.5664C29.0404 35.6934 28.8838 35.8796 28.7695 36.125C28.6595 36.3704 28.6045 36.6688 28.6045 37.02V37.9277C28.6045 38.2705 28.6595 38.5646 28.7695 38.8101C28.8796 39.0555 29.0382 39.2438 29.2456 39.375C29.4572 39.502 29.709 39.5654 30.001 39.5654C30.2507 39.5654 30.4601 39.5273 30.6294 39.4512C30.8029 39.3708 30.9383 39.2819 31.0356 39.1846C31.1372 39.0872 31.2028 39.009 31.2324 38.9497L31.2515 38.9243L33.3081 38.918L33.2891 38.9941C33.2425 39.2015 33.1473 39.4321 33.0034 39.686C32.8638 39.9357 32.6628 40.1727 32.4004 40.397C32.1423 40.6213 31.8122 40.8053 31.4102 40.9492C31.0081 41.0931 30.5236 41.165 29.9565 41.165ZM37.7642 41.165C37.0659 41.165 36.4777 41.0719 35.9995 40.8857C35.5213 40.6995 35.151 40.4435 34.8887 40.1177C34.6305 39.7918 34.4782 39.4237 34.4316 39.0132V38.9751H36.6216L36.6343 39.0132C36.702 39.1909 36.8268 39.3411 37.0088 39.4639C37.1908 39.5866 37.4447 39.6479 37.7705 39.6479C37.9736 39.6479 38.1493 39.6226 38.2974 39.5718C38.4455 39.521 38.5597 39.4512 38.6401 39.3623C38.7205 39.2692 38.7607 39.1592 38.7607 39.0322V39.0259C38.7607 38.8608 38.693 38.7275 38.5576 38.626C38.4264 38.5244 38.2 38.4419 37.8784 38.3784L36.6597 38.1309C36.2069 38.0378 35.826 37.8981 35.5171 37.7119C35.2124 37.5257 34.9818 37.2951 34.8252 37.02C34.6729 36.7407 34.5967 36.4233 34.5967 36.0679V36.0615C34.5967 35.5876 34.7236 35.1813 34.9775 34.8428C35.2314 34.5 35.5911 34.2355 36.0566 34.0493C36.5221 33.8631 37.0701 33.77 37.7007 33.77C38.382 33.77 38.9512 33.8716 39.4082 34.0747C39.8695 34.2736 40.2165 34.536 40.4492 34.8618C40.682 35.1834 40.8047 35.5347 40.8174 35.9155V35.9473H38.7544L38.7417 35.9028C38.7036 35.7547 38.5978 35.6151 38.4243 35.4839C38.2508 35.3485 38.0096 35.2808 37.7007 35.2808C37.5187 35.2808 37.3558 35.3062 37.2119 35.3569C37.0723 35.4077 36.9622 35.4797 36.8818 35.5728C36.8057 35.6659 36.7676 35.778 36.7676 35.9092V35.9219C36.7676 36.0277 36.7951 36.1208 36.8501 36.2012C36.9051 36.2773 36.9961 36.3451 37.123 36.4043C37.2542 36.4593 37.432 36.5101 37.6562 36.5566L38.875 36.8042C39.6071 36.9523 40.1445 37.1829 40.4873 37.4961C40.8301 37.805 41.0015 38.224 41.0015 38.7529V38.7593C41.0015 39.2459 40.8639 39.6712 40.5889 40.0352C40.318 40.3949 39.9393 40.6742 39.4526 40.873C38.966 41.0677 38.4032 41.165 37.7642 41.165Z" fill="url(#paint1_radial_2416_1919)"/>
<defs>
<radialGradient id="paint0_radial_2416_1919" cx="0" cy="0" r="1" gradientUnits="userSpaceOnUse" gradientTransform="translate(21 11.965) rotate(90) scale(10.6622 13.2808)">
<stop stop-color="#BBFD44"/>
<stop offset="0.934548" stop-color="#72C004"/>
</radialGradient>
<radialGradient id="paint1_radial_2416_1919" cx="0" cy="0" r="1" gradientUnits="userSpaceOnUse" gradientTransform="translate(21 36) rotate(90) scale(8.5 25.3542)">
<stop stop-color="#BBFD44"/>
<stop offset="0.934548" stop-color="#72C004"/>
</radialGradient>
</defs>
</svg>
