<svg width="104" height="148" viewBox="0 0 104 148" fill="none" xmlns="http://www.w3.org/2000/svg">
<path d="M0.0438346 100.901C-0.229262 97.2721 0.840367 96.1324 1.40932 96.0161L91.5 95.3184C92.8864 96.0115 93.5795 99.0166 93.5795 99.8539C93.5796 100.901 93.5795 101.947 92.2141 104.738C91.1217 106.971 84.4763 114.507 81.2902 117.996C81.2902 118.229 81.1536 118.973 80.6074 120.089C80.0612 121.206 73.3248 126.369 70.0249 128.811C69.2284 129.974 67.1574 132.719 65.2457 134.394C62.8561 136.487 55.6873 139.976 55.346 140.674C55.0046 141.371 48.8599 148 47.8358 148C47.0165 148 42.4877 144.046 40.3256 142.069C39.4153 141.604 37.3898 140.534 36.5706 139.976C35.7513 139.418 31.2224 134.161 29.0604 131.603H27.0122C26.3294 131.603 20.5261 128.463 19.8434 127.765C19.2972 127.207 16.2021 122.183 14.7228 119.74C12.6746 118.345 8.23674 115.205 6.87126 113.809C5.1644 112.065 0.385206 105.436 0.0438346 100.901Z" fill="#110746"/>
<path d="M0.286099 101.903C-0.545719 99.9625 0.63269 97.6288 1.32587 96.7046L15.5361 103.636C15.9982 106.178 16.9918 111.539 17.2691 112.648C17.5463 113.757 16.4603 117.962 15.8827 119.926C12.7634 117.5 6.31678 112.44 5.48496 111.608C4.44519 110.568 1.32587 104.33 0.286099 101.903Z" fill="url(#paint0_linear_2505_8339)"/>
<path d="M92.2845 100.119C92.8308 98.8441 92.0569 97.3116 91.6017 96.7046L82.2696 101.257C81.9661 102.926 81.3136 106.446 81.1315 107.175C80.9495 107.903 81.6626 110.665 82.042 111.955C84.0905 110.361 88.3241 107.038 88.8703 106.492C89.5532 105.809 91.6017 101.712 92.2845 100.119Z" fill="url(#paint1_linear_2505_8339)"/>
<path d="M82.5799 102.198C83.1262 100.924 82.3523 99.3911 81.8971 98.7842L64.4659 105.369C64.1624 107.039 67.1897 109.156 67.0076 109.884C66.8255 110.612 71.958 112.744 72.3374 114.034C74.3859 112.441 78.6195 109.118 79.1658 108.571C79.8486 107.889 81.8971 103.792 82.5799 102.198Z" fill="#29186E"/>
<path d="M28.6083 104.971C28.062 103.696 28.8359 102.164 29.2911 101.557L46.7223 108.142C47.0258 109.811 43.9985 111.928 44.1806 112.656C44.3627 113.385 39.2302 115.517 38.8508 116.807C36.8023 115.213 32.5687 111.89 32.0225 111.344C31.3396 110.661 29.2911 106.564 28.6083 104.971Z" fill="#29186E"/>
<path d="M31.8863 123.392L29.1135 130.671L33.2726 131.017L34.3124 130.324L39.5113 121.659L35.0056 123.392H31.8863Z" fill="#191382"/>
<path d="M18.7158 112.994L15.9431 120.273L20.1022 120.619L21.142 119.926L26.3408 111.261L21.8352 112.994H18.7158Z" fill="#191382"/>
<path d="M73.824 114.381L76.5967 121.659L72.4376 122.006L71.3978 121.313L66.199 112.648L70.7046 114.381H73.824Z" fill="#191382"/>
<path d="M49.7679 132.75L42.417 141.326C44.0505 142.858 47.5014 145.92 48.2365 145.92C48.9716 145.92 53.035 141.224 54.9749 138.876L49.7679 132.75Z" fill="#110F70"/>
<path d="M37.7784 123.045L34.6591 129.977L33.2727 131.364L40.2045 140.722L48.1761 129.977L47.8295 126.858L40.2045 120.966L37.7784 123.045Z" fill="#110F70"/>
<path d="M24.608 112.648L21.4887 119.58L20.1023 120.966L27.0341 125.125L32.9262 118.54L34.6591 116.46L27.0341 110.568L24.608 112.648Z" fill="#110F70"/>
<path d="M67.9318 114.034L71.0511 120.966L72.4375 122.352L65.5057 131.71L57.5341 120.966L57.8807 117.847L65.5057 111.955L67.9318 114.034Z" fill="#1C1260"/>
<path d="M29.1135 131.364L30.4999 127.205L31.1931 129.977L33.2726 130.67C34.7745 132.981 38.1942 138.088 39.8578 140.028C41.5215 141.969 46.3275 144.534 48.5226 145.574C49.3313 144.765 51.1567 142.87 51.9885 141.761C52.8203 140.652 53.7215 138.758 54.0681 137.949L55.801 139.335C53.4904 141.992 48.6613 147.307 47.8294 147.307C46.9976 147.307 42.3995 143.379 40.2044 141.415C39.5113 141.068 37.709 140.098 36.0453 138.989C34.3817 137.88 30.7309 133.443 29.1135 131.364Z" fill="url(#paint2_linear_2505_8339)"/>
<path d="M56.1478 138.296L51.6421 132.75L49.9092 122.352L58.9205 108.835L73.1308 114.034L64.1194 112.995L57.5342 121.313L65.8524 131.71C65.8524 132.057 65.2978 133.166 63.0796 134.83C60.8615 136.493 57.5342 137.834 56.1478 138.296Z" fill="#110A52"/>
<path d="M15.9431 105.716L11.0908 114.381L16.6363 120.273L18.0226 115.074L15.9431 105.716Z" fill="#180B69"/>
<path d="M16.063 120.506L16.9816 118.031L21.9101 126.463L27.3631 124.458L28.3638 130.654C26.7198 130.157 22.9993 128.838 21.2692 127.535C19.539 126.233 17.0775 122.306 16.063 120.506Z" fill="url(#paint3_linear_2505_8339)"/>
<path d="M93.2328 102.596C94.3419 99.5465 93.6949 96.9355 93.2328 96.0112L91.8465 98.4374C92.0775 99.5927 92.5396 102.111 92.5396 102.943C92.5396 103.983 88.7271 108.489 87.6874 109.528C86.8555 110.36 83.8749 114.496 82.4885 116.46L81.6812 116.807L81.4487 113.687C81.1021 115.074 80.2703 118.054 79.7158 118.886C79.1612 119.718 75.5567 122.699 73.8237 124.085L72.0908 127.204L69.318 127.898L68.6249 126.858L54.7612 138.989L55.4544 140.375L60.9999 137.602C63.218 136.493 67.9317 131.132 70.0112 128.591L72.0908 127.898C74.979 125.356 80.8249 120.203 81.1021 119.926C81.3794 119.649 81.4487 118.193 81.4487 117.5C82.0264 117.384 83.3203 117.084 83.8749 116.807C84.568 116.46 91.8465 106.409 93.2328 102.596Z" fill="url(#paint4_linear_2505_8339)"/>
<path d="M45.2448 104.278C44.6985 103.003 45.4724 101.471 45.9276 100.864L65.5058 107.449C65.8092 109.118 60.635 111.235 60.8171 111.964C60.9992 112.692 55.8667 114.824 55.4873 116.114C53.4388 114.52 49.2052 111.197 48.659 110.651C47.9761 109.968 45.9276 105.871 45.2448 104.278Z" fill="#29186E"/>
<ellipse cx="47.4829" cy="97.3977" rx="46.7898" ry="10.3977" fill="url(#paint5_linear_2505_8339)"/>
<ellipse cx="47.4829" cy="96.7045" rx="46.0754" ry="9.70455" fill="url(#paint6_linear_2505_8339)"/>
<ellipse cx="45.5" cy="98.5" rx="22.5" ry="4.5" fill="#241152"/>
<ellipse cx="4.0243" cy="5.34104" rx="4.0243" ry="5.34104" transform="matrix(0.947263 0.320458 -0.332385 0.943144 66.4819 65.6328)" fill="#FBFAFB"/>
<path d="M14.2471 24.9613C14.6346 23.1335 14.3635 20.3862 14.3274 18.46C14.2386 13.7782 14.643 9.30739 16.5791 4.9726C17.0729 3.86723 17.6337 2.69748 18.4581 1.78948C19.1616 1.01472 20.0408 0.427969 21.1206 0.373751C24.6033 0.198898 31.3095 5.63328 33.8267 7.85648C34.5288 8.47656 35.0966 9.23795 35.8102 9.84697C35.9978 10.0073 36.2289 9.96819 36.4607 9.9498L36.5614 9.94135C37.5349 9.28424 47.9118 9.72389 49.31 10.2541C50.0934 9.65146 50.8982 8.45364 51.7336 7.78667C54.1428 5.86322 64.0761 -0.861695 66.6845 2.8198C69.4921 6.78263 68.8696 15.1529 68.4983 19.844C68.4046 21.1232 67.8814 24.0268 67.5416 24.9387C68.648 27.4637 69.0411 30.3155 69.6071 32.9749C69.8235 33.9926 70.5512 35.4408 70.9811 36.4311C72.3986 39.6969 72.2657 42.2223 70.9703 45.4609C70.6669 45.956 70.3292 46.4305 69.9599 46.8806C69.6243 47.1614 69.4423 47.3977 69.1632 47.7334C68.9878 47.8884 68.8773 47.9815 68.7266 48.1581C68.2686 48.6226 67.8246 49.0855 67.3322 49.5156C65.1843 51.4078 62.7091 52.9093 60.0228 53.9493C59.3548 54.2146 54.9497 55.513 54.8133 55.6332L54.9761 55.9665C55.9853 57.2474 56.7109 58.2102 57.5168 59.6543C57.9951 60.5119 58.6422 61.9519 59.1587 62.7005C60.9297 63.5114 63.759 64.3031 65.6819 64.9696L65.7783 65.0603C65.7036 65.2191 65.6373 65.3771 65.5381 65.5218C65.0899 65.6922 64.9556 65.7812 64.5509 66.045C63.9505 66.5037 63.6479 66.7628 63.1155 67.3284L62.8662 67.8417C62.9598 68.2389 63.0086 69.0277 63.1141 69.2184C63.4564 69.3301 64.8792 68.5464 65.3364 68.3464C65.5363 69.5184 63.3575 71.2339 62.9192 72.3245C62.8431 72.5142 62.6035 72.9134 62.4745 73.0608C62.7894 73.4267 63.0749 73.6185 63.0054 74.1105C63.206 74.362 63.1629 74.2407 63.1601 74.5692C64.7063 76.617 65.1127 76.195 66.7203 77.4502C66.5277 78.1167 66.0603 78.6785 65.638 79.2334C65.0496 80.2539 64.5025 80.5844 63.4392 81.1369C63.1152 80.9441 62.6011 80.6596 62.3058 80.4525C60.9634 79.4258 59.5077 78.5187 58.1417 77.4866C56.781 76.4579 55.8878 75.612 54.6745 74.4146C54.7727 75.3271 54.841 75.9154 54.6811 76.8403C55.6894 79.0887 57.3015 81.8217 58.0569 84.0698C57.4666 84.2608 57.1503 84.4103 56.6001 84.6735C57.461 86.2952 57.562 90.0187 57.5799 91.8603C57.6402 92.398 57.6553 92.5259 57.8538 93.0241C58.6201 93.6195 59.0353 93.914 59.6662 94.6499C60.2178 95.3718 60.8255 96.136 60.5937 97.0829C60.2634 97.4639 59.9415 97.7941 59.4459 97.9556C55.124 99.3636 49.3521 99.2314 45.1403 97.6381L44.7903 96.8355C45.0828 95.624 45.7347 94.7994 46.1468 93.6814C46.1026 93.2508 45.9058 92.8495 45.7102 92.4674C44.2222 89.5627 44.0788 87.2504 40.0739 88.2842C39.942 89.894 39.1828 89.6215 37.8253 89.6005C37.4949 89.5954 37.1477 89.583 36.8156 89.5751C36.3327 89.6181 36.0483 89.7129 35.6882 89.4394C35.5563 89.137 35.6671 88.6629 35.7145 88.3152L33.1916 88.1884C32.2665 90.2674 30.6176 91.9706 29.6851 93.8074C29.3284 93.9366 29.0815 94.2579 28.8059 94.528L28.5134 94.4252C28.3181 94.3022 27.7489 94.2246 27.4985 94.182C27.1566 94.1139 26.8957 94.0614 26.5594 93.9638C25.1317 93.7985 23.8475 93.6776 22.43 93.5401L21.7024 93.6143L21.1192 93.6181C20.5714 93.794 20.3354 93.8796 19.8262 94.1394C19.2865 94.1768 19.0003 94.2472 18.4683 94.3709C18.1695 94.1809 18.0577 94.061 17.8115 93.8205C17.6487 92.1799 18.126 86.6625 18.7843 85.1476C18.7962 84.8009 18.7012 84.6621 18.4578 84.4288C17.0203 83.5966 16.0766 83.1634 15.0126 81.8471C14.0798 80.8177 13.6144 79.5485 13.1122 78.283C12.8703 77.5395 12.6416 76.7905 12.5809 76.0098C12.1773 71.9242 17.4226 63.3204 19.7739 59.9563C20.927 58.6799 21.5961 57.1354 23.0539 55.9603C23.5533 55.558 25.5852 53.9418 25.7668 53.5861C25.7539 53.5257 25.7409 53.4655 25.7279 53.4051C20.1123 51.6277 14.4578 48.0609 11.4423 42.9926C10.7391 41.8106 10.6658 40.5517 10.7276 39.7092C10.8654 37.824 11.7446 36.4152 12.1794 34.63C12.5006 33.2652 12.677 31.7517 12.9201 30.3519C13.2199 28.5244 13.6639 26.7222 14.2471 24.9613ZM37.1358 13.5891C36.7623 13.0069 36.3618 12.4417 35.9354 11.8952C32.6775 7.75667 26.3262 3.22015 21.0164 1.6182C20.7046 1.52416 20.2663 2.0025 20.038 2.21378C19.7329 2.95438 20.0958 3.01451 20.1646 3.57432C20.5721 3.80611 20.846 3.96846 21.3373 3.96694C22.9782 3.845 24.1929 5.339 24.9529 6.59582C27.0097 8.92254 28.7158 11.0864 30.4219 13.6698C30.6919 14.0788 31.4943 15.1682 31.6489 15.5808C32.364 15.2912 33.1594 14.4555 34.1911 14.0977C34.9738 13.8261 36.7027 13.8265 37.1358 13.5891ZM51.7876 94.0703C51.0939 94.2077 50.6184 94.3503 49.9451 94.5561C49.5951 94.4788 49.2686 94.4355 48.9123 94.4785L48.8548 94.4795C48.3308 94.4946 47.8255 94.3613 47.3103 94.2541C47.0024 94.0315 46.5178 93.6779 46.1468 93.6814C45.7347 94.7994 45.0828 95.624 44.7903 96.8355L45.1403 97.6381C49.3521 99.2314 55.124 99.3636 59.4459 97.9556C59.9415 97.7941 60.2634 97.4639 60.5937 97.0829C60.8255 96.136 60.2178 95.3718 59.6662 94.6499C59.0353 93.914 58.6201 93.6195 57.8538 93.0241L57.4463 93.3628C57.0781 93.2618 57.2033 93.3422 56.962 93.0718C55.8342 92.8828 52.8 92.9646 51.7872 93.5573L51.7876 94.0703ZM49.31 10.2541C49.2756 10.5415 49.1788 11.412 49.0799 11.6528C50.5237 11.9484 51.782 12.1917 53.1753 12.6977C57.7051 14.343 61.5378 17.811 64.1613 21.7249C65.2025 23.2749 66.0764 24.9266 66.769 26.6535C67.6598 28.9174 67.9975 31.4009 68.6624 33.7383C69.6008 37.0354 72.4958 40.9235 69.7162 44.1271L69.9326 44.7569C70.3979 44.8421 70.5901 45.1373 70.9703 45.4609C72.2657 42.2223 72.3986 39.6969 70.9811 36.4311C70.5512 35.4408 69.8235 33.9926 69.6071 32.9749C69.0411 30.3155 68.648 27.4637 67.5416 24.9387C67.8814 24.0268 68.4046 21.1232 68.4983 19.844C68.8696 15.1529 69.4921 6.78263 66.6845 2.8198C64.0761 -0.861695 54.1428 5.86322 51.7336 7.78667C50.8982 8.45364 50.0934 9.65146 49.31 10.2541ZM25.5449 55.6783C24.1025 55.1206 21.5305 59.6196 20.672 60.4054C18.4189 64.022 16.2968 67.4527 14.6861 71.4081C14.2895 72.3822 13.7919 73.3745 13.458 74.3747L15.006 73.1319C17.0305 68.0763 19.3861 63.5478 22.8435 59.2767C23.6084 58.3315 25.123 56.7448 25.5449 55.6783Z" fill="url(#paint7_linear_2505_8339)"/>
<path d="M62.5506 27.8293C63.2021 27.763 64.0609 28.6188 63.7596 29.4135C63.6195 29.7828 62.6647 30.1222 62.3277 30.2837C61.4165 30.72 60.4729 31.0956 59.5441 31.4817C63.377 31.7273 63.7299 38.2126 60.3397 39.5091C59.5593 39.8074 58.6973 39.5316 58.0018 39.0695C55.9633 37.3868 56.0085 34.2802 57.6501 32.2482C56.8861 32.5325 55.2322 33.6435 54.9113 32.1633C54.6003 30.7306 55.9441 30.4791 56.7965 30.1278L59.3008 29.1028L61.2525 28.3068C61.6418 28.1474 62.1613 27.9097 62.5506 27.8293Z" fill="#222139"/>
<path d="M60.4166 33.3548C61.2554 33.3376 61.4534 34.1411 61.0709 34.9166L60.7135 35.1342C60.359 35.158 60.0332 34.9569 59.8904 34.5675C59.8067 34.3441 59.8079 34.09 59.8928 33.8674C60.0036 33.5736 60.1749 33.4618 60.4166 33.3548Z" fill="#FFFBF7"/>
<path d="M54.9761 55.9668C55.9854 57.2477 56.711 58.2104 57.5169 59.6545C57.9952 60.5121 58.6422 61.9521 59.1588 62.7008C60.9298 63.5117 63.7591 64.3033 65.6819 64.9699L65.7784 65.0606C65.7037 65.2193 65.6374 65.3774 65.5382 65.522C65.09 65.6924 64.9557 65.7814 64.551 66.0453C63.9506 66.504 63.648 66.7631 63.1156 67.3286L62.8663 67.8419C62.9599 68.2391 63.0086 69.028 63.1142 69.2187C63.4565 69.3304 64.8792 68.5467 65.3365 68.3467C65.5364 69.5187 63.3576 71.2342 62.9192 72.3248C62.8431 72.5144 62.6036 72.9137 62.4745 73.0611C62.7895 73.427 63.0749 73.6187 63.0055 74.1107C63.2061 74.3623 63.163 74.241 63.1602 74.5694C64.7063 76.6172 65.1128 76.1953 66.7203 77.4504C66.5278 78.117 66.0603 78.6788 65.6381 79.2337C65.0497 80.2541 64.5026 80.5847 63.4393 81.1372C63.1153 80.9444 62.6012 80.6599 62.3059 80.4527C60.9634 79.4261 59.5077 78.519 58.1418 77.4869C56.7811 76.4581 55.8879 75.6122 54.6745 74.4148C54.7727 75.3274 54.8411 75.9156 54.6812 76.8406C55.6894 79.089 57.3015 81.8219 58.0569 84.07C57.4667 84.2611 57.1504 84.4105 56.6002 84.6737C57.4611 86.2955 57.5621 90.0189 57.58 91.8606C57.6403 92.3983 57.6554 92.5261 57.8539 93.0243C58.6201 93.6198 59.0353 93.9142 59.6662 94.6502C60.2179 95.3721 60.8256 96.1362 60.5938 97.0832C60.2635 97.4642 59.9415 97.7944 59.446 97.9559C55.1241 99.3639 49.3521 99.2316 45.1404 97.6384L44.7904 96.8358C45.0828 95.6243 45.7348 94.7997 46.1468 93.6816C46.1026 93.2511 45.9059 92.8498 45.7102 92.4677C44.2223 89.563 44.0788 87.2506 40.074 88.2845C39.9421 89.8942 39.1829 89.6218 37.8253 89.6008C37.495 89.5956 37.1478 89.5833 36.8157 89.5754C36.3328 89.6183 36.0484 89.7132 35.6882 89.4397C35.5564 89.1373 35.6672 88.6631 35.7146 88.3154L33.1917 88.1886C32.2666 90.2677 30.6176 91.9709 29.6852 93.8077C29.3285 93.9369 29.0816 94.2582 28.806 94.5282L28.5135 94.4255C28.3182 94.3025 27.749 94.2248 27.4986 94.1822C27.1567 94.1142 26.8958 94.0616 26.5595 93.964C25.1318 93.7988 23.8476 93.6778 22.4301 93.5404L21.7024 93.6146L21.1192 93.6184C20.5715 93.7943 20.3354 93.8799 19.8262 94.1396C19.2865 94.1771 19.0004 94.2475 18.4684 94.3712C18.1696 94.1812 18.0577 94.0613 17.8115 93.8208C17.6488 92.1801 18.1261 86.6628 18.7844 85.1479C18.7963 84.8012 18.7012 84.6624 18.4579 84.4291C17.0204 83.5969 16.0767 83.1636 15.0127 81.8473C15.0355 81.6591 15.107 81.3553 15.1463 81.1591C15.1866 80.3404 15.3381 80.0411 15.3353 79.076L15.308 79.0189L15.4819 78.0194C15.6401 77.7298 15.7646 77.5167 15.8733 77.2017C16.4221 75.9843 16.9587 75.5122 17.5489 73.9376L18.131 73.0308C21.5036 72.588 23.9556 72.8752 27.1767 73.9912C28.086 74.1856 28.3855 74.5323 28.9501 75.2511C30.3855 75.5456 30.6531 73.8472 30.7015 72.825C32.4289 73.5311 34.4009 73.5981 36.2357 73.8682C37.0437 73.987 37.8369 74.1657 38.6326 74.3461C38.8473 74.0674 38.9454 73.7074 39.0654 73.3713C39.2467 73.0659 39.4375 72.7769 39.6321 72.4801C40.0031 71.4386 41.5135 69.3177 42.2784 68.5006L42.8297 68.9514L43.1292 68.5119C42.5516 67.7897 41.2281 66.5693 40.5358 65.8749L36.0291 61.2887C37.8278 60.8616 41.2134 61.1048 42.5509 60.5864C42.2942 59.4841 39.4925 57.7871 39.6496 56.7224L39.6977 56.5963C39.9379 56.488 48.8114 56.5901 49.4924 56.7224L49.6064 56.8192L49.6099 56.9203C49.9942 57.5566 49.0583 59.0199 48.9538 59.804C50.2232 59.7593 52.664 58.9598 53.7806 59.1811C53.8834 59.0478 54.2439 58.3115 54.3305 58.1348C54.3807 57.6545 54.6675 56.3258 54.9761 55.9668ZM49.9451 94.5564C49.5952 94.4791 49.2687 94.4358 48.9124 94.4787L48.8549 94.4798C48.3309 94.4949 47.8256 94.3616 47.3104 94.2544C47.0025 94.0317 46.5179 93.6782 46.1468 93.6816C45.7348 94.7997 45.0828 95.6243 44.7904 96.8358L45.1404 97.6384C49.3521 99.2316 55.1241 99.3639 59.446 97.9559C59.9415 97.7944 60.2635 97.4642 60.5938 97.0832C60.8256 96.1362 60.2179 95.3721 59.6662 94.6502C59.0353 93.9142 58.6201 93.6198 57.8539 93.0243L57.4464 93.3631C57.0782 93.2621 57.2034 93.3425 56.9621 93.0721C55.8343 92.8831 52.8001 92.9649 51.7873 93.5576L51.7877 94.0706C51.094 94.208 50.6185 94.3506 49.9451 94.5564Z" fill="black"/>
<path d="M18.1309 73.0308C21.5035 72.588 23.9555 72.8752 27.1766 73.9912C28.0859 74.1857 28.3854 74.5323 28.95 75.2511C29.6149 76.6945 29.6766 77.4649 29.5956 79.0574C28.9219 81.9346 27.4445 82.696 25.0777 84.2978C24.7393 84.527 23.4582 85.3221 23.1394 85.3588C22.4696 85.1991 20.1137 84.472 19.6971 84.414C24.2757 86.7854 27.2751 87.619 32.4428 88.2172C31.7572 89.8066 31.1488 90.9886 30.1045 92.3997C29.6938 92.9546 28.7554 93.9242 28.5134 94.4255C28.318 94.3025 27.7489 94.2248 27.4985 94.1822C27.1566 94.1142 26.8956 94.0616 26.5593 93.9641C25.1317 93.7988 23.8475 93.6778 22.43 93.5404L21.7023 93.6146L21.1191 93.6184C20.5713 93.7943 20.3353 93.8799 19.8261 94.1396C19.2864 94.1771 19.0002 94.2475 18.4682 94.3712C18.1695 94.1812 18.0576 94.0613 17.8114 93.8208C17.6487 92.1801 18.126 86.6628 18.7842 85.1479C18.7961 84.8012 19.0276 83.8924 18.7842 83.6591C17.3467 82.827 16.2102 82.4754 15.1462 81.1592C15.1069 81.3553 15.169 80.9709 15.1462 81.1592C15.1865 80.3404 15.338 80.0411 15.3352 79.076L15.3078 79.0189L15.4818 78.0194C15.6399 77.7298 15.7644 77.5168 15.8731 77.2017C16.422 75.9843 16.9585 75.5123 17.5487 73.9376L18.1309 73.0308Z" fill="#6248C7"/>
<path d="M18.1309 73.0308C21.5035 72.588 23.9555 72.8752 27.1766 73.9912L27.1359 74.8168C29.3396 77.2556 29.4034 78.8825 27.3421 81.5017C27.3463 80.6637 27.1159 80.0208 26.9374 79.1997L26.734 79.1196C26.6526 79.2347 26.659 79.2028 26.6186 79.3319C26.6007 80.4136 26.1883 82.0436 25.4109 82.8342C24.0232 85.6035 16.5209 82.9441 16.2688 79.6669C15.9777 79.7058 15.9146 79.7106 15.6231 79.679C15.3836 79.4649 15.4303 79.4161 15.3352 79.076L15.3079 79.0189L15.4818 78.0194C15.64 77.7298 15.7645 77.5168 15.8732 77.2017C16.422 75.9843 16.9586 75.5123 17.5488 73.9376L18.1309 73.0308Z" fill="#FCFBFC"/>
<path d="M18.1309 73.0308C21.5035 72.588 23.9555 72.8752 27.1766 73.9912L27.1359 74.8168C24.7224 74.4547 21.2457 73.7716 19.0974 75.4576C15.87 77.9909 19.864 82.7074 23.1728 82.6369C23.7991 82.6366 24.9034 82.7479 25.4109 82.8342C24.0232 85.6035 16.5209 82.9441 16.2688 79.6669C15.9777 79.7058 15.9146 79.7106 15.6231 79.679C15.3836 79.4649 15.4303 79.4161 15.3352 79.076L15.3079 79.0189L15.4818 78.0194C15.64 77.7298 15.7645 77.5168 15.8732 77.2017C16.422 75.9843 16.9586 75.5123 17.5488 73.9376L18.1309 73.0308Z" fill="#AB8EE5"/>
<path d="M26.6187 79.3316C26.3816 78.9262 26.5534 77.5467 26.6152 77.0522C26.7218 77.7944 26.8575 78.4393 26.9374 79.1993L26.734 79.1193C26.6527 79.2344 26.659 79.2024 26.6187 79.3316Z" fill="#7B58E1"/>
<path d="M22.6818 87.7275C24.7063 88.4113 26.0414 88.8078 27.8205 90.0231C27.7068 91.159 27.2615 92.9951 26.5709 93.9087L26.5594 93.9637C25.1317 93.7984 23.8475 93.6775 22.43 93.54L21.7023 93.6143L21.1191 93.618L21.1444 93.261L21.3836 93.1655L21.4043 92.7783C21.7472 91.1816 22.4293 89.0775 22.6818 87.7275Z" fill="#7FA8EF"/>
<path d="M54.976 55.9668C55.9853 57.2477 56.7109 58.2104 57.5168 59.6545C57.9951 60.5121 58.6421 61.9521 59.1587 62.7008C60.9297 63.5117 63.759 64.3033 65.6819 64.9699L65.7783 65.0606C65.7036 65.2193 65.6373 65.3774 65.5381 65.522C65.0899 65.6924 64.9556 65.7814 64.5509 66.0453C63.9505 66.504 63.6479 66.7631 63.1155 67.3286L62.8921 66.9768C62.6228 67.2324 62.3566 67.4891 62.0771 67.7344C61.1162 67.0129 57.3397 65.4774 56.1288 65.1334L55.6241 65.163C55.5508 65.7502 55.3579 67.1098 55.4011 67.6756C55.2839 69.0638 55.0609 70.3591 54.7176 71.7125C54.6646 71.9207 54.5854 72.2045 54.5643 72.4124L54.0555 72.3694C51.6519 72.0612 48.9144 73.4483 47.2476 73.1435C47.7091 72.2231 48.8208 70.7147 49.4187 69.7794C51.3008 66.8349 53.831 62.2669 54.2701 58.8L54.3304 58.1348C54.3806 57.6545 54.6674 56.3258 54.976 55.9668Z" fill="#7C4A4A"/>
<path d="M54.976 55.9668C55.9852 57.2477 56.7108 58.2104 57.5167 59.6545C57.995 60.5121 58.6421 61.9521 59.1586 62.7008C60.9296 63.5117 63.759 64.3033 65.6818 64.9699L65.7782 65.0606C65.7035 65.2193 65.6372 65.3774 65.538 65.522C65.0898 65.6924 64.9555 65.7814 64.5508 66.0453L64.4214 65.9213L64.4516 65.7103L64.3439 65.6382C63.0015 64.6136 59.0029 63.8388 57.2347 63.4794L58.0718 62.8152C57.6103 61.3381 57.1913 60.0552 56.0294 58.9413C55.4452 58.9299 54.8525 58.8591 54.27 58.8L54.3303 58.1348C54.3805 57.6545 54.6674 56.3258 54.976 55.9668Z" fill="url(#paint8_linear_2505_8339)"/>
<path d="M55.624 65.1628C55.6612 64.1461 55.4609 60.5251 55.6759 59.9413L55.7951 59.9341C56.2843 60.679 56.2829 64.1702 56.1286 65.1333L55.624 65.1628Z" fill="#4F2958"/>
<path d="M64.3439 65.6382L64.4516 65.7103L64.4214 65.9213L64.5509 66.0453C63.9505 66.504 63.6478 66.7631 63.1155 67.3286L62.8921 66.9768C63.233 66.5198 63.8905 66.0639 64.3439 65.6382Z" fill="#4F2958"/>
<path d="M48.9536 59.8041C50.2231 59.7595 52.6639 58.9599 53.7804 59.1812C52.2448 63.865 50.6656 67.2161 47.7595 71.2515C47.1146 72.1466 46.4805 73.1712 45.8089 74.0518C44.463 73.9947 41.0729 73.8391 39.7771 73.9216C40.126 73.0932 41.9356 71.0113 42.5724 70.1627C44.6243 67.4291 46.343 64.5986 47.966 61.6059C48.1617 61.2448 48.8764 60.0615 48.9536 59.8041Z" fill="#7C4A4A"/>
<path d="M44.3611 88.5514C47.8185 88.5266 52.9719 86.9148 56.0495 85.3989C56.2982 86.0713 56.4013 86.4981 56.5324 87.1935C56.78 88.484 56.8621 89.5591 56.9343 90.8733C56.9473 91.5588 56.9845 92.3982 56.962 93.0716C55.8342 92.8827 52.8001 92.9644 51.7873 93.5571L51.7876 94.0701C51.094 94.2075 50.6184 94.3501 49.9451 94.5559C49.5951 94.4786 49.2686 94.4353 48.9123 94.4783C48.5522 93.8959 48.0552 93.9306 47.5639 93.641C46.1208 92.7902 44.8065 90.0666 44.3611 88.5514Z" fill="#6248C7"/>
<path d="M50.9575 89.5014C52.6415 88.7709 54.8186 87.7642 56.5324 87.1938C56.78 88.4844 56.8621 89.5595 56.9343 90.8737C56.9473 91.5592 56.9845 92.3985 56.962 93.072C55.8342 92.883 52.8 92.9648 51.7872 93.5575C51.4271 92.4649 51.0995 90.6335 50.9575 89.5014Z" fill="#7FA8EF"/>
<path d="M29.5956 79.0571C31.8726 79.2427 34.2731 79.4746 36.5459 79.5522C36.5445 81.5327 36.0889 85.6297 35.7484 87.6166C35.4247 87.6056 34.8991 87.6036 34.5999 87.54C33.3052 87.5225 30.6301 87.1449 29.4097 86.8621C28.8704 86.6872 27.5742 86.4045 26.9808 86.2577C25.9074 85.9925 24.1809 85.4197 23.1394 85.3586C23.4582 85.3218 24.7392 84.5267 25.0777 84.2976C27.4445 82.6957 28.9219 81.9343 29.5956 79.0571Z" fill="#4F2958"/>
<path d="M32.9085 79.6973C33.8413 80.0165 34.6332 80.3164 35.6042 80.515L34.5999 87.5404C33.3051 87.5229 30.6301 87.1453 29.4097 86.8625C30.8377 84.836 32.3677 82.1244 32.9085 79.6973Z" fill="#7C4A4A"/>
<path d="M51.7872 93.5575C52.8 92.9648 55.8342 92.883 56.962 93.072C57.2033 93.3424 57.0781 93.262 57.4463 93.363L57.8538 93.0242C58.62 93.6197 59.0353 93.9141 59.6661 94.6501C60.2178 95.372 60.8255 96.1361 60.5937 97.0831C60.2634 97.4641 59.9414 97.7943 59.4459 97.9558C55.124 99.3638 49.352 99.2315 45.1403 97.6383L44.7903 96.8357C45.0828 95.6242 45.7347 94.7996 46.1467 93.6815C46.5178 93.6781 47.0024 94.0316 47.3103 94.2543C47.8255 94.3615 48.3308 94.4948 48.8548 94.4797L48.9123 94.4786C49.2686 94.4357 49.5951 94.479 49.9451 94.5563C50.6184 94.3505 51.0939 94.2079 51.7876 94.0705L51.7872 93.5575ZM58.1357 95.2315L58.5962 95.7819C58.9707 96.1798 58.9486 96.6869 59.5834 96.7233L59.6493 96.567C59.5185 96.0111 58.6919 94.5982 58.1168 94.4728L58.0077 94.6161C57.999 94.9195 57.9944 94.9641 58.1357 95.2315Z" fill="#FCFBFC"/>
<path d="M46.1467 93.6812C46.5178 93.6777 47.0024 94.0313 47.3103 94.2539C47.8255 94.3611 48.3308 94.4945 48.8548 94.4793L48.9123 94.4783C49.2686 94.4353 49.5951 94.4786 49.9451 94.556C49.3934 95.1421 49.1613 95.451 48.7141 96.1293C49.5183 96.8769 50.3827 97.4167 51.5018 97.6222C51.897 97.6809 52.3217 97.7228 52.7211 97.7692C52.7758 97.2693 52.6415 96.2395 53.3092 96.1811C53.8437 96.5694 53.9163 97.1868 54.0955 97.8238C57.2345 97.4143 57.6427 98.5069 57.1896 94.882C57.9145 95.5757 58.7999 97.2621 59.9863 96.779C60.2041 96.8786 60.3879 96.9573 60.5937 97.0827C60.2634 97.4638 59.9414 97.7939 59.4459 97.9554C55.124 99.3635 49.352 99.2312 45.1403 97.638L44.7903 96.8353C45.0828 95.6238 45.7347 94.7992 46.1467 93.6812Z" fill="#6248C7"/>
<path d="M51.7874 93.5575C52.8001 92.9648 55.8343 92.883 56.9621 93.072C57.2034 93.3424 57.0782 93.262 57.4464 93.363L57.3286 93.4513C55.3567 93.73 53.9192 93.6296 51.7877 94.0705L51.7874 93.5575Z" fill="#6248C7"/>
<path d="M59.1667 95.2819C59.3435 95.0837 59.5048 94.862 59.6661 94.6504C60.2178 95.3723 60.8255 96.1364 60.5937 97.0833C60.3879 96.9579 60.2041 96.8793 59.9863 96.7796C59.6917 96.1213 59.5732 95.8911 59.1667 95.2819Z" fill="#7B58E1"/>
<path d="M55.624 65.1628L56.1286 65.1333C57.3396 65.4772 61.1161 67.0127 62.077 67.7343C60.4309 71.1554 59.4977 74.5635 60.7532 78.3021C58.8563 77.5561 55.3999 75.0332 54.8213 73.0565C54.7459 72.6335 54.8195 72.7177 54.5642 72.4122C54.5853 72.2044 54.6645 71.9206 54.7175 71.7124C55.0608 70.359 55.2838 69.0636 55.4009 67.6755C55.3578 67.1096 55.5507 65.75 55.624 65.1628Z" fill="#14136B"/>
<path d="M55.4009 67.6753C56.0161 69.0369 55.9887 69.9471 55.442 71.3459C55.2722 71.7802 54.8304 72.6611 54.8213 73.0563C54.7459 72.6333 54.8195 72.7175 54.5642 72.412C54.5853 72.2041 54.6645 71.9203 54.7175 71.7121C55.0608 70.3587 55.2838 69.0634 55.4009 67.6753Z" fill="#010146"/>
<path d="M36.0288 61.2887C37.8275 60.8616 41.213 61.1049 42.5506 60.5864C43.6787 61.7725 44.9619 63.0833 45.9989 64.3357C45.2688 65.4599 43.6419 67.5778 43.1289 68.512C42.5513 67.7898 41.2278 66.5694 40.5355 65.875L36.0288 61.2887Z" fill="#7C4A4A"/>
<path d="M39.6975 56.5963C39.9377 56.4881 48.8112 56.5901 49.4922 56.7224L49.6062 56.8193L49.6097 56.9203C49.2099 57.8191 48.5064 59.7477 48.0951 60.4854C47.2681 60.4637 44.261 60.5256 43.8335 61.1705C42.6159 60.2222 40.9024 57.7401 39.6494 56.7224L39.6975 56.5963Z" fill="#C7A5CD"/>
<path d="M37.7245 79.7002C38.1927 80.0091 39.5639 80.8705 39.8308 81.3188C39.4426 83.8188 39.6554 86.46 39.3486 88.8249C39.0775 88.9352 38.1604 88.7768 37.5653 88.8496L37.4268 88.8428L37.3286 88.7345C37.2676 85.5618 37.4359 82.8708 37.7245 79.7002Z" fill="#7C4A4A"/>
<path d="M36.9878 79.0327C37.9813 79.0327 39.1361 79.1348 40.1398 79.2011C40.0472 79.9236 39.956 80.6019 39.8308 81.3193C39.5639 80.8709 38.1927 80.0095 37.7246 79.7007C37.436 82.8713 37.2676 85.5623 37.3286 88.735L37.4268 88.8432L37.5654 88.8501L37.1603 88.9872L36.8156 89.5754C36.3327 89.6184 36.0483 89.7132 35.6881 89.4397C35.5563 89.1373 35.6671 88.6632 35.7144 88.3155L35.9241 88.2093C36.3625 86.6851 36.9587 80.6902 36.9878 79.0327Z" fill="#4A141C"/>
<path d="M35.9241 88.209C35.9561 88.534 35.9375 88.7591 36.1493 88.9975C36.439 89.1411 36.8138 89.0357 37.1603 88.9869L36.8156 89.5751C36.3327 89.618 36.0483 89.7129 35.6881 89.4394C35.5563 89.137 35.6671 88.6629 35.7144 88.3152L35.9241 88.209Z" fill="#470101"/>
<path d="M62.8662 67.8418C62.9598 68.239 63.0086 69.0279 63.1141 69.2186C63.4564 69.3302 64.8791 68.5465 65.3364 68.3465C65.5363 69.5185 63.3575 71.2341 62.9191 72.3246C62.843 72.5143 62.6035 72.9135 62.4745 73.0609C61.9775 72.6936 61.5532 72.4555 61.0068 72.1741C61.5013 70.5373 61.8664 69.2553 62.8662 67.8418Z" fill="#AB8EE5"/>
<path d="M62.3057 80.4526C62.5234 79.6115 62.8661 76.558 63.6923 76.0547C64.3828 76.9401 64.926 78.4818 65.6379 79.2336C65.0494 80.254 64.5024 80.5846 63.4391 81.1371C63.1151 80.9443 62.6009 80.6598 62.3057 80.4526Z" fill="#6B0800"/>
<path d="M60.9211 72.8359L63.0053 74.1107C63.2059 74.3622 63.1627 74.2409 63.1599 74.5693C62.1531 76.579 62.0563 77.4136 61.7635 79.6067C60.9832 77.6895 60.9317 74.8779 60.9211 72.8359Z" fill="#AB8EE5"/>
<path d="M43.8335 61.1705C44.261 60.5256 47.2681 60.4638 48.0951 60.4854C47.5385 61.631 46.8838 62.761 46.2589 63.8746C45.393 63.1032 44.5699 62.0677 43.8335 61.1705Z" fill="#FCFBFC"/>
<path d="M47.2474 73.1433C48.9143 73.4481 51.6517 72.061 54.0554 72.3692C52.5407 74.0112 48.356 73.7302 46.2466 74.1765C46.4787 73.9081 46.9732 73.3306 47.2474 73.1433Z" fill="#4F2958"/>
<path d="M42.2781 68.5005L42.8294 68.9513C41.9057 69.9707 41.0178 72.1731 39.6318 72.4799C40.0029 71.4385 41.5133 69.3175 42.2781 68.5005Z" fill="#4A141C"/>
<path d="M42.1685 79.1975C45.5231 79.2652 51.137 78.2492 54.1476 76.9219C54.4187 77.5393 54.6488 78.1708 54.8862 78.801C55.3003 79.998 56.4692 82.5732 57.072 83.7267C53.8604 85.4766 51.2836 86.6238 47.6031 87.1564C46.3641 87.3357 45.1237 87.4374 43.9215 87.602C43.789 85.7411 43.3124 82.2544 42.6272 80.5076C42.3989 80.2361 42.2579 79.5596 42.1685 79.1975Z" fill="#7C4A4A"/>
<path d="M42.1685 79.1975C45.5231 79.2652 51.137 78.2492 54.1476 76.9219C54.4187 77.5393 54.6488 78.1708 54.8862 78.801C53.8078 79.304 48.6043 79.705 47.0434 79.9156C45.8062 80.0826 43.8718 80.3557 42.6272 80.5076C42.3989 80.2361 42.2579 79.5596 42.1685 79.1975Z" fill="#4A141C"/>
<path d="M51.9633 74.4067C52.4395 74.1611 53.2941 73.8584 53.8237 73.6948C54.1449 75.5279 54.6688 76.1511 52.5605 76.9105C45.5032 77.9698 40.6034 78.8445 33.7969 75.889C34.103 75.2722 34.2756 74.9369 34.6617 74.3593C38.9955 75.2705 47.8146 75.589 51.9633 74.4067Z" fill="#4A141C"/>
<path d="M51.9631 74.4067C52.4394 74.1611 53.294 73.8584 53.8235 73.6948C54.1448 75.5279 54.6687 76.1511 52.5604 76.9105C52.283 76.1446 52.1255 75.2152 51.9631 74.4067Z" fill="#470101"/>
<path d="M40.5961 79.272L41.7909 79.3922C41.9771 80.3423 42.1002 81.8245 42.2131 82.8384C42.3573 84.1321 42.7273 85.9496 42.7785 87.1931C42.5537 87.3999 42.4397 87.356 42.0855 87.4137C41.3862 87.4858 40.8342 87.514 40.1311 87.5339C40.136 85.2429 40.3584 81.5019 40.5961 79.272Z" fill="#14136B"/>
<path d="M18.4224 25.5223C19.0203 25.3543 20.5977 22.9544 21.7448 22.1758C23.096 22.6661 23.5456 22.9297 24.3574 24.1734C23.7784 26.1064 23.0813 28.8019 22.2259 30.5412C20.1169 34.8309 16.8828 37.5274 19.6322 42.5458C21.6336 46.1996 26.2452 49.4815 30.2655 50.637L30.3602 50.6638C31.2705 50.9768 32.3721 51.3084 33.2972 51.574C42.4631 54.1303 52.2379 53.6139 61.0696 50.1065C62.4422 49.551 64.2798 48.5683 65.5991 47.8612C67.4662 46.5445 68.1584 45.7646 69.7162 44.127L69.9326 44.7568C70.3979 44.8421 70.5901 45.1372 70.9703 45.4609C70.6669 45.956 70.3292 46.4305 69.9599 46.8806C69.6243 47.1613 69.4423 47.3977 69.1632 47.7334C68.9878 47.8883 68.8774 47.9814 68.7266 48.158C68.2686 48.6226 67.8246 49.0854 67.3322 49.5156C65.1843 51.4077 62.7091 52.9092 60.0228 53.9492C59.3548 54.2145 54.9498 55.5129 54.8133 55.6332L54.9761 55.9665C54.6674 56.3255 54.3806 57.6542 54.3304 58.1345C54.2438 58.3111 53.8833 59.0474 53.7806 59.1807C52.664 58.9595 50.2232 59.759 48.9537 59.8037C49.0582 59.0196 49.9942 57.5562 49.6098 56.9199L49.6063 56.8189L49.4923 56.722C48.8113 56.5897 39.9378 56.4877 39.6976 56.5959L39.6496 56.722C39.4924 57.7868 42.2941 59.4838 42.5508 60.586C41.2133 61.1045 37.8277 60.8612 36.029 61.2883L40.5357 65.8746C41.228 66.569 42.5515 67.7894 43.1291 68.5116L42.8296 68.9511L42.2783 68.5003C41.5135 69.3173 40.003 71.4383 39.632 72.4797C39.4374 72.7766 39.2466 73.0655 39.0653 73.371C38.9454 73.707 38.8472 74.0671 38.6326 74.3458C37.8368 74.1654 37.0436 73.9867 36.2356 73.8678C34.4008 73.5978 32.4289 73.5308 30.7014 72.8247C30.653 73.8469 30.3854 75.5452 28.95 75.2508C28.3854 74.532 28.0859 74.1853 27.1766 73.9908C23.9555 72.8749 21.5035 72.5876 18.1309 73.0305L17.5488 73.9372C16.9586 75.5119 16.422 75.984 15.8732 77.2013C15.7645 77.5164 15.64 77.7294 15.4818 78.0191L15.3079 79.0186L15.3353 79.0756C15.3381 80.0408 15.1866 80.34 15.1462 81.1588C15.107 81.355 15.0354 81.6587 15.0126 81.847C14.0798 80.8176 13.6144 79.5484 13.1122 78.283C12.8703 77.5394 12.6416 76.7904 12.5809 76.0098C12.1773 71.9241 17.4226 63.3203 19.7739 59.9562C20.927 58.6798 21.5961 57.1353 23.0539 55.9603C23.5533 55.5579 25.5852 53.9417 25.7668 53.5861C25.7539 53.5256 25.7409 53.4655 25.7279 53.405C20.1123 51.6276 14.4578 48.0608 11.4423 42.9925C10.7391 41.8106 10.6658 40.5517 10.7276 39.7092C10.8654 37.8239 11.7446 36.4152 12.1794 34.6299C12.5006 33.2651 12.677 31.7516 12.9201 30.3518C13.2199 28.5243 13.6639 26.7222 14.2471 24.9613C14.6454 25.1403 15.2399 25.4478 15.4513 25.8426C15.8241 26.3284 15.8778 26.6143 16.1043 27.162L16.7387 27.52C16.846 27.7852 16.9025 28.0343 17.1343 28.179C17.8287 28.0656 18.4196 26.1044 18.4224 25.5223ZM13.458 74.3746L15.006 73.1319C17.0305 68.0763 19.3861 63.5478 22.8435 59.2766C23.6084 58.3314 25.123 56.7447 25.5449 55.6782C24.1025 55.1205 21.5305 59.6195 20.672 60.4053C18.4189 64.0219 16.2968 67.4527 14.6861 71.4081C14.2895 72.3821 13.7919 73.3744 13.458 74.3746Z" fill="#14136B"/>
<path d="M20.672 60.4057C21.5305 59.6199 24.1025 55.1209 25.5448 55.6786C25.123 56.7451 23.6083 58.3318 22.8435 59.277C19.3861 63.5482 17.0305 68.0767 15.0059 73.1322L13.458 74.375C13.7919 73.3748 14.2895 72.3825 14.6861 71.4085C16.2968 67.453 18.4188 64.0223 20.672 60.4057Z" fill="#86FAF7"/>
<path d="M25.5448 55.6782L25.6065 55.7421C26.8679 57.0251 28.3815 57.2185 28.9987 59.3357C30.3264 61.5041 30.0304 62.4861 30.0651 64.9163C30.1114 68.1468 29.8961 71.2665 29.5668 74.4767C28.2395 73.2889 24.6484 72.0967 22.8855 72.0537C21.5255 72.0228 20.2115 72.2365 18.8631 72.3581C18.6713 72.3757 17.6802 72.5038 17.5455 72.4956C16.7046 72.5347 15.7854 72.9814 15.0059 73.1319C17.0304 68.0763 19.386 63.5478 22.8434 59.2766C23.6083 58.3314 25.1229 56.7447 25.5448 55.6782Z" fill="#7C4A4A"/>
<path d="M25.5448 55.6782L25.6065 55.7421C26.8679 57.0251 28.3815 57.2185 28.9987 59.3357C28.4215 59.223 28.129 59.0904 27.6163 58.7942C24.6708 62.6713 21.3263 66.9177 21.366 71.995C21.885 71.9802 22.378 71.9414 22.8855 72.0537C21.5255 72.0228 20.2115 72.2365 18.8631 72.3581C18.6713 72.3757 17.6802 72.5038 17.5455 72.4956C16.7046 72.5347 15.7854 72.9814 15.0059 73.1319C17.0304 68.0763 19.386 63.5478 22.8434 59.2766C23.6083 58.3314 25.1229 56.7447 25.5448 55.6782Z" fill="#4F2958"/>
<path d="M35.4545 61.9595L35.8784 62.47C36.4953 63.6328 37.6143 64.6151 38.7278 65.3277C39.8717 66.3313 41.1339 67.549 42.2782 68.5004C41.5133 69.3174 40.0029 71.4384 39.6319 72.4798C39.4372 72.7767 39.2465 73.0657 39.0651 73.3711C38.1067 72.574 36.3975 72.4929 35.2437 71.8954C33.1522 70.8093 32.5567 68.3489 32.3375 66.2207C32.2558 65.4284 32.3217 64.4873 32.0591 63.7444C33.1322 63.1277 34.3466 62.5305 35.4545 61.9595Z" fill="#7C4A4A"/>
<path d="M30.7012 72.8248C30.3775 70.631 30.6851 66.723 30.5946 64.376C30.5146 62.2918 30.8727 61.9406 30.2081 59.7616C29.6169 57.823 26.4659 55.677 26.3281 55.2093C27.2522 54.4253 34.5665 60.9408 35.4544 61.9595C34.3466 62.5306 33.1322 63.1277 32.0591 63.7445C32.3217 64.4873 32.2558 65.4284 32.3375 66.2207C32.5567 68.3489 33.1522 70.8093 35.2437 71.8954C36.3975 72.4929 38.1067 72.574 39.0651 73.3712C38.9452 73.7072 38.847 74.0673 38.6324 74.3459C37.8367 74.1655 37.0434 73.9869 36.2354 73.868C34.4006 73.5979 32.4287 73.5309 30.7012 72.8248Z" fill="#4F2958"/>
<path d="M15.4512 25.8428C15.8239 26.3286 15.8776 26.6145 16.1041 27.1622C15.4483 28.6482 15.6493 34.0291 15.5735 35.8869C15.5059 37.5468 14.889 39.3218 14.8893 40.826C14.8886 41.5912 15.0384 42.3495 15.3298 43.0597C16.6744 46.4104 19.5984 47.9968 22.2464 50.2263C22.3744 50.3339 22.4207 50.4785 22.4099 50.6407C21.9782 50.4624 21.5696 50.2459 21.1393 50.0153C17.4294 48.0291 12.202 44.7498 11.9842 40.1066C11.9046 38.4068 13.1952 35.6265 13.5378 33.8041C13.8881 31.9401 14.1729 27.1336 15.4512 25.8428Z" fill="#86FAF7"/>
<path d="M36.029 61.2883C35.7337 60.9805 35.3459 60.7193 35.0103 60.4434C32.7578 58.5929 30.5365 56.7368 28.2013 54.9859C27.9628 54.8068 27.73 54.5083 27.9036 54.2265C28.2578 54.1599 28.7045 54.2822 29.0457 54.3829C31.7636 55.1855 34.5582 55.6995 37.3574 56.1396C38.1209 56.2595 38.9632 56.3664 39.6976 56.5959L39.6495 56.722C39.4924 57.7868 42.2941 59.4838 42.5508 60.586C41.2133 61.1045 37.8277 60.8612 36.029 61.2883Z" fill="#4A141C"/>
<path d="M19.7738 59.9561C20.0586 60.1217 20.5331 60.3216 20.672 60.4051C18.4188 64.0218 16.2968 67.4525 14.6861 71.4079C14.2894 72.382 13.7918 73.3743 13.4579 74.3745L15.0059 73.1317C15.7855 72.9812 16.7046 72.5345 17.5456 72.4954C17.46 73.0564 17.3562 73.3952 17.5487 73.9371C16.9585 75.5117 16.422 75.9838 15.8731 77.2012C15.7644 77.5162 15.6399 77.7293 15.4818 78.0189L15.3078 79.0184L15.3352 79.0755C15.338 80.0406 15.1865 80.3399 15.1462 81.1586C15.1069 81.3548 15.0353 81.6586 15.0126 81.8468C14.0797 80.8174 13.6144 79.5482 13.1122 78.2828C12.8702 77.5393 12.6415 76.7902 12.5809 76.0096C12.1772 71.924 17.4225 63.3201 19.7738 59.9561Z" fill="black"/>
<path d="M69.9326 44.7568C69.2415 45.7528 68.5729 46.774 67.75 47.6631C63.8171 51.9132 58.0767 53.9591 52.4482 54.9717C51.7015 55.106 49.7339 55.4639 48.832 55.4639L48.667 55.459C47.4147 55.581 46.3063 55.6713 45.0449 55.6631C39.1784 55.6802 33.7359 54.4742 28.1436 52.8418C28.2812 52.0553 27.7796 51.5377 28.1885 51.0654C29.121 50.6919 29.4766 51.59 30.3604 50.6641C31.2706 50.977 32.3719 51.3086 33.2969 51.5742C42.4627 54.1305 52.2377 53.6137 61.0693 50.1064C62.4419 49.5509 64.2803 48.5684 65.5996 47.8613L66.2578 47.3838C67.7038 46.3009 68.5697 45.4074 69.9326 43.9746V44.7568Z" fill="url(#paint9_linear_2505_8339)"/>
<path fill-rule="evenodd" clip-rule="evenodd" d="M21.7446 22.1758C23.0958 22.6661 23.5455 22.9298 24.3573 24.1736C23.7783 26.1066 23.0811 28.8021 22.2258 30.5414C20.1168 34.8311 16.8829 37.5275 19.6323 42.5459C21.6336 46.1996 26.245 49.4819 30.2653 50.6374L30.3601 50.6639C31.2705 50.9769 32.3724 51.3086 33.2975 51.5742C42.4634 54.1304 52.238 53.6139 61.0697 50.1065C62.4423 49.551 64.2799 48.5682 65.5992 47.8611C67.4662 46.5445 68.3751 45.4399 69.9328 43.8025V44.7567C69.2416 45.7528 68.5726 46.7743 67.7496 47.6635C63.8166 51.9136 58.0765 53.9589 52.448 54.9715C51.6516 55.1148 49.4668 55.5126 48.6668 55.459C47.4147 55.581 46.3065 55.6709 45.0452 55.6627C39.1786 55.6799 33.7357 54.4742 28.1433 52.8418C28.1605 52.7435 28.1677 52.6493 28.168 52.559C28.1681 52.5138 28.1665 52.4695 28.1635 52.4261C28.1606 52.3827 28.1562 52.3403 28.1509 52.2986C28.1721 52.4651 28.1774 52.6455 28.143 52.8422C26.378 52.3677 23.9618 51.5282 22.41 50.6407C22.4209 50.4785 22.3743 50.3339 22.2463 50.2263C19.5983 47.9968 16.6744 46.4103 15.3298 43.0596C15.0384 42.3494 14.8887 41.5911 14.8894 40.8259C14.8891 39.3217 15.506 37.5467 15.5737 35.8868C15.6494 34.029 15.4484 28.6483 16.1041 27.1622L16.7387 27.5202C16.846 27.7854 16.9025 28.0346 17.1343 28.1792C17.8286 28.0656 18.4195 26.1044 18.4223 25.5224C19.0203 25.3542 20.5976 22.9544 21.7446 22.1758ZM28.0577 51.291C27.9714 51.5524 28.0737 51.8363 28.1324 52.1765L28.1101 52.0584C28.0521 51.7695 27.9815 51.5216 28.0577 51.291ZM28.1406 51.1276C28.1135 51.1664 28.0916 51.2053 28.0748 51.245L28.0964 51.1994C28.109 51.1752 28.1239 51.1514 28.1406 51.1276Z" fill="url(#paint10_linear_2505_8339)"/>
<path d="M54.8133 55.6333L54.976 55.9666C54.6674 56.3256 54.3805 57.6543 54.3304 58.1346C54.2438 58.3112 53.8832 59.0476 53.7805 59.1809C52.6639 58.9596 50.2231 59.7591 48.9536 59.8038C49.0581 59.0197 49.9941 57.5564 49.6098 56.92L49.6062 56.819C50.8845 55.9961 52.309 55.9772 53.7745 55.7745C54.1242 55.7261 54.4854 55.7453 54.8133 55.6333Z" fill="#4A141C"/>
<path d="M35.8787 62.4697C36.8694 62.5206 38.7 64.3622 38.728 65.3274C37.6146 64.6148 36.4955 63.6324 35.8787 62.4697Z" fill="#4F2958"/>
<path d="M14.2471 24.9613C14.6346 23.1335 14.3635 20.3862 14.3274 18.46C14.2387 13.7782 14.643 9.30739 16.5791 4.9726C17.0729 3.86723 17.6337 2.69748 18.4581 1.78948C19.1616 1.01472 20.0408 0.427969 21.1206 0.373751C24.6033 0.198898 31.3095 5.63329 33.8267 7.85648C34.5288 8.47656 35.0966 9.23795 35.8102 9.84697C35.9978 10.0073 36.2289 9.96819 36.4607 9.9498L36.5614 9.94135C36.6726 10.2634 36.6824 10.5043 36.7139 10.8377C37.0453 11.6396 37.5482 12.4946 37.8004 13.276C37.6387 13.3471 37.2617 13.4984 37.1358 13.5891C36.7623 13.0069 36.3619 12.4417 35.9354 11.8952C32.6775 7.75667 26.3262 3.22015 21.0164 1.6182C20.7046 1.52416 20.2663 2.0025 20.038 2.21378C19.7329 2.95439 20.0959 3.01451 20.1646 3.57432C20.5721 3.80611 20.846 3.96846 21.3373 3.96694L21.0851 4.05796L21.1665 4.43825C20.6875 4.47896 20.6008 4.5262 20.1976 4.82798C19.3678 5.91183 18.9438 6.55888 18.4967 7.89015C16.933 12.814 16.9249 16.9872 17.7231 22.058C17.8325 22.7532 18.1941 24.8531 18.4224 25.5224C18.4196 26.1045 17.8287 28.0657 17.1343 28.1791C16.9025 28.0344 16.846 27.7853 16.7387 27.5201L16.1043 27.162C15.8778 26.6144 15.8241 26.3285 15.4513 25.8426C15.2399 25.4479 14.6455 25.1404 14.2471 24.9613Z" fill="#14136B"/>
<path d="M49.3099 10.254C50.0933 9.65144 50.8982 8.45362 51.7335 7.78664C54.1427 5.86319 64.076 -0.861717 66.6844 2.81978C69.492 6.78261 68.8695 15.1528 68.4982 19.8439C68.4045 21.1231 67.8813 24.0268 67.5415 24.9386C68.6479 27.4637 69.041 30.3155 69.6071 32.9749C69.8234 33.9926 70.5511 35.4408 70.9811 36.431C72.3985 39.6969 72.2656 42.2222 70.9702 45.4609C70.59 45.1373 70.3978 44.9184 69.9325 44.8332V43.8024C71.8739 40.8819 69.6007 37.0354 68.6623 33.7383C67.9974 31.4009 67.6597 28.9174 66.7689 26.6535C66.0763 24.9266 65.2024 23.2749 64.1612 21.7249C61.5377 17.811 57.705 14.343 53.1752 12.6977C51.7819 12.1917 50.5236 11.9484 49.0798 11.6528C49.1787 11.412 49.2755 10.5415 49.3099 10.254ZM59.1797 9.37166C60.0964 8.19016 62.3485 6.10848 63.9066 6.17641C64.352 5.91655 64.7318 5.73126 65.2413 5.6455L65.4405 5.79729C65.5089 5.96936 65.9206 7.08283 65.9665 7.15736L66.0816 6.88658C66.3281 6.78845 66.219 6.7968 66.4992 6.88754C66.6704 7.12379 66.677 7.1866 66.7461 7.47133C66.4782 7.25951 66.4828 7.19783 66.1675 7.14355C66.1349 7.28115 66.3106 8.05688 66.3492 8.3044C66.4722 9.09555 66.3769 10.4369 66.515 11.1641C66.5196 12.3977 66.5532 13.9095 66.4649 15.1235C66.2941 17.4617 66.0314 19.5375 66.1198 21.9022C66.3867 22.5653 66.6539 23.0186 67.0214 23.6165C66.9429 23.1663 66.7777 22.5211 66.7552 22.1068C66.6774 20.6882 67.4023 19.3001 67.4475 17.8703C67.5327 15.1715 67.5341 12.1265 67.1606 9.46584L67.2055 9.36908C67.3665 8.06303 67.1326 6.00444 66.6686 4.77779C65.854 2.62434 64.2682 2.58184 62.3404 3.34183L62.2626 3.42031C61.605 4.07261 60.6589 4.62778 59.9102 5.20271C57.8071 6.81813 56.5158 9.14403 54.8038 11.0978C55.219 11.4924 55.8485 12.1319 56.3072 12.4349C57.0976 12.3257 58.6165 10.084 59.1797 9.37166Z" fill="#14136B"/>
<path d="M52.5674 8.70737C52.6175 8.6639 52.6677 8.62092 52.7189 8.57852C54.5102 7.07923 60.0346 3.15946 62.3404 3.34211L62.2625 3.42059C61.605 4.07289 60.6588 4.62806 59.9101 5.20299C57.807 6.81841 56.5158 9.14431 54.8037 11.0981L52.5674 8.70737Z" fill="#C7A5CD"/>
<path d="M36.5613 9.94154C37.5348 9.28443 47.9117 9.72408 49.3099 10.2542C49.2755 10.5417 49.1787 11.4122 49.0798 11.653C46.174 11.0089 42.3978 10.8304 39.4176 10.8146C38.5297 10.8074 37.6049 10.8293 36.7138 10.8379C36.6823 10.5044 36.6724 10.2636 36.5613 9.94154Z" fill="#14136B"/>
<path d="M36.7139 10.8382C37.605 10.8297 38.5297 10.8077 39.4177 10.8149C39.1613 12.1357 39.0056 12.5873 37.8003 13.2765C37.5482 12.4951 37.0453 11.6402 36.7139 10.8382Z" fill="#AB8EE5"/>
<path d="M32.6432 28.5184C33.1689 28.4567 34.1792 28.9121 34.7268 29.1136L37.6548 30.1953L40.2108 31.1465C40.8331 31.3781 42.4178 31.649 42.1149 32.7663C41.593 34.6899 39.7278 33.6025 38.4853 33.1089C40.4625 35.2097 40.0716 38.4375 37.8106 39.99C37.0147 40.4764 36.2312 40.604 35.3412 40.4449C34.3719 40.2811 33.4995 39.6705 32.9194 38.7498C31.4494 36.4075 32.5416 32.8282 35.04 32.384C35.6931 32.2679 36.1849 32.3717 36.8279 32.4926L33.2824 31.1079C32.9571 30.9806 31.9832 30.6343 31.7293 30.4876C31.5985 30.4118 31.4926 30.2881 31.428 30.1354C31.1113 29.3805 32.1583 28.7265 32.6432 28.5184Z" fill="#222139"/>
<path d="M38.0767 36.8759C37.3768 36.9913 36.6281 37.1246 36.1413 36.434C35.9646 36.1773 35.8653 35.6812 35.9733 35.3727C36.6649 33.3936 37.8551 33.765 38.7192 35.2466C38.6308 35.9114 38.4155 36.2966 38.0767 36.8759Z" fill="#FEFDFD"/>
<path d="M48.563 39.6209C49.3212 39.5408 50.8923 39.366 51.5617 39.6326C52.3217 40.037 52.5111 40.3146 52.1162 41.142C51.7511 41.6151 51.4685 41.8518 51.0273 42.247C50.6991 42.5727 50.2063 42.9345 49.8325 43.2265C48.3151 42.4091 47.6446 41.9422 46.7461 40.4792C47.3538 40.0772 47.7933 39.8374 48.495 39.6343L48.563 39.6209Z" fill="#CB6E93"/>
<path d="M48.5629 39.6209C49.3211 39.5408 50.8922 39.366 51.5616 39.6326C52.3216 40.037 52.511 40.3146 52.1161 41.142C51.751 41.6151 51.4684 41.8518 51.0272 42.247L50.8382 41.9635C50.0137 41.8865 48.7305 40.4173 48.4949 39.6343L48.5629 39.6209Z" fill="#FC9895"/>
<path d="M48.563 39.6209C49.3212 39.5408 50.8923 39.366 51.5617 39.6326C50.7572 39.8205 49.3773 39.7632 48.563 39.6209Z" fill="#DC5F65"/>
<path d="M50.8381 41.9637C51.1373 41.6803 51.6917 41.0728 52.116 41.1422C51.751 41.6153 51.4683 41.8521 51.0272 42.2472L50.8381 41.9637Z" fill="#DC5F65"/>
<path d="M49.7399 45.2847C52.4532 45.9973 52.8063 46.0687 54.9592 47.8959C51.9945 46.8411 51.1921 45.6427 48.0629 46.4484C46.3726 47.0521 44.7969 47.9843 43.1157 48.5615C45.2984 46.4309 46.9929 46.1601 49.7399 45.2847Z" fill="black"/>
<path d="M74.5199 49.5432C77.406 44.2107 80.3248 38.8781 83.0195 33.4518C84.141 31.1938 85.2723 28.9374 86.4079 26.6862L90.1855 19.1147C91.3214 16.8589 92.7585 13.1729 95.2182 12.1605C95.8081 11.9179 96.5806 12.0854 97.1344 12.3632C101.357 14.4826 98.2184 19.1604 96.6571 22.1104C95.7614 23.7956 94.8889 25.4922 94.0392 27.2006L81.9734 51.0636C80.7954 53.4147 78.0681 58.437 77.5446 60.7064C77.4821 61.688 77.4313 62.8593 76.6703 63.6125C75.9868 64.2887 74.0443 64.4378 73.4394 64.7845C72.7854 65.5995 72.1299 66.3591 71.977 67.414L71.5376 67.8452L71.4117 68.0582C70.7819 67.5486 69.9704 67.3322 69.2188 66.9982L68.9965 66.9718C68.6469 66.6533 68.5648 66.6185 68.1307 66.4155L68.044 66.2904L67.9497 65.8492C68.1068 65.2462 68.1878 64.9312 68.4424 64.3498C68.7514 63.6733 69.0842 63.0222 69.5534 62.4374C69.6169 62.2007 69.2087 61.5881 69.0558 61.0469C68.9046 60.1007 68.892 59.4626 68.9004 58.5164C69.4072 57.8965 70.0651 57.5062 70.731 57.0626C71.3931 56.2346 72.0507 54.8832 72.5108 53.9284C72.711 53.5147 72.8871 53.1601 73.0431 52.7252C73.2335 52.3424 73.4152 51.9253 73.593 51.5343L73.6025 51.459L73.9777 50.7093L74.0903 50.4011C74.2488 50.1338 74.3856 49.8253 74.5199 49.5432ZM71.4447 59.308C71.4671 59.3767 71.5881 59.7691 71.6144 59.8055C71.9507 59.3911 72.1594 58.9805 72.3964 58.5102C73.7568 55.813 75.2391 53.1742 76.6201 50.4887C80.7379 42.6724 84.7733 34.8152 88.7256 26.9174C90.6158 23.1527 92.5049 19.2961 94.4302 15.5456C94.6711 15.0768 96.1202 13.7795 96.7546 14.3679C98.3099 16.2302 95.0948 20.6126 94.2542 22.2293C92.4541 25.6946 90.6908 29.1779 88.9644 32.6791L82.4879 45.6486C80.1754 50.3788 77.8851 55.2622 75.385 59.9021C75.1928 60.2584 74.3866 60.8693 74.266 61.1654C74.3182 61.3537 74.3438 61.5351 74.4939 61.6523C75.4485 61.2744 75.81 60.6061 76.3364 59.7821C76.6959 58.6531 77.5365 57.0729 78.08 55.9769L80.6401 50.7578C84.6215 42.5879 88.7217 34.4747 92.9401 26.4199C94.2742 23.8437 97.3339 18.5608 97.7821 16.093C97.902 15.4314 97.8133 14.6709 97.396 14.1178C97.1575 13.8014 96.8191 13.5897 96.4141 13.558C95.5668 13.4916 94.8959 14.0737 94.412 14.684C93.4027 15.9561 92.7897 17.5595 92.0708 18.9997C91.4118 20.32 90.7185 21.6261 90.0463 22.9403C88.1841 26.5807 73.1308 56.4754 72.2197 57.1602C72.1909 57.1819 72.1604 57.2018 72.1306 57.2227C71.9065 57.8972 71.6428 58.6321 71.4447 59.308Z" fill="#70D0FE"/>
<path d="M71.6145 59.8052C71.9508 59.3908 72.1595 58.9802 72.3965 58.5098C73.7569 55.8127 75.2392 53.1739 76.6202 50.4884C80.738 42.6721 84.7734 34.8149 88.7257 26.9171C90.6159 23.1524 92.505 19.2958 94.4303 15.5453C94.6712 15.0765 96.1203 13.7792 96.7547 14.3675C98.31 16.2299 95.0949 20.6123 94.2543 22.229C92.4542 25.6943 90.6909 29.1776 88.9645 32.6788L82.4879 45.6483C80.1755 50.3785 77.8852 55.2619 75.3851 59.9017C75.1929 60.258 74.3867 60.8689 74.2661 61.1651C73.3132 61.1631 73.012 60.5762 72.2549 60.8762C72.043 60.5487 71.8172 60.1453 71.6145 59.8052Z" fill="#86FAF7"/>
<path d="M70.7796 57.0503L71.0437 57.162L72.1792 57.2104C71.9551 57.8849 71.6914 58.6198 71.4932 59.2957C71.5157 59.3644 71.6367 59.7568 71.663 59.7932C71.8657 60.1333 72.0915 60.5367 72.3033 60.8642C73.0605 60.5642 73.3617 61.1511 74.3145 61.1531C74.3668 61.3414 74.3924 61.5228 74.5425 61.64C75.4971 61.262 75.8586 60.5938 76.385 59.7698C76.7122 60.0413 77.2484 60.5835 77.5931 60.6941C77.5307 61.6757 77.4799 62.847 76.7189 63.6002C76.0354 64.2764 74.0929 64.4255 73.488 64.7722C72.8339 65.5871 72.1785 66.3468 72.0256 67.4016L71.5862 67.8328L71.4603 68.0459C70.8304 67.5363 70.0189 67.3199 69.2674 66.9859L69.0451 66.9594C68.6955 66.6409 68.6134 66.6062 68.1792 66.4032L68.0926 66.2781L67.9983 65.8369C68.1554 65.2339 68.2364 64.9189 68.491 64.3375C68.8 63.661 69.1328 63.0099 69.602 62.4251C69.6655 62.1884 69.2572 61.5757 69.1043 61.0346C68.9532 60.0883 68.9406 59.4503 68.949 58.504C69.4557 57.8842 70.1136 57.4939 70.7796 57.0503Z" fill="#4C5BAC"/>
<path d="M72 60.5C73.5 59.9998 73.2863 61.1623 74.2391 61.1643C74.2913 61.3526 74.3498 61.3832 74.4999 61.5003C74.4999 61.5003 74.6379 61.862 74.5 62C74.4651 62.0349 73.8838 62.0724 73.5 62C72.8424 61.876 72.6701 61.6397 72.0042 61.1641L72 60.5Z" fill="#05CBFE"/>
<path d="M69.5534 62.437C69.9188 62.6287 70.0924 62.7988 70.401 63.0668C71.1908 63.5729 72.5223 64.256 73.1462 64.7133L73.4394 64.7841C72.7854 65.5991 72.1299 66.3587 71.977 67.4136L71.5376 67.8448L71.4117 68.0578C70.7819 67.5483 69.9704 67.3318 69.2188 66.9978L68.9965 66.9714C68.6469 66.6529 68.5648 66.6182 68.1307 66.4151L68.044 66.29L67.9497 65.8489C68.1068 65.2459 68.1878 64.9308 68.4424 64.3494C68.7514 63.6729 69.0842 63.0218 69.5534 62.437Z" fill="#6B0800"/>
<path d="M69.5534 62.437C69.9188 62.6287 70.0924 62.7988 70.401 63.0668C70.2067 63.496 69.2858 66.5512 69.2188 66.9978L68.9965 66.9714C68.6469 66.6529 68.5648 66.6182 68.1307 66.4151L68.044 66.29L67.9497 65.8489C68.1068 65.2459 68.1878 64.9308 68.4424 64.3494C68.7514 63.6729 69.0842 63.0218 69.5534 62.437Z" fill="#470101"/>
<path d="M73.1462 64.7134L73.4394 64.7842C72.7854 65.5992 72.1299 66.3588 71.977 67.4136L71.5376 67.8449C71.2785 67.7194 71.3609 67.815 71.2708 67.5586C71.3409 66.7217 72.4897 65.2769 73.1462 64.7134Z" fill="black"/>
<path d="M72.1305 57.2227C72.1603 57.2017 72.1908 57.1818 72.2196 57.1602C73.1307 56.4754 88.184 26.5807 90.0462 22.9402C90.7184 21.6261 91.4117 20.32 92.0707 18.9996C92.7896 17.5595 93.4026 15.9561 94.4119 14.6839C94.8958 14.0737 95.5667 13.4916 96.414 13.5579C96.819 13.5897 97.1574 13.8014 97.3959 14.1178C97.8132 14.6708 97.9019 15.4313 97.782 16.0929C97.3338 18.5607 94.2741 23.8436 92.94 26.4199C88.7216 34.4747 84.6214 42.5878 80.64 50.7577L78.08 55.9769C77.5364 57.0729 76.6958 58.6531 76.3363 59.7821C75.81 60.606 75.4484 61.2743 74.4938 61.6523C74.3437 61.5351 74.3181 61.3537 74.2659 61.1654C74.3865 60.8692 75.1927 60.2583 75.3849 59.902C77.885 55.2622 80.1753 50.3787 82.4878 45.6485L88.9643 32.6791C90.6907 29.1779 92.454 25.6946 94.2541 22.2293C95.0947 20.6126 98.3098 16.2301 96.7545 14.3678C96.1201 13.7795 94.671 15.0767 94.4301 15.5455C92.5048 19.2961 90.6157 23.1527 88.7255 26.9174C84.7732 34.8152 80.7378 42.6724 76.62 50.4887C75.239 53.1742 73.7567 55.813 72.3963 58.5101C72.1593 58.9805 71.9506 59.3911 71.6143 59.8055C71.588 59.7691 71.467 59.3767 71.4446 59.308C71.6427 58.6321 71.9064 57.8972 72.1305 57.2227Z" fill="#05CBFE" fill-opacity="0.988235"/>
<path d="M70.9951 57.1738L72.1306 57.2223C71.9065 57.8967 71.6428 58.6317 71.4446 59.3075C71.4671 59.3762 71.5881 59.7686 71.6144 59.805C71.8171 60.1452 72.0429 60.5486 72.2547 60.876L72.2589 60.9547L71.8963 61.0866C71.5358 60.8389 71.2202 60.4163 71.0364 60.028C70.623 59.1113 70.8334 58.1373 70.9951 57.1738Z" fill="#16379A"/>
<path d="M72.2591 60.9551C72.9251 61.4306 73.4097 61.767 74.2664 61.735C74.3948 61.7728 74.3534 61.7488 74.4449 61.8433L74.3461 61.9913C73.5623 62.2628 72.452 61.5797 71.8965 61.087L72.2591 60.9551Z" fill="#14136B"/>
<path d="M71.977 67.4136C72.2361 68.1148 72.6994 68.568 72.9943 69.1906C73.6326 70.5385 73.358 72.5338 72.7737 73.8607C71.9794 75.58 70.9467 76.6259 69.168 77.3296C68.1632 77.7271 67.1515 77.2849 66.7202 77.4502C65.1126 76.195 64.7062 76.617 63.16 74.5692C63.1628 74.2407 63.2059 74.362 63.0053 74.1105C63.0747 73.6185 62.7893 73.4267 62.4744 73.0608C62.6034 72.9134 62.8429 72.5142 62.919 72.3245C63.3574 71.2339 65.5362 69.5184 65.3363 68.3464L65.8515 67.9231C66.0023 68.0585 66.1503 68.1963 66.3113 68.3196C66.7293 68.5972 67.8031 69.9637 68.1541 70.1066C68.3354 70.4265 68.3659 70.355 68.3088 70.6282C67.942 70.7722 67.6828 70.6529 67.3419 70.6949C66.5753 70.6395 65.5348 70.5433 64.9071 71.045C64.7847 71.3051 64.7742 71.3958 64.9653 71.6624L65.1357 71.7981C65.5618 72.4884 66.3526 73.0127 66.5992 73.5896C66.3958 73.6281 65.3528 73.5563 65.0772 73.5412C64.7942 73.5343 64.6672 73.4841 64.4519 73.6085L64.4708 73.7611C64.7538 74.3245 64.9797 74.4702 65.4826 74.8616C66.5006 75.7367 67.8476 76.1401 69.1585 75.6831C71.015 74.6623 71.3899 74.0624 72.0867 72.1321L72.1446 71.8352C72.3785 70.9776 72.3627 70.2561 72.139 69.4033L72.1379 69.2971C71.8942 68.8518 71.7592 68.5876 71.4429 68.1942L71.4117 68.0578L71.5376 67.8448L71.977 67.4136Z" fill="#A844BA"/>
<path d="M29.6851 93.8076C30.9191 96.0145 31.9196 97.8118 28.3815 98.4866C25.6083 99.0154 17.7339 99.5768 15.978 97.2593L16.0689 95.8599C16.6275 95.0133 17.4744 94.3577 17.8114 93.8207C18.0576 94.0612 18.1695 94.1811 18.4683 94.3711C19.0003 94.2474 19.2864 94.177 19.8261 94.1395C19.5123 94.9119 19.4106 95.137 19.467 95.9513L19.6459 96.6275C19.7581 96.8989 19.9576 97.6582 20.0092 97.7424C20.3125 97.3418 20.3792 97.0202 20.5289 96.5484C20.7449 96.075 20.9775 95.5884 21.298 95.1761L21.4141 95.1974C21.5312 95.8059 21.3383 96.7051 21.3674 97.3923L21.285 97.5448L21.352 97.7122C21.6094 97.7726 21.6841 97.7661 21.9524 97.7675C22.8782 97.8809 24.2241 97.8431 25.1794 97.8232C25.3968 97.8527 25.6223 97.9128 25.812 97.8249L25.7545 97.6634L25.8057 97.1119L25.8892 96.5244C25.9436 96.2763 25.9464 96.0946 26.1364 95.9413C26.7691 96.0544 27.0366 97.4239 27.6447 97.6029C28.1227 97.5304 28.6554 97.2823 29.0447 97.0054C29.954 96.1244 29.4764 95.3318 28.8059 94.5281C29.0815 94.2581 29.3284 93.9368 29.6851 93.8076Z" fill="#6248C7"/>
<path d="M65.5379 65.522C66.3406 65.8522 67.1759 66.182 68.0439 66.2902L68.1305 66.4153C67.473 66.8431 66.4139 67.4639 65.8514 67.9233L65.3362 68.3466C64.8789 68.5466 63.4562 69.3303 63.1139 69.2187C63.0083 69.028 62.9596 68.2391 62.866 67.8419L63.1153 67.3286C63.6477 66.763 63.9503 66.504 64.5507 66.0453C64.9554 65.7814 65.0897 65.6924 65.5379 65.522Z" fill="#FCFBFC" fill-opacity="0.984314"/>
<path d="M68.1307 66.415C68.5648 66.6181 68.6469 66.6528 68.9965 66.9713C67.9971 67.2458 67.04 67.5121 66.3113 68.3196C66.1504 68.1962 66.0024 68.0584 65.8516 67.9231C66.4141 67.4637 67.4731 66.8428 68.1307 66.415Z" fill="#7B58E1"/>
<path d="M65.7783 65.0605C66.4008 65.2591 66.9815 65.4818 67.5914 65.7127L67.9498 65.8491L68.0441 66.2903C67.1762 66.182 66.3408 65.8522 65.5381 65.522C65.6373 65.3773 65.7036 65.2193 65.7783 65.0605Z" fill="#7B58E1"/>
<path d="M62.805 44.0906C60.1089 44.1953 57.2564 44.6458 56.1672 44.8579L56.2698 45.3634C57.4277 45.1963 60.2663 44.7952 62.3575 44.5281C64.4486 44.261 67.6532 44.4893 68.9942 44.6368C68.0545 44.4111 65.5012 43.9859 62.805 44.0906Z" fill="black"/>
<path d="M35.8051 44.7781C38.5012 44.8828 41.3537 45.3333 42.4429 45.5454L42.3403 46.0509C41.1824 45.8838 38.3438 45.4827 36.2527 45.2156C34.1616 44.9485 30.9569 45.1768 29.6159 45.3243C30.5556 45.0986 33.109 44.6734 35.8051 44.7781Z" fill="black"/>
<path d="M62.3771 41.59C59.7233 42.0683 56.965 42.9106 55.9175 43.272L56.0922 43.7581C57.2142 43.4317 59.9661 42.6403 61.9974 42.0852C64.0286 41.5302 67.234 41.3108 68.5827 41.2705C67.6199 41.1777 65.0308 41.1116 62.3771 41.59Z" fill="black"/>
<path d="M36.2328 42.277C38.8865 42.7553 41.6449 43.5976 42.6924 43.959L42.5177 44.4451C41.3957 44.1188 38.6438 43.3273 36.6125 42.7722C34.5812 42.2172 31.3759 41.9978 30.0271 41.9575C30.99 41.8647 33.5791 41.7986 36.2328 42.277Z" fill="black"/>
<path d="M30.3173 96.7151C30.3173 98.2332 27.219 98.6049 23.8296 98.6049C20.4402 98.6049 16.4651 97.8896 16.4651 96.3715C16.4651 94.8534 20.4402 93.1074 23.8296 93.1074C27.219 93.1074 30.3173 95.197 30.3173 96.7151Z" fill="#AB8EE5"/>
<path d="M30.3174 96.8566C30.3174 97.8559 28.278 98.1005 26.047 98.1005C23.816 98.1005 21.1995 97.6297 21.1995 96.6305C21.1995 95.6312 23.816 94.4819 26.047 94.4819C28.278 94.4819 30.3174 95.8574 30.3174 96.8566Z" fill="white"/>
<path d="M60.3011 95.5127C61.927 98.4332 57.3781 98.6051 53.9887 98.6051C50.5993 98.6051 45.7476 98.0615 45.7476 96.5435C46.0982 93.7948 49.2544 94.9973 53.112 93.7948C57.4956 93.2794 58.197 91.7332 60.3011 95.5127Z" fill="#AB8EE5"/>
<path d="M57.6288 95.752C58.0455 97.7936 55.313 98.202 52.6276 98.202C49.9423 98.202 46.0984 97.7714 46.0984 96.5687C46.3762 94.3909 48.8768 95.3437 51.933 94.3909C55.4061 93.9826 55.9617 92.7576 57.6288 95.752Z" fill="white"/>
<path d="M20.3174 0.682129C24.6217 2.82871 30.8231 5.13147 33.8241 9.27187C34.5566 10.2825 36.8425 12.4886 37.5063 13.5667C34.122 15.0638 28.4844 16.2783 25.7583 19.0642C24.743 20.1017 21.0729 22.597 20.1473 23.7026C18.9233 25.5005 18.0431 26.6232 17.5171 27.9975C17.4428 27.719 17.7323 26.7003 17.6924 26.4514C17.6494 26.1828 17.5421 26.0304 17.517 25.936C15.5019 18.4931 16.6889 11.3975 18.9718 4.0802C19.3435 2.88897 19.818 1.80264 20.3174 0.682129Z" fill="#E8DBDB"/>
<path d="M21.2527 1.71289C23.6891 3.68598 31.0187 8.2411 31.0187 8.2411C31.0187 8.2411 36.4908 12.3932 36.6298 14.0821C35.8547 14.8074 29.781 15.9078 26.2844 18.5488C25.422 19.2002 24.5596 19.9113 24.1803 20.3417C22.8015 21.9066 21.2835 23.2482 20.0339 24.9501L19.9744 24.8929C19.8981 24.8686 19.8802 24.8444 19.8101 24.795C19.441 23.8504 19.119 21.4122 19.0022 20.3417C18.441 15.3638 18.7993 10.3033 20.0528 5.50026C20.4169 4.13502 20.8465 3.03433 21.2527 1.71289Z" fill="#9C90D3"/>
<path d="M65.5615 2.74359C60.8678 1.71274 53.6379 7.55384 53.6379 7.55384C53.6379 7.55384 51.0554 9.96612 50.4819 10.8181C53.1729 12.1386 56.531 13.1331 59.9505 15.6283C62.1164 17.2088 64.4575 19.6629 65.1703 20.5879C66.1017 22.083 66.7772 23.0203 67.1575 24.1502C67.2269 23.927 67.0264 23.0927 67.067 22.8924C67.1108 22.6763 67.2027 22.5563 67.2261 22.4806C68.1915 16.4872 68.1915 13.0513 67.2263 6.695C66.965 5.71839 66.7889 3.77436 65.5615 2.74359Z" fill="#E8DBDB"/>
<path d="M64.86 3.16667C65.7073 2.81963 65.9518 3.16722 65.9518 3.16722C66.789 3.94494 67.2273 5.98981 67.4902 7.89574C68.3672 14.2543 67.8411 17.6902 67.1398 24.2184C65.4683 22.1664 63.1952 18.2046 61.067 16.5425C58.5153 14.6464 57.0594 13.7581 54.164 12.3625C57.4398 8.88474 64.0128 3.51371 64.86 3.16667Z" fill="#9C90D3"/>
<defs>
<linearGradient id="paint0_linear_2505_8339" x1="18.6554" y1="103.636" x2="8.31818" y2="113.688" gradientUnits="userSpaceOnUse">
<stop offset="0.486963" stop-color="#130E65"/>
<stop offset="1" stop-color="#2F47F2"/>
</linearGradient>
<linearGradient id="paint1_linear_2505_8339" x1="87.8343" y1="104.21" x2="85.0651" y2="105.804" gradientUnits="userSpaceOnUse">
<stop offset="0.196138" stop-color="#130E65"/>
<stop offset="1" stop-color="#2F47F2"/>
</linearGradient>
<linearGradient id="paint2_linear_2505_8339" x1="50.9488" y1="135.176" x2="44.7752" y2="145.523" gradientUnits="userSpaceOnUse">
<stop offset="0.486963" stop-color="#130E65"/>
<stop offset="1" stop-color="#2F47F2"/>
</linearGradient>
<linearGradient id="paint3_linear_2505_8339" x1="21.0646" y1="124.319" x2="23.7365" y2="125.976" gradientUnits="userSpaceOnUse">
<stop offset="0.196138" stop-color="#130E65"/>
<stop offset="1" stop-color="#2F47F2"/>
</linearGradient>
<linearGradient id="paint4_linear_2505_8339" x1="70.7044" y1="117.846" x2="79.3692" y2="123.739" gradientUnits="userSpaceOnUse">
<stop offset="0.196138" stop-color="#130E65"/>
<stop offset="1" stop-color="#2F47F2"/>
</linearGradient>
<linearGradient id="paint5_linear_2505_8339" x1="0.693115" y1="97.3977" x2="94.2727" y2="97.3977" gradientUnits="userSpaceOnUse">
<stop stop-color="#4961E3"/>
<stop offset="1" stop-color="#7A53D9"/>
</linearGradient>
<linearGradient id="paint6_linear_2505_8339" x1="1.40747" y1="96.7045" x2="93.5583" y2="96.7045" gradientUnits="userSpaceOnUse">
<stop stop-color="#5432A4"/>
<stop offset="1" stop-color="#6543B7"/>
</linearGradient>
<linearGradient id="paint7_linear_2505_8339" x1="21.6022" y1="45.8103" x2="64.2819" y2="22.115" gradientUnits="userSpaceOnUse">
<stop stop-color="#E6D7D7"/>
<stop offset="1" stop-color="white"/>
</linearGradient>
<linearGradient id="paint8_linear_2505_8339" x1="57.4822" y1="63.0742" x2="60.86" y2="60.0918" gradientUnits="userSpaceOnUse">
<stop stop-color="#281754"/>
<stop offset="1" stop-color="#502754"/>
</linearGradient>
<linearGradient id="paint9_linear_2505_8339" x1="61.2019" y1="52.6082" x2="58.0115" y2="48.3776" gradientUnits="userSpaceOnUse">
<stop stop-color="#AC89C3"/>
<stop offset="1" stop-color="#CE6A8D"/>
</linearGradient>
<linearGradient id="paint10_linear_2505_8339" x1="33.8242" y1="52.3922" x2="66.4159" y2="48.0993" gradientUnits="userSpaceOnUse">
<stop stop-color="#AC89C3"/>
<stop offset="1" stop-color="#CE6A8D"/>
</linearGradient>
</defs>
</svg>
