<svg width="109" height="148" viewBox="0 0 109 148" fill="none" xmlns="http://www.w3.org/2000/svg">
<g clip-path="url(#clip0_2505_8462)">
<path d="M15.0438 100.901C14.7707 97.2721 15.8404 96.1324 16.4093 96.0161L106.5 95.3184C107.886 96.0115 108.58 99.0166 108.58 99.8539C108.58 100.901 108.58 101.947 107.214 104.738C106.122 106.971 99.4763 114.507 96.2902 117.996C96.2902 118.229 96.1536 118.973 95.6074 120.089C95.0612 121.206 88.3248 126.369 85.0249 128.811C84.2284 129.974 82.1574 132.719 80.2457 134.394C77.8561 136.487 70.6873 139.976 70.346 140.674C70.0046 141.371 63.8599 148 62.8358 148C62.0165 148 57.4877 144.046 55.3256 142.069C54.4153 141.604 52.3898 140.534 51.5706 139.976C50.7513 139.418 46.2224 134.161 44.0604 131.603H42.0122C41.3294 131.603 35.5261 128.463 34.8434 127.765C34.2972 127.207 31.2021 122.183 29.7228 119.74C27.6746 118.345 23.2367 115.205 21.8713 113.809C20.1644 112.065 15.3852 105.436 15.0438 100.901Z" fill="#110746"/>
<path d="M15.2861 101.903C14.4543 99.9625 15.6327 97.6288 16.3259 96.7046L30.5361 103.636C30.9982 106.178 31.9918 111.539 32.2691 112.648C32.5463 113.757 31.4603 117.962 30.8827 119.926C27.7634 117.5 21.3168 112.44 20.485 111.608C19.4452 110.568 16.3259 104.33 15.2861 101.903Z" fill="url(#paint0_linear_2505_8462)"/>
<path d="M107.285 100.119C107.831 98.8441 107.057 97.3116 106.602 96.7046L97.2696 101.257C96.9661 102.926 96.3136 106.446 96.1315 107.175C95.9495 107.903 96.6626 110.665 97.042 111.955C99.0905 110.361 103.324 107.038 103.87 106.492C104.553 105.809 106.602 101.712 107.285 100.119Z" fill="url(#paint1_linear_2505_8462)"/>
<path d="M97.5799 102.198C98.1262 100.924 97.3523 99.3911 96.8971 98.7842L79.4659 105.369C79.1624 107.039 82.1897 109.156 82.0076 109.884C81.8255 110.612 86.958 112.744 87.3374 114.034C89.3859 112.441 93.6195 109.118 94.1658 108.571C94.8486 107.889 96.8971 103.792 97.5799 102.198Z" fill="#29186E"/>
<path d="M43.6083 104.971C43.062 103.696 43.8359 102.164 44.2911 101.557L61.7223 108.142C62.0258 109.811 58.9985 111.928 59.1806 112.656C59.3627 113.385 54.2302 115.517 53.8508 116.807C51.8023 115.213 47.5687 111.89 47.0225 111.344C46.3396 110.661 44.2911 106.564 43.6083 104.971Z" fill="#29186E"/>
<path d="M46.8863 123.392L44.1135 130.671L48.2726 131.017L49.3124 130.324L54.5113 121.659L50.0056 123.392H46.8863Z" fill="#191382"/>
<path d="M33.7158 112.994L30.9431 120.273L35.1022 120.619L36.142 119.926L41.3408 111.261L36.8352 112.994H33.7158Z" fill="#191382"/>
<path d="M88.824 114.381L91.5967 121.659L87.4376 122.006L86.3978 121.313L81.199 112.648L85.7046 114.381H88.824Z" fill="#191382"/>
<path d="M64.7679 132.75L57.417 141.326C59.0505 142.858 62.5014 145.92 63.2365 145.92C63.9716 145.92 68.035 141.224 69.9749 138.876L64.7679 132.75Z" fill="#110F70"/>
<path d="M52.7784 123.045L49.6591 129.977L48.2727 131.364L55.2045 140.722L63.1761 129.977L62.8295 126.858L55.2045 120.966L52.7784 123.045Z" fill="#110F70"/>
<path d="M39.608 112.648L36.4887 119.58L35.1023 120.966L42.0341 125.125L47.9262 118.54L49.6591 116.46L42.0341 110.568L39.608 112.648Z" fill="#110F70"/>
<path d="M82.9318 114.034L86.0511 120.966L87.4375 122.352L80.5057 131.71L72.5341 120.966L72.8807 117.847L80.5057 111.955L82.9318 114.034Z" fill="#1C1260"/>
<path d="M44.1135 131.364L45.4999 127.205L46.1931 129.977L48.2726 130.67C49.7745 132.981 53.1942 138.088 54.8578 140.028C56.5215 141.969 61.3275 144.534 63.5226 145.574C64.3313 144.765 66.1567 142.87 66.9885 141.761C67.8203 140.652 68.7215 138.758 69.0681 137.949L70.801 139.335C68.4904 141.992 63.6613 147.307 62.8294 147.307C61.9976 147.307 57.3995 143.379 55.2044 141.415C54.5113 141.068 52.709 140.098 51.0453 138.989C49.3817 137.88 45.7309 133.443 44.1135 131.364Z" fill="url(#paint2_linear_2505_8462)"/>
<path d="M71.1478 138.296L66.6421 132.75L64.9092 122.352L73.9205 108.835L88.1308 114.034L79.1194 112.995L72.5342 121.313L80.8524 131.71C80.8524 132.057 80.2978 133.166 78.0796 134.83C75.8615 136.493 72.5342 137.834 71.1478 138.296Z" fill="#110A52"/>
<path d="M30.9431 105.716L26.0908 114.381L31.6363 120.273L33.0226 115.074L30.9431 105.716Z" fill="#180B69"/>
<path d="M31.063 120.506L31.9816 118.031L36.9101 126.463L42.3631 124.458L43.3638 130.654C41.7198 130.157 37.9993 128.838 36.2692 127.535C34.539 126.233 32.0775 122.306 31.063 120.506Z" fill="url(#paint3_linear_2505_8462)"/>
<path d="M108.233 102.596C109.342 99.5465 108.695 96.9355 108.233 96.0112L106.846 98.4374C107.078 99.5927 107.54 102.111 107.54 102.943C107.54 103.983 103.727 108.489 102.687 109.528C101.856 110.36 98.8749 114.496 97.4885 116.46L96.6812 116.807L96.4487 113.687C96.1021 115.074 95.2703 118.054 94.7158 118.886C94.1612 119.718 90.5567 122.699 88.8237 124.085L87.0908 127.204L84.318 127.898L83.6249 126.858L69.7612 138.989L70.4544 140.375L75.9999 137.602C78.218 136.493 82.9317 131.132 85.0112 128.591L87.0908 127.898C89.979 125.356 95.8249 120.203 96.1021 119.926C96.3794 119.649 96.4487 118.193 96.4487 117.5C97.0264 117.384 98.3203 117.084 98.8749 116.807C99.568 116.46 106.846 106.409 108.233 102.596Z" fill="url(#paint4_linear_2505_8462)"/>
<path d="M60.2448 104.278C59.6985 103.003 60.4724 101.471 60.9276 100.864L80.5058 107.449C80.8092 109.118 75.635 111.235 75.8171 111.964C75.9992 112.692 70.8667 114.824 70.4873 116.114C68.4388 114.52 64.2052 111.197 63.659 110.651C62.9761 109.968 60.9276 105.871 60.2448 104.278Z" fill="#29186E"/>
<ellipse cx="62.4829" cy="97.3977" rx="46.7898" ry="10.3977" fill="url(#paint5_linear_2505_8462)"/>
<ellipse cx="62.4829" cy="96.7045" rx="46.0754" ry="9.70455" fill="url(#paint6_linear_2505_8462)"/>
<ellipse cx="65.5" cy="96.5" rx="22.5" ry="4.5" fill="#241152"/>
<g clip-path="url(#clip1_2505_8462)">
<path d="M82.3694 -0.00292969C83.0125 0.035164 83.3872 0.0972638 83.8319 0.629371C85.4114 2.51901 86.93 8.62881 86.9882 11.0013C87.5555 13.1673 87.4311 20.5885 86.8005 22.7815C86.5008 24.7011 86.7109 25.7216 87.0361 27.6117C87.2875 29.0741 87.3619 30.664 87.7707 32.0661C88.039 32.9854 88.5402 33.9853 88.8347 34.9118C90.055 38.7508 89.8773 40.5783 87.6151 43.848C86.2563 45.8174 84.5762 47.5451 82.645 48.9579C81.9186 49.4842 81.1736 49.9843 80.4113 50.4576C83.7378 52.6409 85.2698 54.2173 87.3371 57.6637C87.5434 58.0078 88.4413 59.4296 88.5457 59.7206C88.5898 60.2469 88.4035 61.3253 88.2288 61.8261C85.9008 57.9017 84.2414 55.3715 80.226 53.2274C80.493 52.8338 81.1085 52.0068 81.1109 51.5694C80.8553 51.0954 80.172 50.9487 79.6705 50.7631C79.8241 50.4941 79.8637 50.5344 79.8158 50.3088C79.5754 50.2785 74.4197 52.5093 73.487 52.8314C67.4712 54.8831 61.1096 55.727 54.7666 55.3143C52.3925 55.1652 50.3965 54.9985 48.2304 53.9879C47.8677 53.8116 47.6318 53.8192 47.2302 53.7899C47.1379 53.5099 46.3491 53.4159 46.0216 53.3173C44.6949 52.9178 43.1232 52.5999 41.9098 51.9238L41.8685 51.9104C37.9534 50.6036 33.8591 47.1638 31.9834 43.4502C30.7968 41.2017 30.8006 37.4347 31.7389 35.1718C33.0584 31.9893 33.1441 29.6693 33.4851 26.304C33.5702 25.466 34.1798 23.5913 33.9725 22.8306C32.9182 20.7222 33.099 13.0286 33.2867 10.5365C33.3945 8.74582 34.3872 2.885 35.3385 1.61688C35.5871 1.09046 35.9033 0.451301 36.4858 0.232486C37.5077 -0.151448 39.6872 0.926785 40.6106 1.40475C44.3325 3.33117 48.3051 6.22054 51.1584 9.29077C52.7217 9.21248 54.3419 8.92189 55.8884 8.77991C59.5872 8.44034 63.2561 8.47954 66.9232 9.09761C67.3496 9.1695 68.0536 9.29859 68.4683 9.27779C68.5878 8.91607 69.329 7.93748 69.6087 7.62966C71.9074 5.10001 74.8537 2.69373 78.0193 1.35797C79.1383 0.74627 81.0658 0.109905 82.3694 -0.00292969Z" fill="#4C2267"/>
<path d="M82.3694 -0.00292969C83.0125 0.035164 83.3872 0.0972638 83.8319 0.629371C85.4114 2.51901 86.93 8.62881 86.9882 11.0013C87.5555 13.1673 87.4311 20.5885 86.8005 22.7815C86.5008 24.7011 86.7109 25.7216 87.0361 27.6117C87.2875 29.0741 87.3619 30.664 87.7707 32.0661C88.0391 32.9854 88.5402 33.9853 88.8347 34.9118C90.055 38.7508 89.8773 40.5783 87.6151 43.848C86.2563 45.8174 84.5762 47.5451 82.645 48.9579C81.9186 49.4842 81.1736 49.9843 80.4114 50.4576C83.7378 52.6409 85.2699 54.2173 87.3371 57.6637C87.5434 58.0078 88.4413 59.4296 88.5457 59.7206C88.5898 60.2469 88.4035 61.3253 88.2288 61.8261C85.9009 57.9017 84.2414 55.3715 80.2261 53.2274C80.493 52.8338 81.1085 52.0068 81.1109 51.5694C80.8553 51.0954 80.172 50.9487 79.6705 50.7631C79.8241 50.4941 79.8637 50.5344 79.8158 50.3088C79.5754 50.2785 74.4197 52.5093 73.487 52.8314C67.4712 54.8831 61.1096 55.727 54.7666 55.3143C52.3925 55.1652 50.3965 54.9985 48.2304 53.9879C47.8677 53.8116 47.6318 53.8192 47.2302 53.7899C47.1379 53.5099 46.3491 53.4159 46.0216 53.3173C44.6949 52.9178 43.1232 52.5999 41.9098 51.9238L41.8685 51.9104C37.9534 50.6036 33.8592 47.1638 31.9834 43.4502C32.2383 43.6186 32.3213 43.8604 32.5155 44.1118L32.6147 44.116C32.603 43.3572 32.2775 43.0499 32.3678 42.4021L32.3795 42.3225L32.7377 42.7648C33.7486 43.6596 34.7609 44.3343 35.8765 45.0845C36.3056 45.3655 36.5405 45.5198 37.0024 45.7317C38.16 46.3117 39.3986 47.026 40.5738 47.5723C51.8063 52.7924 72.5674 52.5872 79.0064 40.2535C82.9023 32.7905 78.1443 20.2316 72.6762 14.6677C72.2091 14.1924 70.1312 13.2024 69.3893 12.8294C70.3334 10.7701 71.8823 9.35366 73.4846 7.79926C75.5336 5.81156 77.1899 4.53777 80.1427 4.39783C81.6585 6.59166 81.3747 9.51899 81.6351 12.0067C81.9241 14.7666 81.5487 17.3677 81.6499 20.0547C82.0681 20.5531 82.5175 21.0295 82.9591 21.5077C83.9944 16.2463 84.1236 11.7872 83.3686 6.47958C83.1595 5.01008 82.1972 1.14371 82.3694 -0.00292969Z" fill="#2F1340"/>
<path d="M31.9834 43.4504C32.2383 43.6188 32.3213 43.8606 32.5155 44.1121L32.6147 44.1162C32.603 43.3574 32.2775 43.0502 32.3678 42.4023L32.3795 42.3228L32.7377 42.765C32.5496 44.1041 33.8468 45.0207 34.1288 46.3257C34.1554 46.4487 34.6944 47.0528 34.8731 47.1L35.0901 47.0001C35.5024 47.4389 35.2858 47.5488 35.407 47.7003C35.904 48.3213 36.8602 48.8893 37.4171 49.4007C38.0398 49.9732 41.7455 51.6526 41.9098 51.924L41.8685 51.9106C37.9534 50.6038 33.8592 47.164 31.9834 43.4504Z" fill="#4C2267"/>
<path d="M79.0299 4.81152C79.27 4.83395 79.479 4.88554 79.6554 5.06141C81.4705 6.86831 80.8058 16.4415 80.6931 19.1461C79.3271 17.9927 77.1087 16.3797 75.6555 15.3593C74.1976 14.3838 71.7893 13.2031 70.155 12.3533C71.5207 9.90313 76.2855 5.34366 79.0299 4.81152Z" fill="#410218"/>
<path d="M35.3385 1.6169L35.6888 1.37549C35.8775 1.51075 36.049 1.85373 36.1062 2.02883C35.5221 2.52254 35.033 4.40308 34.9445 5.16182L35.1511 4.85342C35.2289 4.95093 35.2014 5.32122 35.2245 5.50787C35.1391 6.18467 35.0392 6.85954 34.9248 7.53204C34.899 7.96911 34.8518 8.51503 34.857 8.94409C35.831 6.8987 35.6044 5.69799 37.8469 4.4233C40.2776 5.41356 43.3719 9.12316 45.0031 11.2338C44.2581 12.2445 43.1511 12.6003 42.1272 13.2396C39.4671 14.9008 37.6864 17.5498 35.7632 19.9529C35.4818 20.3045 35.1559 20.6664 34.7967 20.9418C34.8077 21.4021 34.8735 21.6908 34.559 22.0226L34.5008 22.7046C34.1716 22.8943 34.3107 22.871 33.9725 22.8306C32.9182 20.7222 33.099 13.0287 33.2867 10.5365C33.3945 8.74583 34.3872 2.88501 35.3385 1.6169Z" fill="#410218"/>
<path d="M35.3385 1.6169L35.6888 1.37549C35.8775 1.51075 36.049 1.85373 36.1062 2.02883C35.5221 2.52254 35.033 4.40308 34.9445 5.16182L35.1511 4.85342C35.2289 4.95093 35.2014 5.32122 35.2245 5.50787C35.1391 6.18467 35.0392 6.85954 34.9248 7.53204C34.899 7.96911 34.8518 8.51503 34.857 8.94409C34.5814 10.7606 34.6403 12.3421 34.5749 14.1205C34.4733 16.8911 34.3293 18.2031 34.7967 20.9418C34.8077 21.4021 34.8735 21.6908 34.559 22.0226L34.5008 22.7046C34.1716 22.8943 34.3107 22.871 33.9725 22.8306C32.9182 20.7222 33.099 13.0287 33.2867 10.5365C33.3945 8.74583 34.3872 2.88501 35.3385 1.6169Z" fill="#45148D"/>
<path d="M34.3149 8.33701L34.3951 8.51201L34.4871 8.45246L34.5095 8.23798C34.5391 7.96017 34.5532 7.44277 34.7551 7.27979L34.9249 7.53167C34.899 7.96874 34.8518 8.51466 34.857 8.94372C34.5815 10.7603 34.6404 12.3418 34.5749 14.1201C34.4733 16.8908 34.3294 18.2027 34.7967 20.9414C34.8078 21.4017 34.8735 21.6905 34.5591 22.0222C34.2932 21.4202 34.1151 20.0008 34.0249 19.3322C33.5957 16.1546 33.5379 13.0741 34.0139 9.89393C34.1534 9.4118 34.2384 8.83698 34.3149 8.33701Z" fill="url(#paint7_linear_2505_8462)"/>
<path d="M34.9446 5.16143L35.1512 4.85303C35.2291 4.95053 35.2015 5.32083 35.2246 5.50748C35.1392 6.18428 35.0393 6.85915 34.9249 7.53164L34.7551 7.27976C34.5533 7.44275 34.5392 7.96015 34.5095 8.23796L34.4872 8.45244L34.3952 8.51199L34.3149 8.33699C34.4555 7.22617 34.6804 6.24707 34.9446 5.16143Z" fill="#FB2582"/>
<path d="M47.2174 11.3814C49.5086 10.4474 51.1832 10.1561 53.5811 9.63574C53.7812 9.82552 53.8139 9.85483 53.9362 10.1004C48 11.692 42.3686 14.4186 38.3753 19.243C37.9076 19.8083 36.4041 22.4969 36.1158 22.6883C35.8861 22.9959 35.8899 22.8988 35.872 23.236C35.9936 23.4313 36.0752 23.5558 36.2178 23.7363C36.6283 23.9416 36.7985 24.0393 36.7127 24.5517C36.5684 25.4106 36.161 26.2363 35.9405 27.0823C35.7728 27.7074 35.7683 28.1431 35.6457 28.6691C35.5052 29.237 35.4346 29.567 35.0757 30.0385C34.7981 33.0726 33.6645 35.4013 33.2082 38.3654C32.8978 40.3789 33.2895 41.6967 34.5959 43.2735C35.0457 43.817 35.54 44.3223 36.0742 44.7831L35.8765 45.0842C34.7609 44.334 33.7486 43.6593 32.7377 42.7645L32.3795 42.3222L32.3678 42.4018C32.2775 43.0496 32.603 43.3569 32.6147 44.1156L32.5155 44.1115C32.3213 43.8601 32.2383 43.6183 31.9834 43.4499C30.7968 41.2014 30.8006 37.4344 31.7389 35.1715C33.0584 31.989 33.1441 29.669 33.4851 26.3037C33.5702 25.4657 34.1798 23.591 33.9725 22.8303C34.3107 22.8706 34.1715 22.8939 34.5008 22.7043L34.559 22.0223C34.8735 21.6905 34.8077 21.4017 34.7967 20.9414C35.1559 20.6661 35.4817 20.3042 35.7631 19.9525C37.6864 17.5495 39.4671 14.9004 42.1271 13.2393C43.1511 12.6 44.2581 12.2442 45.0031 11.2335C45.7991 11.6883 46.2782 10.6188 47.2174 11.3814Z" fill="#FB2582"/>
<path d="M33.9725 22.8305C34.3107 22.8709 34.1715 22.8942 34.5008 22.7046L34.7033 22.8832C34.5638 24.3609 34.363 25.838 34.2032 27.3158C34.0796 28.4586 34.0562 29.92 33.8423 31.0146C33.0687 34.9786 30.6408 38.167 32.3795 42.3225L32.3678 42.402C32.2775 43.0499 32.603 43.3572 32.6147 44.1159L32.5155 44.1118C32.3213 43.8604 32.2383 43.6186 31.9834 43.4501C30.7968 41.2017 30.8006 37.4347 31.7389 35.1718C33.0584 31.9893 33.1441 29.6692 33.4851 26.304C33.5702 25.4659 34.1798 23.5913 33.9725 22.8305Z" fill="#45148D"/>
<path d="M45.003 11.2341C45.799 11.6889 46.2781 10.6194 47.2174 11.382C42.3513 13.4998 38.8502 16.2278 36.0331 20.7617C35.6088 21.4443 35.0739 22.1848 34.7033 22.8835L34.5007 22.7049L34.5589 22.0228C34.8734 21.6911 34.8076 21.4023 34.7966 20.942C35.1558 20.6667 35.4817 20.3047 35.7631 19.9531C37.6863 17.55 39.467 14.901 42.1271 13.2398C43.151 12.6005 44.258 12.2448 45.003 11.2341Z" fill="#340A40"/>
<path d="M36.2179 23.7368C36.6284 23.942 36.7986 24.0397 36.7128 24.5521C36.5685 25.4111 36.161 26.2368 35.9406 27.0828C35.7835 27.0187 35.5276 26.9564 35.3564 26.9085C35.5607 25.8494 35.7208 24.6845 36.2179 23.7368Z" fill="#4C2267"/>
<path d="M35.3564 26.9082C35.5276 26.9561 35.7835 27.0184 35.9405 27.0825C35.7728 27.7076 35.7683 28.1433 35.6457 28.6693C35.5052 29.2372 35.4346 29.5672 35.0757 30.0387C35.1373 28.9927 35.231 27.9487 35.3564 26.9082Z" fill="#45148D"/>
<path d="M40.8072 26.1851C42.9561 27.2382 45.0575 28.2412 47.0486 29.5786C47.2811 29.735 48.3247 30.4693 48.468 30.5213C48.2713 30.7132 48.2665 30.8423 48.198 31.1103C48.1821 32.0017 47.9954 33.0928 47.7657 33.958C46.5361 33.7193 45.218 34.5236 43.8837 34.3617C42.3892 34.1802 40.1201 32.4615 38.6997 33.192C38.5064 31.8715 38.4934 30.8671 38.7596 29.5466L39.0258 29.3189L39.0644 29.0113C39.135 28.8109 39.3028 28.5171 39.4068 28.3204L39.3713 28.0183C39.777 27.3536 40.2589 26.7383 40.8072 26.1851Z" fill="#410218"/>
<path d="M38.7596 29.5469C39.6799 32.2172 43.1635 34.5042 45.943 33.5405C47.0906 33.1424 47.6314 32.0808 48.198 31.1106C48.1821 32.002 47.9954 33.0931 47.7657 33.9583C46.5361 33.7196 45.218 34.5239 43.8837 34.362C42.3892 34.1805 40.1201 32.4618 38.6997 33.1923C38.5064 31.8718 38.4934 30.8674 38.7596 29.5469Z" fill="#F40716"/>
<path d="M39.4068 28.3207C40.4332 28.1856 41.7489 28.7846 41.658 29.769C41.4538 31.9854 39.5391 30.5281 39.0259 29.3192L39.0645 29.0116C39.1351 28.8111 39.3028 28.5173 39.4068 28.3207Z" fill="#FEFEFE"/>
<path d="M36.1158 22.6885L49.4838 29.4136C49.7621 29.0254 49.988 28.7478 50.1241 28.2859L50.1403 28.2326C50.2622 27.8165 50.2071 27.1903 50.1875 26.7446C51.0062 27.2523 51.1322 27.3618 51.6613 28.1313C50.9669 29.3223 50.0294 30.8502 48.4681 30.5213C48.3248 30.4693 47.2812 29.735 47.0487 29.5786C45.0575 28.2412 42.9562 27.2382 40.8073 26.185C40.259 26.7383 39.7771 27.3536 39.3714 28.0183L39.4069 28.3204C39.3028 28.5171 39.1351 28.8109 39.0645 29.0113L38.9092 28.6438C38.2737 28.5009 37.2394 29.2982 36.5061 29.5552C36.4954 31.6496 36.8037 33.038 37.7887 34.9052L37.5817 35.0164C36.0301 34.8838 35.6354 29.9065 35.6457 28.6693C35.7683 28.1434 35.7728 27.7077 35.9405 27.0825C36.161 26.2365 36.5684 25.4109 36.7127 24.5519C36.7985 24.0395 36.6284 23.9418 36.2178 23.7366C36.0752 23.556 35.9936 23.4315 35.872 23.2362C35.8899 22.899 35.8861 22.9962 36.1158 22.6885Z" fill="url(#paint8_linear_2505_8462)"/>
<path d="M37.9295 24.6411C38.8877 25.125 39.8642 25.6683 40.8072 26.185C40.2589 26.7383 39.7771 27.3535 39.3713 28.0183L39.4068 28.3203C39.3028 28.517 39.135 28.8108 39.0644 29.0113L38.9091 28.6437C38.2736 28.5008 37.2393 29.2982 36.506 29.5551C36.4278 27.8388 37.0909 26.1063 37.9295 24.6411Z" fill="#9462C5"/>
<path d="M39.3714 28.0186L39.4069 28.3206C39.3029 28.5173 39.1351 28.8111 39.0645 29.0115L38.9092 28.644L39.3714 28.0186Z" fill="#37011C"/>
<path d="M38.6997 33.1916C40.1201 32.4611 42.3892 34.1798 43.8837 34.3613C45.218 34.5232 46.5361 33.7189 47.7657 33.9576C47.5894 34.5655 47.5122 34.7791 47.2274 35.3388C45.8741 37.086 43.8982 38.203 41.711 37.1494C39.9724 36.3121 39.3028 34.9206 38.6997 33.1916Z" fill="#FD243C"/>
<path d="M36.5061 29.5553C37.2394 29.2984 38.2737 28.501 38.9092 28.644L39.0645 29.0115L39.026 29.319L38.7597 29.5467C38.4935 30.8672 38.5066 31.8716 38.6998 33.1921C39.3029 34.9212 39.9724 36.3127 41.7111 37.15C43.8982 38.2036 45.8742 37.0866 47.2275 35.3393C47.3653 35.392 47.6349 35.4853 47.7551 35.5466C45.9486 39.0054 41.8021 39.2169 39.1968 36.5603C38.7074 36.0612 38.2393 35.4457 37.7888 34.9053C36.8037 33.0382 36.4954 31.6498 36.5061 29.5553Z" fill="url(#paint9_linear_2505_8462)"/>
<path d="M78.0192 1.35791C78.0309 1.45979 78.1016 1.78001 78.0096 1.84118C74.9755 3.86204 71.9442 5.88786 69.6352 8.77072C68.8203 9.78803 68.2912 10.8512 67.2173 11.6584C67.4884 11.1028 68.4073 9.64871 68.4682 9.27772C68.5878 8.916 69.329 7.93742 69.6087 7.6296C71.9074 5.09995 74.8536 2.69367 78.0192 1.35791Z" fill="#B0065D"/>
<path d="M53.5811 9.63587C54.613 9.39099 56.6137 8.89587 57.5957 9.22315L57.73 9.36467C57.4486 9.75439 54.5324 10.0742 53.9362 10.1005C53.8139 9.85497 53.7812 9.82565 53.5811 9.63587Z" fill="#C423B8"/>
<path d="M48.4682 30.522C48.7809 31.784 48.3735 34.3083 47.7552 35.5472C47.635 35.4859 47.3653 35.3925 47.2275 35.3398C47.5124 34.7801 47.5895 34.5666 47.7659 33.9587C47.9956 33.0935 48.1823 32.0023 48.1981 31.1109C48.2667 30.843 48.2715 30.7138 48.4682 30.522Z" fill="#F8C3E5"/>
<path d="M36.1061 2.02881C35.7996 3.28218 35.4927 4.15844 35.2244 5.50784C35.2013 5.3212 35.2288 4.9509 35.151 4.85339L34.9443 5.1618C35.0329 4.40305 35.5219 2.52251 36.1061 2.02881Z" fill="#B0065D"/>
<path d="M36.0742 44.7832C36.5009 45.0498 36.794 45.2668 37.0024 45.7314C36.5405 45.5196 36.3056 45.3653 35.8765 45.0842L36.0742 44.7832Z" fill="#B0065D"/>
<path d="M58.8013 26.5453C58.0019 27.8994 57.5855 30.4113 60.0103 29.2278C64.3694 27.1 68.8266 25.1924 73.5312 23.9617C74.1174 23.8083 75.5605 23.255 76.0758 23.5895C76.2418 24.1677 75.0907 24.636 74.6674 24.8643C75.9511 26.7111 76.4712 28.9623 76.0968 31.1942C75.8588 32.6112 75.5726 33.0166 74.9709 34.2186C74.6027 34.8293 73.9996 35.5626 73.3128 35.8247C71.5596 37.4569 70.2109 38.526 67.6993 38.6969C63.5083 38.9824 60.1921 36.1571 59.9231 31.9351C59.9397 31.5934 59.9125 31.1715 59.899 30.8229L59.7899 30.9658C58.4796 30.8267 58.1614 30.0462 57.4178 29.1665C57.1419 28.8404 56.5133 29.1438 56.4651 28.4653C56.7513 27.6703 58.0701 26.9557 58.8013 26.5453Z" fill="url(#paint10_linear_2505_8462)"/>
<path d="M72.6948 30.394C73.4491 30.2989 74.4121 29.9142 75.0111 30.1532C75.1348 30.3058 75.1148 30.4863 75.1234 30.6881C75.038 31.4149 74.9577 32.0748 74.8203 32.7971C74.7569 33.1284 74.5702 33.6457 74.5334 33.8751C74.4704 34.1069 74.3443 34.4234 74.427 34.6284C74.6581 34.533 74.7855 34.3883 74.9708 34.2189C74.6026 34.8295 73.9995 35.5628 73.3127 35.8249C71.5596 37.4572 70.2108 38.5263 67.6992 38.6971C63.5082 38.9826 60.1921 36.1573 59.9231 31.9353C60.3753 31.8671 61.0824 31.6973 61.5478 31.5988C61.5794 32.5494 61.6304 32.9379 61.9359 33.8782C62.311 33.6888 63.367 33.5706 63.8055 33.5245L64.39 33.6206C66.7641 33.54 67.3872 34.2592 69.6615 32.8835C70.0624 32.5139 70.4595 32.1406 70.8525 31.7627L70.7881 31.6191C71.4215 31.2809 71.571 30.8011 71.7487 30.1491C72.026 30.2101 72.3211 30.2862 72.6018 30.3086L72.6948 30.394Z" fill="#FD243C"/>
<path d="M72.6948 30.394C73.4491 30.2989 74.4121 29.9142 75.0111 30.1532C75.1348 30.3058 75.1148 30.4863 75.1234 30.6881C75.038 31.4149 74.9577 32.0748 74.8203 32.7971C74.7569 33.1284 74.5702 33.6457 74.5334 33.8751C74.4704 34.1069 74.3443 34.4234 74.427 34.6284C74.6581 34.533 74.7855 34.3883 74.9708 34.2189C74.6026 34.8295 73.9995 35.5628 73.3127 35.8249C71.5596 37.4572 70.2108 38.5263 67.6992 38.6971C63.5082 38.9826 60.1921 36.1573 59.9231 31.9353C60.3753 31.8671 61.0824 31.6973 61.5478 31.5988C61.5794 32.5494 61.6304 32.9379 61.9359 33.8782C62.1278 34.3387 62.3647 34.8481 62.6448 35.2594C63.5534 36.5834 64.9566 37.4854 66.5378 37.7623C67.9844 38.0148 69.472 37.681 70.6727 36.8355C72.3242 35.663 72.6435 34.3776 72.9518 32.5298C72.9907 31.728 72.8571 31.1665 72.6948 30.394Z" fill="#F8C3E5"/>
<path d="M74.5332 33.875C74.4701 34.1068 74.3441 34.4233 74.4267 34.6283C74.6578 34.5329 74.7853 34.3882 74.9706 34.2187C74.6024 34.8294 73.9993 35.5627 73.3125 35.8248C73.7647 35.1487 74.1274 34.5787 74.5332 33.875Z" fill="#340A40"/>
<path d="M71.7487 30.1489C72.026 30.2099 72.3211 30.286 72.6018 30.3084L72.6948 30.3938C72.8571 31.1664 72.9907 31.7278 72.9518 32.5296C71.9571 32.4383 71.6416 31.8931 70.8525 31.7626L70.7881 31.6189C71.4215 31.2807 71.571 30.8009 71.7487 30.1489Z" fill="#F40716"/>
<path d="M69.6614 32.8833C69.3383 34.717 65.0016 34.7095 64.3899 33.6204C66.764 33.5398 67.3871 34.2589 69.6614 32.8833Z" fill="#F40716"/>
<path d="M69.9229 26.2718C71.211 25.8504 72.4262 25.435 73.7519 25.1377C74.5836 26.6526 75.3617 28.9769 75.1234 30.688C75.1148 30.4862 75.1347 30.3057 75.0111 30.1532C74.4121 29.9141 73.4491 30.2988 72.6948 30.3939L72.6018 30.3085C72.0983 28.6384 71.3236 27.3605 69.9229 26.2718Z" fill="#9462C5"/>
<path d="M70.788 31.619C70.0875 31.7306 69.369 31.6403 69.2074 30.8024C69.141 30.4462 69.2291 30.0787 69.4496 29.7908C70.1853 28.8505 71.119 29.5893 71.7486 30.149C71.5709 30.801 71.4214 31.2808 70.788 31.619Z" fill="#FEFEFE"/>
<path d="M59.8989 30.8232C60.149 30.5087 61.1967 30.1223 61.63 29.9438C61.6459 30.3399 61.6441 30.8149 61.7533 31.1876L61.5477 31.5988C61.0824 31.6973 60.3753 31.8671 59.923 31.9353C59.9396 31.5937 59.9124 31.1717 59.8989 30.8232Z" fill="#9462C5"/>
<path d="M61.7532 31.188C62.7018 32.1975 62.5475 33.2897 63.8053 33.5249C63.3669 33.5711 62.3109 33.6892 61.9358 33.8787C61.6303 32.9384 61.5793 32.5499 61.5476 31.5992L61.7532 31.188Z" fill="#F40716"/>
<path d="M51.2726 37.8677C52.775 36.9202 54.615 37.3538 56.2107 37.7124C57.0635 38.0857 57.3197 38.1918 57.7799 39.0267C56.5324 40.0986 55.4433 41.1711 53.6426 41.1312C52.1464 41.0981 48.5768 39.0622 51.2726 37.8677Z" fill="#FD243C"/>
<path d="M56.2107 37.7124C57.0635 38.0858 57.3197 38.1918 57.7799 39.0267C56.5324 40.0986 55.4433 41.1712 53.6426 41.1312C52.1464 41.0981 48.5768 39.0622 51.2726 37.8677L51.4262 38.0362L51.8141 37.9821C52.0011 38.962 52.1757 39.2682 52.9476 39.934C53.1942 40.0411 53.7281 40.1609 54.0115 40.2329C54.7848 39.9805 56.9392 39.2069 56.8468 38.2711C56.6402 38.0172 56.3547 37.9752 56.0278 37.8739L56.2107 37.7124Z" fill="#37011C"/>
<path d="M51.4266 38.0365L51.8144 37.9824C52.0014 38.9623 52.1761 39.2685 52.9479 39.9343C52.289 39.8127 50.9568 39.189 50.9551 38.4195C51.1194 38.1353 51.0953 38.2097 51.4266 38.0365Z" fill="#F40716"/>
<path d="M51.2727 37.8677C52.7751 36.9202 54.615 37.3538 56.2108 37.7124L56.0279 37.8739C54.7042 37.7341 53.1147 37.6593 51.8141 37.9821L51.4263 38.0361L51.2727 37.8677Z" fill="#000005"/>
<path d="M53.0977 44.5077C54.6586 44.2246 56.0112 45.2186 57.4619 45.4969C57.9755 45.5954 59.0604 45.3691 59.6095 45.5693C59.7717 45.6309 60.2019 45.9867 60.2208 46.1662C60.4764 48.6047 56.3026 46.0725 55.8514 45.8462C52.0699 44.2666 50.0791 47.1302 48.6287 47.0038L48.5413 46.8991C48.5654 46.6949 48.6318 46.6046 48.761 46.4396C49.7822 45.1305 51.5395 44.7271 53.0977 44.5077Z" fill="#340A40"/>
<path d="M79.816 50.3084C79.8639 50.534 79.8243 50.4939 79.6707 50.7628C80.1722 50.9484 80.8554 51.0952 81.111 51.5691C81.1086 52.0065 80.493 52.8336 80.226 53.2273C84.2414 55.3714 85.901 57.9015 88.2289 61.8259C88.4036 61.3251 88.5899 60.2466 88.5458 59.7203C89.2019 60.8751 89.7977 61.955 90.3302 63.1801C91.2794 64.8392 94.2234 72.2851 95.1464 72.9058C97.5602 73.8839 100.315 74.3831 102.842 75.1267C104.895 75.7309 109.325 76.5711 108.24 79.6961C107.911 80.5985 106.822 81.705 106.019 82.2729C105.361 82.7445 104.657 83.1501 103.919 83.4842C101.64 84.4733 100.148 84.613 97.6745 84.4831C96.6774 84.4304 95.6906 84.4052 94.7186 84.658C93.1821 85.0569 91.9951 85.918 90.7341 86.8376C90.538 86.9811 89.8064 87.5334 89.6302 87.6018C88.4175 88.5879 86.6325 88.6325 85.16 88.7592C84.9668 88.7761 80.7528 89.4576 80.599 89.513C81.4601 90.5463 82.5484 91.1691 83.1822 92.2685C83.2345 92.7252 85.6336 92.9977 85.7655 93.1295C86.1099 93.4739 86.7988 95.1961 86.7988 95.8849C86.7987 96.5737 84.5599 96.9182 81.6323 97.2626C78.7047 97.607 73.1939 96.4016 72.8494 95.5405C72.5739 94.8516 72.3902 93.4165 72.3328 92.7851C72.1605 92.9573 66.6497 87.1492 66.8219 87.102L64.4109 89.513L61.9999 91.4073L54.767 96.4016C52.3559 97.4349 47.224 97.1937 45.984 96.9182C44.4342 96.5738 44.3659 95.6244 44.4341 94.5072C44.4745 93.8461 44.6546 93.4257 45.1229 92.9573C45.2952 92.7851 45.7039 92.4389 45.9033 92.3229C46.6966 91.8609 47.1827 91.7449 47.6305 91.4205C47.2196 90.3493 47.2419 89.8203 47.1768 88.6788C46.1685 89.1198 42.2306 90.5858 41.7756 89.0354C41.6815 88.2673 41.9597 87.4496 42.2263 86.7397C42.3561 86.2183 42.6405 85.5068 42.8045 84.9268C43.0442 84.6027 43.8788 82.472 44.119 81.9558C44.8295 80.4355 45.6467 78.9669 46.5639 77.5616C46.6773 77.4011 46.8935 77.155 47.0254 76.9949C46.703 76.7142 46.5388 76.4534 46.2905 76.1055C42.0812 77.279 40.5402 77.0102 37.033 74.2714C36.4109 73.9852 35.5623 73.3821 35.0794 72.9199C33.9769 72.1033 33.2915 70.5997 33.0276 69.2812C32.8165 68.2207 32.9507 66.6661 33.4501 65.7155C33.6702 65.5347 34.0872 64.7426 34.2547 64.4515C35.6289 62.9367 36.8351 62.4861 38.7763 62.1858C39.3243 62.2313 40.2099 62.381 40.7103 62.6204C41.2638 62.6387 42.4415 63.1181 42.9131 63.4246C43.0571 63.4769 43.178 63.5382 43.3285 63.5279C43.7097 62.6541 47.4336 57.7013 48.1579 56.9467C47.147 55.9717 46.343 55.2256 47.2302 53.7897C47.6318 53.819 47.8679 53.8115 48.2306 53.9878C50.3966 54.9983 52.3925 55.1649 54.7666 55.3141C61.1096 55.7267 67.4714 54.8828 73.4872 52.8311C74.4201 52.5089 79.5756 50.2781 79.816 50.3084Z" fill="#060129"/>
<path d="M47.6303 91.4204C48.1022 91.5916 49.028 91.6174 49.526 91.5771C52.1258 91.367 53.2514 92.4637 54.8464 94.285L51.9587 94.3122C52.6228 96.3688 51.5575 96.4177 49.898 96.3264C48.5516 96.2524 47.3544 95.9314 46.0414 95.6927C45.7287 95.6397 45.7118 96.0237 45.6729 96.2469C44.559 95.434 44.8387 94.7104 45.0512 93.4984C45.4146 93.1787 45.4745 93.1009 45.6354 92.6638C45.9956 92.1492 47.1825 91.7449 47.6303 91.4204Z" fill="#4C2267"/>
<path d="M73.3354 92.2633C75.4613 91.2196 77.7751 90.6141 80.1396 90.4829C80.886 90.93 81.2635 91.3126 81.7877 91.9863C82.036 92.3053 82.4642 93.0403 82.7959 93.1839L84.209 93.3627C86.5691 94.1011 85.6849 96.1408 83.2712 96.1773C80.7234 96.4959 79.1621 96.4233 76.6268 96.1798C74.0212 95.6893 73.5201 94.841 73.3354 92.2633Z" fill="#221149"/>
<path d="M76.627 96.1794C77.8624 93.3603 80.0457 93.3162 82.796 93.1836L84.2092 93.3623C86.5692 94.1008 85.6851 96.1405 83.2713 96.177C80.7236 96.4956 79.1623 96.4229 76.627 96.1794Z" fill="#4C2267"/>
<path d="M84.2089 93.3623C86.5689 94.1008 85.6847 96.1405 83.271 96.177C83.3244 95.9221 83.6041 95.3917 83.7274 95.0982C83.9936 94.4634 84.0801 94.0357 84.2089 93.3623Z" fill="#221149"/>
<path d="M69.4227 78.1311C70.2442 77.9982 74.7028 77.2466 75.2608 77.4068C78.7647 78.4146 79.3333 78.5544 83.0445 77.3647C85.2268 80.2176 86.7674 82.9038 87.9667 86.2534C88.0756 86.5586 88.3814 87.3507 88.6604 87.4882C88.8716 87.4324 88.9263 87.4189 89.1209 87.3235C89.6737 87.3652 90.5365 86.4277 91.0952 86.2338C90.7049 86.6698 90.0781 87.1245 89.6086 87.5126L89.63 87.6022C88.4173 88.5883 86.6324 88.6327 85.16 88.7595C84.9668 88.7763 84.259 88.8349 84.1054 88.8903C83.9638 88.7788 83.7441 88.4567 83.6239 88.2966C81.3875 88.2814 77.7923 88.9665 75.5801 89.4711C74.304 89.7621 73.271 90.3228 71.8203 90.4334L66.9911 85.8112C66.1014 86.9643 61.2529 92.0667 59.6121 91.3754C57.5055 90.4881 53.1557 88.0475 51.8724 86.1945C51.1811 86.5255 50.2942 87.0631 49.574 87.4169C49.0715 87.6631 47.5454 88.3971 47.1768 88.6792C46.1687 89.1201 42.2305 90.5863 41.7755 89.0357C41.6815 88.2676 41.9598 87.4499 42.2264 86.7401C42.3562 86.2186 42.6404 85.507 42.8043 84.927C43.044 84.6029 43.8789 82.4719 44.119 81.956C44.8295 80.4357 45.6465 78.9674 46.5637 77.5621C46.82 77.5783 46.955 77.58 47.2102 77.6479C47.1996 77.8029 47.212 77.7278 47.0638 77.8835L47.2175 77.8876C47.5464 77.7033 47.4196 77.7143 47.7179 77.7763L47.9552 77.9864C48.6902 78.3112 52.0801 78.9932 52.8812 78.9939L53.1082 79.049C53.712 79.1499 54.7542 79.3586 55.3215 79.2811C56.7368 79.5061 58.2326 79.7013 59.6703 79.6858C61.6335 79.824 61.6518 79.556 63.5272 79.1516C64.4048 78.9622 66.462 78.718 67.3414 78.749C68.0705 78.3043 68.9064 78.5317 69.4227 78.1311Z" fill="#45148D"/>
<path d="M67.3412 78.7492C69.3393 78.8619 70.7201 78.4003 72.394 78.4048C74.5504 80.6553 77.0276 80.8899 79.9573 81.0152C81.026 82.6378 82.1854 84.9562 83.1853 86.3666C79.7882 86.8943 76.5716 87.3152 73.2799 88.3423C72.9268 88.4525 72.4508 88.5713 72.085 88.6261C71.9352 88.707 71.6931 88.8685 71.5364 88.7642C69.4684 87.3885 66.611 81.7406 65.5791 79.6782C65.5151 80.9825 65.7338 83.0897 65.7958 84.4716C63.9744 86.4169 62.1834 88.1735 59.9123 89.5967C57.814 88.6474 55.2308 87.4306 53.425 86.0036C53.2906 85.2569 52.9028 79.4839 53.1081 79.0492C53.7119 79.1502 54.7541 79.3589 55.3214 79.2814C56.7366 79.5063 58.2325 79.7016 59.6701 79.6861C61.6334 79.8242 61.6516 79.5562 63.527 79.1519C64.4046 78.9624 66.4619 78.7182 67.3412 78.7492Z" fill="#563DA5"/>
<path d="M65.5793 79.6778C65.6035 79.4212 65.5845 79.1984 65.7505 79.0234C66.075 79.1612 68.5097 82.9413 68.8084 83.5637C69.3749 84.7447 71.871 87.6903 72.0852 88.6257C71.9354 88.7067 71.6933 88.8682 71.5366 88.7639C69.4686 87.3882 66.6113 81.7403 65.5793 79.6778Z" fill="#5547E4"/>
<path d="M46.5637 77.562C46.82 77.5782 46.955 77.5799 47.2102 77.6478C47.1996 77.8028 47.212 77.7277 47.0638 77.8834L47.2175 77.8875C47.5464 77.7032 47.4196 77.7143 47.7179 77.7762L47.9552 77.9864C48.6902 78.3111 52.0801 78.9931 52.8812 78.9938C52.4882 80.4573 50.9118 85.4081 49.5926 85.9891C48.6637 86.3983 44.273 88.1928 43.4153 88.2579L42.815 88.5665C42.4151 88.7704 42.4898 88.7831 41.999 88.623L41.9446 88.6051C41.904 88.7125 41.823 88.9443 41.7755 89.0356C41.6815 88.2675 41.9598 87.4499 42.2264 86.74C42.3562 86.2185 42.6404 85.5069 42.8043 84.9269C43.044 84.6028 43.8789 82.4718 44.119 81.9559C44.8295 80.4356 45.6465 78.9673 46.5637 77.562Z" fill="#563DA5"/>
<path d="M46.5637 77.562C46.82 77.5782 46.955 77.5799 47.2102 77.6478C47.1996 77.8028 47.212 77.7277 47.0638 77.8834L47.2175 77.8875C47.5464 77.7032 47.4196 77.7143 47.7179 77.7762L47.9552 77.9864C47.5405 78.7813 43.4987 87.7381 43.4153 88.2579L42.815 88.5665C42.4151 88.7704 42.4898 88.7831 41.999 88.623L41.9446 88.6051C41.904 88.7125 41.823 88.9443 41.7755 89.0356C41.6815 88.2675 41.9598 87.4499 42.2264 86.74C42.3562 86.2185 42.6404 85.5069 42.8043 84.9269C43.044 84.6028 43.8789 82.4718 44.119 81.9559C44.8295 80.4356 45.6465 78.9673 46.5637 77.562Z" fill="#5547E4"/>
<path d="M46.5637 77.562C46.82 77.5782 46.955 77.5799 47.2102 77.6478C47.1996 77.8028 47.212 77.7277 47.0638 77.8834L47.2175 77.8875C46.3936 79.4147 42.2322 87.1006 42.6128 88.4315L42.815 88.5665C42.4151 88.7704 42.4898 88.7831 41.999 88.623L41.9446 88.6051C41.904 88.7125 41.823 88.9443 41.7755 89.0356C41.6815 88.2675 41.9598 87.4499 42.2264 86.74C42.3562 86.2185 42.6404 85.5069 42.8043 84.9269C43.044 84.6028 43.8789 82.4718 44.119 81.9559C44.8295 80.4356 45.6465 78.9673 46.5637 77.562Z" fill="#45148D"/>
<path d="M38.7762 62.186C39.3242 62.2315 40.2097 62.3813 40.7102 62.6207C41.2637 62.639 42.4416 63.1184 42.9131 63.4249C42.8067 63.7322 42.7082 63.8121 42.8935 64.1217C43.8417 64.9177 44.9542 65.6978 45.0317 67.0352C45.1033 68.2728 44.4882 69.4018 43.6853 70.2987C41.6453 72.5771 39.3717 73.2632 36.4358 72.6914C36.2212 72.7507 36.2639 72.7231 36.016 72.6625L35.9677 72.7707L36.0259 72.8251C36.441 73.2191 36.6607 73.8301 36.9907 74.0778L37.0327 74.2717C36.4107 73.9854 35.5623 73.3824 35.0795 72.9201C33.9769 72.1035 33.2915 70.6001 33.0277 69.2816C32.8166 68.2211 32.9505 66.6664 33.45 65.7157C33.6701 65.5349 34.0872 64.7427 34.2545 64.4517C35.6288 62.9369 36.835 62.4864 38.7762 62.186Z" fill="#340A40"/>
<path d="M38.7762 62.186C39.3242 62.2315 40.2097 62.3813 40.7102 62.6207C40.1029 62.8529 39.0039 61.9494 38.0088 62.6121C38.5189 62.7602 39.4602 62.7847 40.0323 62.8408C39.6283 62.9076 38.8082 62.8528 38.3253 62.869C36.7568 62.921 35.8551 63.4001 34.9059 64.5764C33.968 65.7381 33.6628 68.486 33.0277 69.2816C32.8166 68.2211 32.9505 66.6664 33.45 65.7157C33.6701 65.5349 34.0872 64.7427 34.2545 64.4517C35.6288 62.9369 36.835 62.4864 38.7762 62.186Z" fill="#4C2267"/>
<path d="M35.0793 72.92C35.3855 72.97 35.5536 73.0261 35.7882 73.2335L35.8078 73.2304L35.7737 73.1012L35.628 73.177C35.4376 72.9593 35.276 72.6411 35.3855 72.3521C35.7396 72.2691 36.1102 72.5147 36.4357 72.6913C36.2211 72.7506 36.2638 72.723 36.0158 72.6624L35.9676 72.7706L36.0258 72.825C36.4409 73.219 36.6606 73.83 36.9906 74.0777L37.0326 74.2716C36.4106 73.9854 35.5622 73.3823 35.0793 72.92Z" fill="#221149"/>
<path d="M97.9673 79.2394C98.0896 78.0677 94.5874 74.3165 95.1464 72.9058C97.5602 73.8839 100.315 74.383 102.842 75.1266C104.895 75.7308 109.325 76.5712 108.24 79.6962C107.911 80.5986 106.822 81.7049 106.019 82.2728C106.027 81.9866 106.047 81.6883 106.062 81.4014C105.7 80.727 105.469 80.3898 104.924 79.8549C103.635 80.4446 103.234 81.4651 101.402 81.1238C100.114 80.8837 98.7626 80.3258 97.9673 79.2394Z" fill="#4C2267"/>
<path d="M43.3284 63.5281C43.7093 62.6546 47.4333 57.7014 48.1576 56.9468C48.2327 57.3942 48.2592 57.5085 47.9844 57.8884C47.9282 57.9653 47.8704 58.041 47.8104 58.1151C48.1686 58.4058 48.6419 59.5555 48.8954 60.0363C48.7697 61.642 48.5007 62.9632 48.2689 64.5311C48.0712 65.8682 47.922 67.2693 47.7467 68.6184C46.969 67.7766 44.1044 62.7835 42.8934 64.1216C42.7081 63.8119 42.8066 63.732 42.913 63.4248C43.057 63.4771 43.1779 63.5384 43.3284 63.5281Z" fill="#221149"/>
<path d="M43.3286 63.5281C43.7096 62.6546 47.4335 57.7014 48.1578 56.9468C48.2329 57.3942 48.2594 57.5085 47.9846 57.8884C47.9285 57.9653 47.8706 58.041 47.8107 58.1151C46.3654 59.6839 45.3036 61.7929 43.8573 63.381C43.7292 63.5219 43.5132 63.5074 43.3286 63.5281Z" fill="#563DA5"/>
<path d="M48.2303 53.9881C50.3964 54.9986 52.3924 55.1653 54.7665 55.3145C61.1095 55.7271 67.4711 54.8832 73.4869 52.8315C74.4196 52.5094 79.5753 50.2786 79.8157 50.3089C79.8636 50.5345 79.824 50.4942 79.6704 50.7632C79.6428 50.767 79.6153 50.7697 79.5881 50.7746C79.2354 50.8359 78.1814 51.7331 77.7592 51.9783C76.783 52.5463 75.7553 52.9672 74.691 53.3368C72.4364 54.1193 70.0006 54.8333 67.6526 55.2514C63.4943 55.9916 52.1881 56.8548 48.6653 54.6986C48.4294 54.5543 48.2699 54.4124 48.1873 54.1403L48.2303 53.9881Z" fill="#000005"/>
<path d="M90.3302 63.1807C91.2794 64.8398 94.2232 72.2856 95.1463 72.9063C94.5873 74.3171 98.0894 78.0682 97.9672 79.24C93.4992 75.1778 92.1536 69.2622 89.3992 64.2139C90.1194 63.8981 89.7302 63.6539 90.3302 63.1807Z" fill="#563DA5"/>
<path d="M103.919 83.4839C101.64 84.4731 100.148 84.6126 97.6744 84.4827C96.6773 84.43 95.6905 84.4049 94.7185 84.6577C93.182 85.0565 91.9951 85.9176 90.7341 86.8372C90.5382 86.9805 89.8059 87.5333 89.6299 87.6015L89.6086 87.512C90.078 87.1238 90.7049 86.6692 91.0951 86.2331C90.5364 86.427 89.6737 87.3646 89.1208 87.3229C90.772 86.4108 92.2679 84.8678 94.3568 84.3188C94.931 84.1676 95.2024 84.0054 95.8882 83.9606C96.6514 83.8879 97.4691 84.5282 98.2275 84.4063C99.318 84.231 100.417 83.9744 101.503 83.7615C102.345 83.5969 103.076 83.5676 103.919 83.4839Z" fill="#4C2267"/>
<path d="M47.0253 76.9951C48.9782 78.3294 53.9104 77.8283 55.3215 79.2811C54.7542 79.3586 53.712 79.1499 53.1082 79.0489L52.8812 78.9938C52.0801 78.9931 48.6902 78.3112 47.9552 77.9864L47.7179 77.7763C47.4196 77.7143 47.5464 77.7033 47.2174 77.8875L47.0638 77.8834C47.2119 77.7277 47.1995 77.8028 47.2102 77.6478C46.955 77.58 46.82 77.5782 46.5637 77.562C46.677 77.4015 46.8933 77.1553 47.0253 76.9951Z" fill="#4C2267"/>
<path d="M88.5459 59.7202C89.202 60.8751 89.7979 61.9549 90.3304 63.18C89.7304 63.6532 90.1196 63.8974 89.3994 64.2133C88.9557 63.6247 88.6299 62.5183 88.229 61.8257C88.4036 61.3249 88.59 60.2465 88.5459 59.7202Z" fill="#4C2267"/>
<path d="M59.6702 79.6861C61.2177 79.4157 61.4881 78.8746 62.8386 78.5591C63.4341 78.4203 65.1276 78.6091 65.8812 78.5416C67.0606 78.4362 68.2623 78.1868 69.4226 78.1313C68.9063 78.5319 68.0704 78.3046 67.3413 78.7492C66.4619 78.7182 64.4047 78.9625 63.5271 79.1519C61.6517 79.5562 61.6334 79.8242 59.6702 79.6861Z" fill="#4C2267"/>
<path d="M56.3627 64.8488C56.8783 64.6122 57.2854 64.6164 57.8537 64.6022C62.7601 64.481 67.0658 61.6767 71.263 59.2856C71.5261 59.8991 71.6233 60.1223 71.7635 60.7887L72.131 62.0703C72.6648 62.5498 74.0711 65.8907 73.1773 66.2255C70.053 68.1278 68.5258 70.1706 71.3405 73.3827C66.9676 73.2525 62.5652 73.8742 58.2113 73.5284C56.9086 73.4251 50.7055 73.3032 49.7766 72.8224C49.4514 72.7094 48.9971 72.6674 48.6465 72.6216C48.7371 71.9596 48.7391 71.0017 48.7767 70.2998C48.8394 69.272 48.9231 68.2456 49.0281 67.2213C49.1941 65.5164 49.7104 62.122 49.718 60.6103C50.0332 60.994 50.2963 61.3498 50.588 61.749C53.0035 63.0826 53.4981 63.7336 56.3627 64.8488Z" fill="#221149"/>
<path d="M56.3628 64.8488C56.8784 64.6122 57.2855 64.6164 57.8538 64.6022C62.7602 64.481 67.0659 61.6767 71.2631 59.2856C71.5262 59.8991 71.6234 60.1223 71.7635 60.7887C70.587 61.3402 68.7315 61.9736 67.4551 62.4775C64.6639 63.5789 61.2602 65.0765 58.3364 65.7433C57.7812 65.5153 56.8357 65.1544 56.3628 64.8488Z" fill="#340A40"/>
<path d="M49.718 60.6108C50.0332 60.9945 50.2963 61.3503 50.588 61.7495C50.358 64.4516 50.1089 67.1488 49.8671 69.8494C49.7969 70.6351 49.9157 72.2002 49.7766 72.8229C49.4514 72.7099 48.9971 72.6679 48.6465 72.6221C48.7371 71.9601 48.7391 71.0022 48.7767 70.3003C48.8394 69.2725 48.9231 68.2461 49.0281 67.2218C49.1941 65.5169 49.7104 62.1225 49.718 60.6108Z" fill="#B0065D"/>
<path d="M72.1309 62.0708C72.6648 62.5502 74.0711 65.8912 73.1773 66.226C72.6717 65.3814 72.123 63.05 72.1309 62.0708Z" fill="#340A40"/>
<path d="M72.6285 60.3633C72.4022 59.9752 71.962 59.1689 72.1569 58.7686C72.6168 57.8246 75.6639 56.0346 76.556 55.6643C76.8133 55.5593 77.0764 55.4697 77.3444 55.396C78.3046 56.3256 81.8478 60.425 81.8877 61.6208C83.5027 63.9692 84.7244 65.5484 85.2872 68.3944L85.3055 68.4639C85.4677 69.0712 85.7725 69.5937 85.8538 70.2598C86.5368 75.8495 80.6939 79.1588 75.9646 76.5911C75.3302 76.2466 74.4081 75.4283 74.0465 74.7973C73.2474 73.5532 74.8669 71.3857 74.1625 70.8501C73.8829 70.8601 73.7386 71.0044 73.5019 71.1694C73.4516 71.6557 72.9133 72.6718 72.6829 73.1816L71.8015 72.3229C70.8994 71.52 70.6346 70.9469 70.9401 69.7693C71.1571 69.0109 71.5566 68.5683 72.148 68.0816C74.2373 66.3657 76.4633 65.4953 79.1688 65.4006L79.4506 65.29L79.2745 65.2205L79.2408 65.3765L79.1812 65.2098C77.7467 65.1085 76.3345 65.2043 74.9089 65.3544C74.2266 63.767 73.3528 62.0252 72.6285 60.3633Z" fill="#221149"/>
<path d="M85.2874 68.395L85.3056 68.4646C85.4679 69.0718 85.7727 69.5943 85.854 70.2604C86.537 75.8502 80.6941 79.1594 75.9648 76.5917C75.3303 76.2473 74.4083 75.4289 74.0466 74.7979C74.5454 74.7049 75.589 74.6633 76.1525 74.6288C78.6261 74.4762 81.3537 74.3357 83.3813 72.7259C84.9647 71.4687 85.0886 70.2353 85.2874 68.395Z" fill="#340A40"/>
<path d="M72.6287 60.3633C72.4024 59.9752 71.9622 59.1689 72.1572 58.7686C72.617 57.8246 75.6642 56.0346 76.5562 55.6643C76.8135 55.5593 77.0767 55.4697 77.3446 55.396C78.3049 56.3256 81.848 60.425 81.888 61.6208C80.6993 60.476 79.5724 59.1058 77.7776 59.1079C76.0079 59.11 74.2709 59.7658 72.6287 60.3633Z" fill="#340A40"/>
<path d="M79.169 65.401C80.2212 65.3955 82.2375 65.4082 82.8406 66.4349L82.7772 66.5235C82.4135 66.5317 81.8425 66.2893 81.4763 66.1694C78.0121 65.0348 75.3249 66.3857 72.4912 68.4068L72.1482 68.082C74.2375 66.3661 76.4635 65.4957 79.169 65.401Z" fill="#45148D"/>
<path d="M71.8015 72.3234C72.2369 71.8081 72.8796 71.4162 73.502 71.1699C73.4517 71.6563 72.9133 72.6723 72.6829 73.1821L71.8015 72.3234Z" fill="#340A40"/>
<path d="M70.9402 69.7697C71.1572 69.0113 71.5567 68.5687 72.1481 68.082L72.4911 68.4068C72.1949 68.8312 71.4599 69.6912 70.9402 69.7697Z" fill="#4C2267"/>
<path d="M48.3782 56.9189C49.47 57.2985 50.8081 57.8083 51.9175 58.0793C57.2355 59.3799 63.0143 59.4439 68.3643 58.288C69.7548 57.9877 70.9957 57.491 72.3183 57.1022C69.5412 59.5345 65.6299 61.4602 62.1735 62.766C61.3707 63.0691 60.4221 63.2819 59.7712 63.5282C59.2607 63.5933 59.2239 63.7138 58.7661 63.844C57.7346 64.1375 57.1025 63.8082 56.2139 63.3243C54.6027 62.779 53.3944 62.1422 52.0146 61.1334C50.2364 59.8335 49.0057 59.1601 48.3782 56.9189Z" fill="#7B0343"/>
<path d="M56.2139 63.3247C57.398 63.4191 58.5842 63.4869 59.7711 63.5286C59.2607 63.5937 59.2238 63.7143 58.7661 63.8444C57.7345 64.1379 57.1025 63.8086 56.2139 63.3247Z" fill="#37011C"/>
<path d="M71.5131 74.0307C71.7646 73.9659 72.2423 73.8271 72.4328 74.0234C73.3086 74.9265 73.7037 75.8462 74.6292 76.7847C73.8938 76.8891 73.0517 77.0661 72.3336 76.9056C71.3995 76.9752 70.2691 77.2197 69.2954 77.3093C67.099 77.5111 64.7813 77.7691 62.5887 77.8879C62.61 77.1856 62.712 75.2537 62.3672 74.6627C62.3576 74.5404 62.3669 74.4478 62.3731 74.3259C62.537 74.247 63.7001 74.2656 63.9295 74.2825C66.3994 74.4647 69.0143 73.9053 71.4494 74.0334L71.5131 74.0307Z" fill="#221149"/>
<path d="M71.5129 74.0307C71.7644 73.9659 72.2421 73.8271 72.4326 74.0234C73.3084 74.9265 73.7035 75.8462 74.629 76.7847C73.8936 76.8891 73.0515 77.0661 72.3334 76.9056L72.4081 76.7303C72.3709 75.8438 72.0051 74.7709 71.5129 74.0307Z" fill="#340A40"/>
<path d="M62.3672 74.6627C62.3576 74.5404 62.3669 74.4478 62.3731 74.3259C62.537 74.247 63.7001 74.2656 63.9295 74.2825C66.3994 74.4647 69.0143 73.9053 71.4494 74.0334C70.8574 74.9293 65.1288 74.7213 63.9003 74.7392C63.6381 74.743 62.5869 74.7195 62.3672 74.6627Z" fill="#45148D"/>
<path d="M54.7872 74.041C56.5714 74.062 59.2796 74.3548 60.9146 74.2366C61.3245 74.2601 61.2728 74.1981 61.5728 74.4034C61.8142 74.7943 61.9885 78.0732 61.3203 78.314C59.9061 78.8237 55.6714 79.027 54.5988 77.714C54.3691 77.4326 54.4042 75.9767 54.4748 75.4907C54.5413 74.9262 54.6402 74.5831 54.7872 74.041Z" fill="#FB2582"/>
<path d="M60.9146 74.2368C61.3245 74.2602 61.2728 74.1982 61.5728 74.4035C61.8142 74.7944 61.9885 78.0734 61.3203 78.3142C59.9061 78.8239 55.6714 79.0271 54.5988 77.7142C54.3691 77.4328 54.4042 75.9769 54.4748 75.4909C54.634 77.3198 55.2136 78.0579 57.1941 77.9963C58.184 77.9653 60.9711 78.6255 61.1808 77.2079C61.3072 76.3537 61.3813 75.0101 60.9146 74.2368Z" fill="#FD243C"/>
<path d="M47.1566 73.4473C47.49 73.1494 47.6494 73.1039 48.1523 73.1535C49.7976 73.3161 51.5236 73.6715 53.1593 73.945C53.4096 73.9374 53.4524 73.9539 53.6997 74.0128C53.9728 74.3163 53.7382 76.9894 53.7117 77.6183C51.1161 77.1175 49.7253 77.1637 47.1634 76.0367C46.9771 74.7885 47.2192 74.3976 47.1566 73.4473Z" fill="#221149"/>
<path d="M47.1565 73.4473C47.4899 73.1494 47.6494 73.1039 48.1522 73.1535C49.7976 73.3161 51.5235 73.6715 53.1592 73.945L53.1206 74.1158C52.927 74.296 52.9343 74.3094 52.6222 74.3418C51.8249 74.4241 47.6259 73.8399 47.1565 73.4473Z" fill="#45148D"/>
<path d="M70.4866 43.8212C67.8386 43.9262 65.037 44.3777 63.9673 44.5903L64.068 45.0971C65.2053 44.9295 67.9932 44.5275 70.047 44.2597C72.1008 43.9919 75.2482 44.2208 76.5652 44.3687C75.6423 44.1425 73.1346 43.7162 70.4866 43.8212Z" fill="#340A40"/>
<path d="M40.8687 42.788C43.5167 42.8929 46.3182 43.3445 47.3879 43.5571L47.2872 44.0639C46.15 43.8963 43.362 43.4943 41.3082 43.2265C39.2545 42.9587 36.107 43.1876 34.79 43.3355C35.7129 43.1093 38.2207 42.683 40.8687 42.788Z" fill="#340A40"/>
<path d="M70.0664 41.3139C67.4601 41.7934 64.7509 42.6378 63.7222 43L63.8938 43.4873C64.9957 43.1602 67.6985 42.3668 69.6935 41.8104C71.6885 41.254 74.8366 41.0341 76.1613 40.9937C75.2157 40.9006 72.6728 40.8344 70.0664 41.3139Z" fill="#340A40"/>
<path d="M41.289 40.2812C43.8954 40.7607 46.6045 41.605 47.6333 41.9673L47.4617 42.4546C46.3597 42.1274 43.657 41.334 41.662 40.7777C39.6669 40.2213 36.5188 40.0014 35.1942 39.9609C36.1398 39.8679 38.6827 39.8017 41.289 40.2812Z" fill="#340A40"/>
<path d="M5.0147 17.0992C5.69715 16.9373 6.89117 16.9378 7.4322 17.3743C8.8944 18.5538 10.2113 20.9508 11.2324 22.5018L15.2173 28.5172L25.2423 43.5329C28.0807 47.7332 31.1194 51.8453 33.8083 56.1672C34.4738 57.2366 35.5473 58.5658 36.1119 59.6214C36.7942 59.2002 38.2683 58.5985 39.0557 58.5923C40.204 59.4902 39.3705 61.78 38.9345 62.8718C36.9933 63.1721 35.7871 63.6227 34.4128 65.1374C34.2454 65.4285 33.8283 66.2207 33.6082 66.4015L32.9965 65.9179C30.9644 65.7757 30.9733 66.1638 29.0189 64.8681C27.0803 63.4525 29.5905 62.4981 30.808 62.1309C29.4458 59.9507 28.1982 58.2031 26.7708 56.0921L22.6315 49.8683L9.89689 30.5376L5.66839 24.1319C4.85877 22.9147 3.73749 21.4189 3.15286 20.1125C2.54587 18.756 3.86613 17.5213 5.0147 17.0992Z" fill="#FB2582"/>
<path d="M32.3667 61.4347C30.7483 59.4046 28.5095 55.8184 26.991 53.5459L18.7372 41.2598L9.76576 27.6446C8.22393 25.2912 6.66539 22.9897 5.18986 20.5627C4.36761 19.5357 4.71476 18.1777 6.18367 18.3977C6.93783 18.5107 8.50763 21.269 8.91409 21.8817L13.5767 28.9596C19.6822 38.1276 25.8445 47.2577 32.063 56.3492C32.9085 57.5743 33.6921 58.9751 34.4764 60.0869L34.516 60.1424L34.5384 60.3711C34.2391 60.6294 32.9326 61.0885 32.3667 61.4347Z" fill="#FEFEFE"/>
<path d="M36.1117 59.6219C36.794 59.2007 38.2681 58.599 39.0555 58.5928C40.2038 59.4907 39.3703 61.7805 38.9343 62.8723C36.9931 63.1726 35.7869 63.6231 34.4126 65.1379C34.2452 65.429 33.8281 66.2212 33.608 66.402L32.9963 65.9184C30.9642 65.7762 30.9732 66.1643 29.0187 64.8686C27.0802 63.453 29.5903 62.4986 30.8078 62.1314C31.3582 62.0495 31.8962 61.7216 32.3667 61.4347C32.9326 61.0885 34.239 60.6294 34.5383 60.3711L34.5159 60.1424L34.59 60.0686C34.828 60.101 35.2568 60.0318 35.4786 59.9171C35.7628 59.9484 35.9119 59.7952 36.1117 59.6219Z" fill="#FB2582"/>
<path d="M39.0556 58.5928C40.204 59.4907 39.3704 61.7805 38.9344 62.8723C36.9932 63.1726 35.787 63.6231 34.4127 65.1379C34.2454 65.429 33.8283 66.2212 33.6082 66.402L32.9965 65.9184C30.9643 65.7762 30.9733 66.1643 29.0188 64.8686C29.6972 64.1994 30.9378 64.6444 31.8164 64.3671C34.0191 63.6555 36.2616 62.6188 38.3303 61.5838C38.7291 61.384 38.9554 59.1576 39.0556 58.5928Z" fill="#F40716"/>
<path d="M32.9966 65.9182C33.2473 65.2045 33.744 65.2272 34.4129 65.1377C34.2455 65.4287 33.8284 66.2209 33.6083 66.4017L32.9966 65.9182Z" fill="#B90014"/>
</g>
</g>
<defs>
<linearGradient id="paint0_linear_2505_8462" x1="33.6554" y1="103.636" x2="23.3182" y2="113.688" gradientUnits="userSpaceOnUse">
<stop offset="0.486963" stop-color="#130E65"/>
<stop offset="1" stop-color="#2F47F2"/>
</linearGradient>
<linearGradient id="paint1_linear_2505_8462" x1="102.834" y1="104.21" x2="100.065" y2="105.804" gradientUnits="userSpaceOnUse">
<stop offset="0.196138" stop-color="#130E65"/>
<stop offset="1" stop-color="#2F47F2"/>
</linearGradient>
<linearGradient id="paint2_linear_2505_8462" x1="65.9488" y1="135.176" x2="59.7752" y2="145.523" gradientUnits="userSpaceOnUse">
<stop offset="0.486963" stop-color="#130E65"/>
<stop offset="1" stop-color="#2F47F2"/>
</linearGradient>
<linearGradient id="paint3_linear_2505_8462" x1="36.0646" y1="124.319" x2="38.7365" y2="125.976" gradientUnits="userSpaceOnUse">
<stop offset="0.196138" stop-color="#130E65"/>
<stop offset="1" stop-color="#2F47F2"/>
</linearGradient>
<linearGradient id="paint4_linear_2505_8462" x1="85.7044" y1="117.846" x2="94.3692" y2="123.739" gradientUnits="userSpaceOnUse">
<stop offset="0.196138" stop-color="#130E65"/>
<stop offset="1" stop-color="#2F47F2"/>
</linearGradient>
<linearGradient id="paint5_linear_2505_8462" x1="15.6931" y1="97.3977" x2="109.273" y2="97.3977" gradientUnits="userSpaceOnUse">
<stop stop-color="#4961E3"/>
<stop offset="1" stop-color="#7A53D9"/>
</linearGradient>
<linearGradient id="paint6_linear_2505_8462" x1="16.4075" y1="96.7045" x2="108.558" y2="96.7045" gradientUnits="userSpaceOnUse">
<stop stop-color="#5432A4"/>
<stop offset="1" stop-color="#6543B7"/>
</linearGradient>
<linearGradient id="paint7_linear_2505_8462" x1="34.8637" y1="14.3931" x2="33.7829" y2="14.3557" gradientUnits="userSpaceOnUse">
<stop stop-color="#D71041"/>
<stop offset="1" stop-color="#A90067"/>
</linearGradient>
<linearGradient id="paint8_linear_2505_8462" x1="44.1621" y1="24.5309" x2="39.6146" y2="35.7442" gradientUnits="userSpaceOnUse">
<stop stop-color="#150115"/>
<stop offset="1" stop-color="#360422"/>
</linearGradient>
<linearGradient id="paint9_linear_2505_8462" x1="44.3995" y1="31.3343" x2="38.4202" y2="35.4764" gradientUnits="userSpaceOnUse">
<stop stop-color="#FF9EDE"/>
<stop offset="1" stop-color="#FAC1E1"/>
</linearGradient>
<linearGradient id="paint10_linear_2505_8462" x1="66.9393" y1="22.7084" x2="65.891" y2="33.8633" gradientUnits="userSpaceOnUse">
<stop stop-color="#18031B"/>
<stop offset="1" stop-color="#410A21"/>
</linearGradient>
<clipPath id="clip0_2505_8462">
<rect width="109" height="148" fill="white"/>
</clipPath>
<clipPath id="clip1_2505_8462">
<rect width="105.769" height="97.3077" fill="white" transform="translate(3)"/>
</clipPath>
</defs>
</svg>
