<svg width="16" height="16" viewBox="0 0 16 16" fill="none" xmlns="http://www.w3.org/2000/svg">
<g clip-path="url(#clip0_2287_5652)">
<path d="M8 16C12.4183 16 16 12.4183 16 8C16 3.58172 12.4183 0 8 0C3.58172 0 0 3.58172 0 8C0 12.4183 3.58172 16 8 16Z" fill="#26A17B"/>
<path fill-rule="evenodd" clip-rule="evenodd" d="M8.96099 8.6915V8.6905C8.90599 8.6945 8.62249 8.7115 7.98999 8.7115C7.48499 8.7115 7.12949 8.6965 7.00449 8.6905V8.692C5.06049 8.6065 3.60949 8.268 3.60949 7.863C3.60949 7.458 5.06049 7.12 7.00449 7.033V8.355C7.13149 8.364 7.49549 8.3855 7.99849 8.3855C8.60199 8.3855 8.90449 8.3605 8.96099 8.3555V7.034C10.901 7.1205 12.3485 7.459 12.3485 7.863C12.3485 8.268 10.901 8.6055 8.96099 8.6915ZM8.96099 6.8965V5.7135H11.668V3.9095H4.29749V5.7135H7.00449V6.896C4.80449 6.997 3.14999 7.433 3.14999 7.955C3.14999 8.477 4.80449 8.9125 7.00449 9.014V12.805H8.96099V9.013C11.1575 8.912 12.808 8.4765 12.808 7.955C12.808 7.4335 11.1575 6.998 8.96099 6.8965Z" fill="white"/>
</g>
<defs>
<clipPath id="clip0_2287_5652">
<rect width="16" height="16" fill="white"/>
</clipPath>
</defs>
</svg>
