<svg width="16" height="16" viewBox="0 0 16 16" fill="none" xmlns="http://www.w3.org/2000/svg">
<g clip-path="url(#clip0_2287_5648)">
<circle cx="8" cy="8" r="8" fill="url(#paint0_linear_2287_5648)"/>
<path d="M7.34409 2.92002C7.5203 2.55075 8.04593 2.55075 8.22214 2.92002L9.42071 5.43176C9.49163 5.58037 9.63291 5.68302 9.79616 5.70454L12.5554 6.06826C12.9611 6.12174 13.1235 6.62164 12.8268 6.90334L10.8083 8.81953C10.6888 8.9329 10.6349 9.09898 10.6648 9.26089L11.1716 11.9976C11.2461 12.3999 10.8208 12.7089 10.4612 12.5137L8.01517 11.186C7.87044 11.1074 7.69579 11.1074 7.55105 11.186L5.09104 12.5213C4.73387 12.7151 4.31054 12.4115 4.37961 12.011L4.69951 10.1565C4.72669 9.99887 4.82959 9.86471 4.97475 9.7976L8.05094 8.37547C8.17484 8.31819 8.12488 8.13166 7.98894 8.14397L4.44094 8.46525C4.29436 8.47852 4.14965 8.42472 4.04735 8.31891L2.67132 6.89569C2.39362 6.60848 2.56138 6.1275 2.95746 6.07529L5.77006 5.70454C5.93331 5.68302 6.0746 5.58037 6.14551 5.43176L7.34409 2.92002Z" fill="white"/>
</g>
<defs>
<linearGradient id="paint0_linear_2287_5648" x1="13.5" y1="4" x2="2" y2="13" gradientUnits="userSpaceOnUse">
<stop stop-color="#F751B7"/>
<stop offset="0.519519" stop-color="#736BFD"/>
<stop offset="0.983991" stop-color="#5698F9"/>
</linearGradient>
<clipPath id="clip0_2287_5648">
<rect width="16" height="16" fill="white"/>
</clipPath>
</defs>
</svg>
