<svg width="16" height="16" viewBox="0 0 16 16" fill="none" xmlns="http://www.w3.org/2000/svg">
<g clip-path="url(#clip0_2287_5644)">
<path d="M8 0C12.4183 0 16 3.58172 16 8C16 12.4183 12.4183 16 8 16C3.58172 16 0 12.4183 0 8C0 3.58172 3.58172 0 8 0ZM6.13184 3.5V7.61914H5.25V8.52344H6.13184V9.82715H5.25V10.6797H6.13184V12.5H7.12598V10.6797H9.12598V9.82715H7.12598V8.52344H8.38086C8.76294 8.52603 9.14346 8.4735 9.51074 8.36816C9.84163 8.27377 10.1507 8.1132 10.418 7.89648C10.6778 7.68094 10.8856 7.40942 11.0264 7.10254C11.1749 6.78404 11.25 6.62402 11.25 5.97852C11.2499 5.54839 11.1797 5.17805 11.0391 4.86816C10.8982 4.55886 10.8274 4.40395 10.4551 4.10059C10.2068 3.89826 9.90854 3.74744 9.56055 3.64844C9.21255 3.54944 8.82727 3.5 8.40527 3.5H6.13184ZM8.40527 4.40332C8.9762 4.40332 9.42561 4.52839 9.75293 4.77832C10.0802 5.02791 10.244 5.4281 10.2441 5.97852C10.2441 6.52952 10.0803 6.94156 9.75293 7.21289C9.426 7.48372 8.97667 7.6191 8.40527 7.61914H7.12598V4.40332H8.40527Z" fill="white"/>
</g>
<defs>
<clipPath id="clip0_2287_5644">
<rect width="16" height="16" fill="white"/>
</clipPath>
</defs>
</svg>
