<svg width="16" height="16" viewBox="0 0 16 16" fill="none" xmlns="http://www.w3.org/2000/svg">
<rect width="16" height="16" rx="8" fill="#0098E9"/>
<path d="M13.0129 6.03906L8.3425 13.4764C8.25654 13.6125 8.1217 13.7106 7.96568 13.7505C7.80966 13.7903 7.6443 13.7689 7.50357 13.6907C7.41024 13.6384 7.33143 13.5636 7.27429 13.4732L2.69554 6.03585C2.56725 5.82741 2.49955 5.58738 2.5 5.34263C2.50578 4.9813 2.65467 4.63703 2.91399 4.38534C3.17331 4.13365 3.52188 3.99512 3.88322 4.00013H11.8375C12.5966 4.00013 13.2143 4.59906 13.2143 5.33942C13.2143 5.58585 13.1446 5.82799 13.0123 6.03906M3.81947 5.79049L7.22661 11.0432V5.26067H4.17572C3.82322 5.26067 3.66518 5.49424 3.82 5.79049M8.48714 11.0432L11.8943 5.79049C12.0513 5.49424 11.8905 5.26067 11.538 5.26067H8.48714V11.0432Z" fill="#E6F1FF"/>
</svg>
