<svg width="34" height="42" viewBox="0 0 34 42" fill="none" xmlns="http://www.w3.org/2000/svg">
<path d="M20.4154 7.34961C20.126 7.34977 19.8456 7.45028 19.6219 7.63402C19.3983 7.81775 19.2453 8.07335 19.189 8.35725C19.1326 8.64116 19.1765 8.93581 19.3131 9.19101C19.4496 9.4462 19.6704 9.64615 19.9379 9.75679C20.2054 9.86743 20.5029 9.88191 20.7798 9.79776C21.0568 9.71362 21.296 9.53606 21.4567 9.29533C21.6174 9.0546 21.6896 8.7656 21.6612 8.47757C21.6327 8.18954 21.5052 7.92029 21.3004 7.71571C21.1843 7.59937 21.0464 7.50713 20.8945 7.4443C20.7426 7.38147 20.5798 7.34929 20.4154 7.34961Z" fill="white" fill-opacity="0.4"/>
<path d="M27.3802 2.34646C27.38 2.34506 27.38 2.34364 27.3802 2.34224C27.3406 2.16848 27.2531 2.00926 27.1278 1.88253C27.0025 1.75581 26.8443 1.66663 26.671 1.62505C25.2741 1.28427 23.0766 1.64755 20.6414 2.62255C18.1871 3.60693 15.8874 5.06005 14.333 6.61724C13.8348 7.11284 13.372 7.64273 12.9478 8.20302C11.9011 8.15614 10.9791 8.30521 10.2024 8.64411C7.49582 9.83521 6.72285 12.8835 6.51707 14.135C6.48729 14.3129 6.49895 14.4952 6.55114 14.6678C6.60333 14.8404 6.69464 14.9986 6.81796 15.1301C6.94129 15.2617 7.0933 15.363 7.26217 15.4261C7.43105 15.4893 7.61222 15.5127 7.7916 15.4944H7.79769L10.8127 15.1654C10.8164 15.2038 10.8207 15.239 10.8239 15.2713C10.8627 15.6387 11.0265 15.9816 11.288 16.2426L12.7594 17.7149C13.02 17.9768 13.3628 18.1408 13.7302 18.1794L13.831 18.1902L13.5028 21.2015V21.2076C13.4861 21.3697 13.5033 21.5336 13.5535 21.6887C13.6037 21.8439 13.6857 21.9868 13.7943 22.1085C13.9028 22.2301 14.0356 22.3277 14.1841 22.3951C14.3325 22.4625 14.4934 22.4982 14.6564 22.4999C14.7216 22.5 14.7867 22.4947 14.851 22.484C16.1096 22.2815 19.1564 21.5179 20.3443 18.7968C20.6803 18.0252 20.8289 17.1069 20.7872 16.0621C21.35 15.6389 21.8819 15.176 22.3786 14.6769C23.9457 13.1179 25.4035 10.8369 26.3775 8.41818C27.3474 6.01068 27.7125 3.79677 27.3802 2.34646ZM22.3618 10.544C21.9766 10.9295 21.4857 11.1922 20.9513 11.2987C20.4168 11.4052 19.8628 11.3508 19.3592 11.1424C18.8557 10.934 18.4252 10.5809 18.1224 10.1278C17.8196 9.67472 17.6579 9.14198 17.6579 8.597C17.6579 8.05202 17.8196 7.51929 18.1224 7.0662C18.4252 6.6131 18.8557 6.26001 19.3592 6.05158C19.8628 5.84316 20.4168 5.78877 20.9513 5.8953C21.4857 6.00183 21.9766 6.26449 22.3618 6.65005C22.6199 6.90433 22.8249 7.20741 22.9649 7.54166C23.1048 7.87591 23.1769 8.23465 23.1769 8.597C23.1769 8.95936 23.1048 9.3181 22.9649 9.65235C22.8249 9.9866 22.6199 10.2897 22.3618 10.544Z" fill="white" fill-opacity="0.4"/>
<path d="M12.5907 18.1144C12.4093 18.0919 12.226 18.1364 12.0751 18.2395C11.7756 18.4444 11.4746 18.6469 11.1709 18.8442C10.5563 19.2436 9.82134 18.5423 10.1865 17.9067L10.756 16.9223C10.8375 16.8032 10.8828 16.6632 10.8866 16.5189C10.8904 16.3747 10.8526 16.2324 10.7775 16.1092C10.7025 15.9859 10.5936 15.8869 10.4637 15.824C10.3338 15.7612 10.1886 15.7371 10.0454 15.7547C9.41329 15.8346 8.82573 16.1225 8.37525 16.5731C8.20368 16.7452 7.68197 17.2673 7.40118 19.2572C7.32127 19.8287 7.27089 20.404 7.25025 20.9808C7.24768 21.0809 7.26518 21.1805 7.30172 21.2737C7.33827 21.3669 7.3931 21.4519 7.463 21.5236C7.53291 21.5953 7.61645 21.6522 7.70872 21.6911C7.80099 21.73 7.90012 21.75 8.00025 21.75H8.019C8.59618 21.7295 9.17194 21.6795 9.744 21.6C11.7348 21.3187 12.257 20.7966 12.4285 20.625C12.8812 20.1743 13.1684 19.584 13.2437 18.9497C13.2678 18.7523 13.2125 18.5535 13.0901 18.3969C12.9677 18.2402 12.788 18.1386 12.5907 18.1144Z" fill="white" fill-opacity="0.4"/>
<path d="M4.53711 39.2051C3.75586 39.2051 3.07812 39.0254 2.50391 38.666C1.93359 38.3066 1.49414 37.7969 1.18555 37.1367C0.876953 36.4766 0.722656 35.6914 0.722656 34.7812V34.7695C0.722656 33.8555 0.876953 33.0684 1.18555 32.4082C1.49414 31.748 1.93359 31.2383 2.50391 30.8789C3.07422 30.5195 3.75195 30.3398 4.53711 30.3398C5.1582 30.3398 5.71875 30.4629 6.21875 30.709C6.72266 30.9512 7.13477 31.2871 7.45508 31.7168C7.7793 32.1465 7.97656 32.6406 8.04688 33.1992V33.2344H6.74023L6.73438 33.2109C6.65625 32.8633 6.51367 32.5625 6.30664 32.3086C6.09961 32.0547 5.8457 31.8574 5.54492 31.7168C5.24414 31.5762 4.9082 31.5059 4.53711 31.5059C4.0332 31.5059 3.5957 31.6387 3.22461 31.9043C2.85742 32.1699 2.57227 32.5469 2.36914 33.0352C2.16992 33.5195 2.07031 34.0977 2.07031 34.7695V34.7812C2.07031 35.4453 2.16992 36.0215 2.36914 36.5098C2.57227 36.998 2.85742 37.375 3.22461 37.6406C3.5957 37.9062 4.03516 38.0391 4.54297 38.0391C4.91406 38.0391 5.25 37.9766 5.55078 37.8516C5.85547 37.7266 6.10938 37.5488 6.3125 37.3184C6.51562 37.084 6.6543 36.8086 6.72852 36.4922L6.74023 36.4688H8.05273L8.04688 36.498C7.96484 37.041 7.76562 37.5156 7.44922 37.9219C7.13281 38.3281 6.72656 38.6445 6.23047 38.8711C5.73438 39.0938 5.16992 39.2051 4.53711 39.2051ZM9.62891 39V32.6367H10.9004V33.5977H11C11.1133 33.2578 11.3125 32.9941 11.5977 32.8066C11.8867 32.6191 12.2422 32.5254 12.6641 32.5254C12.7695 32.5254 12.873 32.5312 12.9746 32.543C13.0762 32.5547 13.1582 32.5684 13.2207 32.584V33.7559C13.1074 33.7324 12.9941 33.7148 12.8809 33.7031C12.7715 33.6914 12.6562 33.6855 12.5352 33.6855C12.2109 33.6855 11.9258 33.748 11.6797 33.873C11.4375 33.998 11.2461 34.1738 11.1055 34.4004C10.9688 34.623 10.9004 34.8887 10.9004 35.1973V39H9.62891ZM16.1445 39.1055C15.7422 39.1055 15.3809 39.0293 15.0605 38.877C14.7441 38.7207 14.4941 38.5 14.3105 38.2148C14.127 37.9297 14.0352 37.5957 14.0352 37.2129V37.2012C14.0352 36.8184 14.127 36.4922 14.3105 36.2227C14.498 35.9531 14.7676 35.7422 15.1191 35.5898C15.4746 35.4336 15.9043 35.3398 16.4082 35.3086L18.7578 35.168V36.0645L16.584 36.2051C16.1465 36.2324 15.8242 36.3262 15.6172 36.4863C15.4102 36.6426 15.3066 36.8633 15.3066 37.1484V37.1602C15.3066 37.4492 15.418 37.6777 15.6406 37.8457C15.8633 38.0098 16.1445 38.0918 16.4844 38.0918C16.8008 38.0918 17.082 38.0293 17.3281 37.9043C17.5781 37.7754 17.7734 37.6035 17.9141 37.3887C18.0547 37.1699 18.125 36.9238 18.125 36.6504V34.6465C18.125 34.2949 18.0156 34.0273 17.7969 33.8438C17.582 33.6562 17.2617 33.5625 16.8359 33.5625C16.4805 33.5625 16.1895 33.625 15.9629 33.75C15.7402 33.875 15.5918 34.0508 15.5176 34.2773L15.5059 34.2949H14.2812L14.2871 34.2539C14.3379 33.9023 14.4766 33.5977 14.7031 33.3398C14.9336 33.0781 15.2344 32.875 15.6055 32.7305C15.9805 32.5859 16.4082 32.5137 16.8887 32.5137C17.4238 32.5137 17.877 32.5996 18.248 32.7715C18.623 32.9395 18.9062 33.1836 19.0977 33.5039C19.293 33.8203 19.3906 34.2012 19.3906 34.6465V39H18.125V38.0977H18.0312C17.9062 38.3125 17.75 38.4961 17.5625 38.6484C17.375 38.7969 17.1621 38.9102 16.9238 38.9883C16.6855 39.0664 16.4258 39.1055 16.1445 39.1055ZM23.498 39.123C22.9863 39.123 22.541 39.0488 22.1621 38.9004C21.7832 38.748 21.4824 38.5391 21.2598 38.2734C21.0371 38.0039 20.9062 37.6914 20.8672 37.3359V37.3242H22.1445V37.3359C22.2266 37.5742 22.3828 37.7676 22.6133 37.916C22.8438 38.0645 23.1484 38.1387 23.5273 38.1387C23.7891 38.1387 24.0176 38.1016 24.2129 38.0273C24.4121 37.9531 24.5684 37.8496 24.6816 37.7168C24.7949 37.584 24.8516 37.4316 24.8516 37.2598V37.248C24.8516 37.0488 24.7715 36.8809 24.6113 36.7441C24.4512 36.6074 24.1875 36.4961 23.8203 36.4102L22.8008 36.1758C22.4023 36.0859 22.0723 35.9629 21.8105 35.8066C21.5488 35.6504 21.3555 35.459 21.2305 35.2324C21.1055 35.002 21.043 34.7324 21.043 34.4238V34.418C21.043 34.0469 21.1484 33.7188 21.3594 33.4336C21.5703 33.1445 21.8613 32.9199 22.2324 32.7598C22.6074 32.5957 23.0352 32.5137 23.5156 32.5137C24 32.5137 24.4219 32.5898 24.7812 32.7422C25.1445 32.8906 25.4316 33.0977 25.6426 33.3633C25.8535 33.625 25.9785 33.9297 26.0176 34.2773V34.2832H24.7988V34.2715C24.7402 34.0488 24.5996 33.8633 24.377 33.7148C24.1582 33.5664 23.8691 33.4922 23.5098 33.4922C23.2793 33.4922 23.0742 33.5293 22.8945 33.6035C22.7148 33.6738 22.5723 33.7734 22.4668 33.9023C22.3652 34.0273 22.3145 34.1758 22.3145 34.3477V34.3594C22.3145 34.4922 22.3477 34.6094 22.4141 34.7109C22.4844 34.8086 22.5938 34.8965 22.7422 34.9746C22.8906 35.0488 23.082 35.1152 23.3164 35.1738L24.3301 35.4023C24.9395 35.5469 25.3926 35.7559 25.6895 36.0293C25.9902 36.3027 26.1406 36.6699 26.1406 37.1309V37.1426C26.1406 37.5332 26.0254 37.8789 25.7949 38.1797C25.5645 38.4766 25.25 38.709 24.8516 38.877C24.457 39.041 24.0059 39.123 23.498 39.123ZM27.7109 39V30.1406H28.9824V33.5977H29.082C29.2383 33.2578 29.4688 32.9922 29.7734 32.8008C30.0781 32.6094 30.4629 32.5137 30.9277 32.5137C31.4004 32.5137 31.8008 32.6055 32.1289 32.7891C32.457 32.9727 32.707 33.2422 32.8789 33.5977C33.0508 33.9492 33.1367 34.377 33.1367 34.8809V39H31.8594V35.1797C31.8594 34.6484 31.748 34.2539 31.5254 33.9961C31.3066 33.7344 30.9629 33.6035 30.4941 33.6035C30.1855 33.6035 29.918 33.6719 29.6914 33.8086C29.4648 33.9414 29.2891 34.1328 29.1641 34.3828C29.043 34.6289 28.9824 34.9238 28.9824 35.2676V39H27.7109Z" fill="white" fill-opacity="0.4"/>
</svg>
