<svg width="40" height="44" viewBox="0 0 40 44" fill="none" xmlns="http://www.w3.org/2000/svg">
<path d="M23.4154 7.34961C23.126 7.34977 22.8456 7.45028 22.6219 7.63402C22.3983 7.81775 22.2453 8.07335 22.189 8.35725C22.1326 8.64116 22.1765 8.93581 22.3131 9.19101C22.4496 9.4462 22.6704 9.64615 22.9379 9.75679C23.2054 9.86743 23.5029 9.88191 23.7798 9.79776C24.0568 9.71362 24.296 9.53606 24.4567 9.29533C24.6174 9.0546 24.6896 8.7656 24.6612 8.47757C24.6327 8.18954 24.5052 7.92029 24.3004 7.71571C24.1843 7.59937 24.0464 7.50713 23.8945 7.4443C23.7426 7.38147 23.5798 7.34929 23.4154 7.34961Z" fill="url(#paint0_radial_2416_2330)"/>
<path d="M30.3802 2.34646C30.38 2.34506 30.38 2.34364 30.3802 2.34224C30.3406 2.16848 30.2531 2.00926 30.1278 1.88253C30.0025 1.75581 29.8443 1.66663 29.671 1.62505C28.2741 1.28427 26.0766 1.64755 23.6414 2.62255C21.1871 3.60693 18.8874 5.06005 17.333 6.61724C16.8348 7.11284 16.372 7.64273 15.9478 8.20302C14.9011 8.15614 13.9791 8.30521 13.2024 8.64411C10.4958 9.83521 9.72285 12.8835 9.51707 14.135C9.48729 14.3129 9.49895 14.4952 9.55114 14.6678C9.60333 14.8404 9.69464 14.9986 9.81796 15.1301C9.94129 15.2617 10.0933 15.363 10.2622 15.4261C10.431 15.4893 10.6122 15.5127 10.7916 15.4944H10.7977L13.8127 15.1654C13.8164 15.2038 13.8207 15.239 13.8239 15.2713C13.8627 15.6387 14.0265 15.9816 14.288 16.2426L15.7594 17.7149C16.02 17.9768 16.3628 18.1408 16.7302 18.1794L16.831 18.1902L16.5028 21.2015V21.2076C16.4861 21.3697 16.5033 21.5336 16.5535 21.6887C16.6037 21.8439 16.6857 21.9868 16.7943 22.1085C16.9028 22.2301 17.0356 22.3277 17.1841 22.3951C17.3325 22.4625 17.4934 22.4982 17.6564 22.4999C17.7216 22.5 17.7867 22.4947 17.851 22.484C19.1096 22.2815 22.1564 21.5179 23.3443 18.7968C23.6803 18.0252 23.8289 17.1069 23.7872 16.0621C24.35 15.6389 24.8819 15.176 25.3786 14.6769C26.9457 13.1179 28.4035 10.8369 29.3775 8.41818C30.3474 6.01068 30.7125 3.79677 30.3802 2.34646ZM25.3618 10.544C24.9766 10.9295 24.4857 11.1922 23.9513 11.2987C23.4168 11.4052 22.8628 11.3508 22.3592 11.1424C21.8557 10.934 21.4252 10.5809 21.1224 10.1278C20.8196 9.67472 20.6579 9.14198 20.6579 8.597C20.6579 8.05202 20.8196 7.51929 21.1224 7.0662C21.4252 6.6131 21.8557 6.26001 22.3592 6.05158C22.8628 5.84316 23.4168 5.78877 23.9513 5.8953C24.4857 6.00183 24.9766 6.26449 25.3618 6.65005C25.6199 6.90433 25.8249 7.20741 25.9649 7.54166C26.1048 7.87591 26.1769 8.23465 26.1769 8.597C26.1769 8.95936 26.1048 9.3181 25.9649 9.65235C25.8249 9.9866 25.6199 10.2897 25.3618 10.544Z" fill="url(#paint1_radial_2416_2330)"/>
<path d="M15.5907 18.1144C15.4093 18.0919 15.226 18.1364 15.0751 18.2396C14.7756 18.4444 14.4746 18.6469 14.1709 18.8443C13.5563 19.2437 12.8213 18.5424 13.1865 17.9068L13.756 16.9224C13.8375 16.8033 13.8828 16.6632 13.8866 16.519C13.8904 16.3748 13.8526 16.2325 13.7775 16.1092C13.7025 15.986 13.5936 15.887 13.4637 15.8241C13.3338 15.7612 13.1886 15.7371 13.0454 15.7547C12.4133 15.8347 11.8257 16.1226 11.3752 16.5732C11.2037 16.7452 10.682 17.2674 10.4012 19.2572C10.3213 19.8288 10.2709 20.4041 10.2502 20.9808C10.2477 21.0809 10.2652 21.1805 10.3017 21.2738C10.3383 21.367 10.3931 21.4519 10.463 21.5236C10.5329 21.5953 10.6165 21.6523 10.7087 21.6912C10.801 21.7301 10.9001 21.7501 11.0002 21.7501H11.019C11.5962 21.7296 12.1719 21.6795 12.744 21.6001C14.7348 21.3188 15.257 20.7966 15.4285 20.6251C15.8812 20.1744 16.1684 19.584 16.2437 18.9497C16.2678 18.7524 16.2125 18.5536 16.0901 18.3969C15.9677 18.2403 15.788 18.1387 15.5907 18.1144Z" fill="url(#paint2_radial_2416_2330)"/>
<path d="M5.19092 41.2476C4.27686 41.2476 3.48763 41.0529 2.82324 40.6636C2.16309 40.2743 1.65316 39.7199 1.29346 39.0005C0.937988 38.2769 0.760254 37.4178 0.760254 36.4233V36.4106C0.760254 35.4162 0.937988 34.5592 1.29346 33.8398C1.65316 33.1204 2.16309 32.5661 2.82324 32.1768C3.4834 31.7874 4.27262 31.5928 5.19092 31.5928C5.9611 31.5928 6.64665 31.7451 7.24756 32.0498C7.8527 32.3503 8.33724 32.765 8.70117 33.2939C9.0651 33.8187 9.26823 34.4196 9.31055 35.0967L9.31689 35.2109H7.06982L7.06348 35.1538C7.02116 34.8364 6.91536 34.555 6.74609 34.3096C6.57682 34.0641 6.35889 33.8716 6.09229 33.7319C5.82568 33.5923 5.52523 33.5225 5.19092 33.5225C4.76774 33.5225 4.40169 33.6388 4.09277 33.8716C3.78809 34.1043 3.55111 34.4365 3.38184 34.8682C3.2168 35.2956 3.13428 35.8076 3.13428 36.4043V36.417C3.13428 37.0137 3.2168 37.5299 3.38184 37.9658C3.55111 38.3975 3.78809 38.7318 4.09277 38.9688C4.40169 39.2015 4.76986 39.3179 5.19727 39.3179C5.53581 39.3179 5.83415 39.2523 6.09229 39.1211C6.35465 38.9899 6.56836 38.8058 6.7334 38.5688C6.90267 38.3319 7.0127 38.0568 7.06348 37.7437L7.07617 37.6675H9.32324L9.31689 37.7754C9.26611 38.4567 9.06087 39.0576 8.70117 39.5781C8.3457 40.0986 7.86751 40.507 7.2666 40.8032C6.66992 41.0994 5.97803 41.2476 5.19092 41.2476ZM10.7959 41V33.9351H13.0493V35.0586H13.1699C13.2757 34.6693 13.4767 34.3667 13.7729 34.1509C14.0734 33.9351 14.4479 33.8271 14.8965 33.8271C15.0361 33.8271 15.1715 33.8377 15.3027 33.8589C15.4339 33.8758 15.5545 33.9033 15.6646 33.9414V35.8457C15.5164 35.8034 15.362 35.7716 15.2012 35.7505C15.0404 35.7293 14.8817 35.7188 14.7251 35.7188C14.3739 35.7188 14.0734 35.7801 13.8237 35.9028C13.5741 36.0213 13.3815 36.1969 13.2461 36.4297C13.1149 36.6582 13.0493 36.9375 13.0493 37.2676V41H10.7959ZM18.5591 41.1079C18.1105 41.1079 17.7148 41.019 17.3721 40.8413C17.0293 40.6636 16.7606 40.416 16.5659 40.0986C16.3755 39.777 16.2803 39.4025 16.2803 38.9751V38.9624C16.2803 38.535 16.3882 38.1689 16.604 37.8643C16.8241 37.5553 17.1436 37.3141 17.5625 37.1406C17.9857 36.9671 18.4998 36.8613 19.105 36.8232L21.752 36.6646V37.9277L19.4604 38.0737C19.1304 38.0949 18.8786 38.1689 18.7051 38.2959C18.5316 38.4229 18.4448 38.5921 18.4448 38.8037V38.8164C18.4448 39.0365 18.5316 39.2121 18.7051 39.3433C18.8786 39.4744 19.1071 39.54 19.3906 39.54C19.6276 39.54 19.8392 39.4935 20.0254 39.4004C20.2158 39.3031 20.366 39.174 20.4761 39.0132C20.5903 38.8481 20.6475 38.6641 20.6475 38.4609V36.1821C20.6475 35.9409 20.5607 35.7547 20.3872 35.6235C20.2179 35.4881 19.9788 35.4204 19.6699 35.4204C19.3737 35.4204 19.1346 35.4691 18.9526 35.5664C18.7749 35.6637 18.6522 35.7992 18.5845 35.9727L18.5718 36.0044H16.5342L16.5405 35.9282C16.5828 35.4924 16.7394 35.1136 17.0103 34.792C17.2853 34.4704 17.6598 34.2207 18.1338 34.043C18.6077 33.861 19.1621 33.77 19.7969 33.77C20.4528 33.77 21.0072 33.8652 21.46 34.0557C21.917 34.2461 22.264 34.5212 22.501 34.8809C22.738 35.2406 22.8564 35.6743 22.8564 36.1821V41H20.6475V40.124H20.5269C20.4211 40.3229 20.2708 40.4964 20.0762 40.6445C19.8857 40.7926 19.6593 40.9069 19.397 40.9873C19.1388 41.0677 18.8595 41.1079 18.5591 41.1079ZM27.5791 41.165C26.8809 41.165 26.2926 41.0719 25.8145 40.8857C25.3363 40.6995 24.966 40.4435 24.7036 40.1177C24.4455 39.7918 24.2931 39.4237 24.2466 39.0132V38.9751H26.4365L26.4492 39.0132C26.5169 39.1909 26.6418 39.3411 26.8237 39.4639C27.0057 39.5866 27.2596 39.6479 27.5854 39.6479C27.7886 39.6479 27.9642 39.6226 28.1123 39.5718C28.2604 39.521 28.3747 39.4512 28.4551 39.3623C28.5355 39.2692 28.5757 39.1592 28.5757 39.0322V39.0259C28.5757 38.8608 28.508 38.7275 28.3726 38.626C28.2414 38.5244 28.015 38.4419 27.6934 38.3784L26.4746 38.1309C26.0218 38.0378 25.641 37.8981 25.332 37.7119C25.0273 37.5257 24.7967 37.2951 24.6401 37.02C24.4878 36.7407 24.4116 36.4233 24.4116 36.0679V36.0615C24.4116 35.5876 24.5386 35.1813 24.7925 34.8428C25.0464 34.5 25.4061 34.2355 25.8716 34.0493C26.3371 33.8631 26.8851 33.77 27.5156 33.77C28.1969 33.77 28.7661 33.8716 29.2231 34.0747C29.6844 34.2736 30.0314 34.536 30.2642 34.8618C30.4969 35.1834 30.6196 35.5347 30.6323 35.9155V35.9473H28.5693L28.5566 35.9028C28.5186 35.7547 28.4128 35.6151 28.2393 35.4839C28.0658 35.3485 27.8245 35.2808 27.5156 35.2808C27.3337 35.2808 27.1707 35.3062 27.0269 35.3569C26.8872 35.4077 26.7772 35.4797 26.6968 35.5728C26.6206 35.6659 26.5825 35.778 26.5825 35.9092V35.9219C26.5825 36.0277 26.61 36.1208 26.665 36.2012C26.7201 36.2773 26.811 36.3451 26.938 36.4043C27.0692 36.4593 27.2469 36.5101 27.4712 36.5566L28.6899 36.8042C29.422 36.9523 29.9595 37.1829 30.3022 37.4961C30.645 37.805 30.8164 38.224 30.8164 38.7529V38.7593C30.8164 39.2459 30.6789 39.6712 30.4038 40.0352C30.133 40.3949 29.7542 40.6742 29.2676 40.873C28.7809 41.0677 28.2181 41.165 27.5791 41.165ZM32.3018 41V31.2817H34.5552V35.0396H34.6758C34.8324 34.6545 35.082 34.3477 35.4248 34.1191C35.7718 33.8864 36.195 33.77 36.6943 33.77C37.2148 33.77 37.6507 33.8758 38.002 34.0874C38.3574 34.2948 38.6261 34.5973 38.8081 34.9951C38.9901 35.3887 39.0811 35.869 39.0811 36.436V41H36.8276V36.9375C36.8276 36.5101 36.7367 36.1821 36.5547 35.9536C36.377 35.7209 36.0977 35.6045 35.7168 35.6045C35.4756 35.6045 35.2682 35.6616 35.0947 35.7759C34.9212 35.8901 34.7879 36.0488 34.6948 36.252C34.6017 36.4551 34.5552 36.6921 34.5552 36.9629V41H32.3018Z" fill="url(#paint3_radial_2416_2330)"/>
<defs>
<radialGradient id="paint0_radial_2416_2330" cx="0" cy="0" r="1" gradientUnits="userSpaceOnUse" gradientTransform="translate(23.4161 8.6007) rotate(90) scale(1.32929 1.5105)">
<stop stop-color="#BBFD44"/>
<stop offset="0.934548" stop-color="#72C004"/>
</radialGradient>
<radialGradient id="paint1_radial_2416_2330" cx="0" cy="0" r="1" gradientUnits="userSpaceOnUse" gradientTransform="translate(20.0006 11.9999) rotate(90) scale(11.1562 12.6767)">
<stop stop-color="#BBFD44"/>
<stop offset="0.934548" stop-color="#72C004"/>
</radialGradient>
<radialGradient id="paint2_radial_2416_2330" cx="0" cy="0" r="1" gradientUnits="userSpaceOnUse" gradientTransform="translate(13.2496 18.7496) rotate(90) scale(3.18798 3.62156)">
<stop stop-color="#BBFD44"/>
<stop offset="0.934548" stop-color="#72C004"/>
</radialGradient>
<radialGradient id="paint3_radial_2416_2330" cx="0" cy="0" r="1" gradientUnits="userSpaceOnUse" gradientTransform="translate(20 36) rotate(90) scale(8.5 24.1469)">
<stop stop-color="#BBFD44"/>
<stop offset="0.934548" stop-color="#72C004"/>
</radialGradient>
</defs>
</svg>
