<svg width="62" height="20" viewBox="0 0 62 20" fill="none" xmlns="http://www.w3.org/2000/svg">
<path d="M4.17702 14.0341C2.83828 14.0341 1.80744 13.6024 1.08452 12.7389C0.361592 11.8754 0.0001297 10.6069 0.0001297 8.93351C0.0001297 7.26677 0.482079 5.95145 1.44598 4.98755C2.3898 4.04373 3.65491 3.57182 5.24133 3.57182C6.83444 3.57182 8.13972 3.9199 9.15717 4.61605V14.8575C9.15717 15.8548 8.7522 16.628 7.94225 17.1769C7.13231 17.7257 6.06801 18.0002 4.74934 18.0002C3.43737 18.0002 2.28604 17.8362 1.29537 17.5082C1.16149 17.1936 1.09456 16.8991 1.09456 16.6246C1.09456 15.7477 1.23847 15.1051 1.5263 14.6968C2.45673 15.0918 3.43737 15.2892 4.4682 15.2892C5.2179 15.2892 5.59275 15.0215 5.59275 14.486V13.8735C4.96354 13.9806 4.49163 14.0341 4.17702 14.0341ZM5.12084 6.91535C4.2038 6.91535 3.74528 7.60815 3.74528 8.99375C3.74528 9.84386 3.92266 10.4061 4.27743 10.6806C4.62551 10.9416 5.06395 11.0119 5.59275 10.8914V6.98563C5.40533 6.93878 5.24802 6.91535 5.12084 6.91535Z" fill="url(#paint0_linear_2287_5506)"/>
<path d="M14.7799 14.0341C13.4412 14.0341 12.4103 13.6024 11.6874 12.7389C10.9645 11.8754 10.603 10.6069 10.603 8.93351C10.603 7.26677 11.085 5.95145 12.0489 4.98755C12.9927 4.04373 14.2578 3.57182 15.8442 3.57182C17.4373 3.57182 18.7426 3.9199 19.7601 4.61605V14.8575C19.7601 15.8548 19.3551 16.628 18.5451 17.1769C17.7352 17.7257 16.6709 18.0002 15.3522 18.0002C14.0403 18.0002 12.8889 17.8362 11.8983 17.5082C11.7644 17.1936 11.6974 16.8991 11.6974 16.6246C11.6974 15.7477 11.8414 15.1051 12.1292 14.6968C13.0596 15.0918 14.0403 15.2892 15.0711 15.2892C15.8208 15.2892 16.1956 15.0215 16.1956 14.486V13.8735C15.5664 13.9806 15.0945 14.0341 14.7799 14.0341ZM15.7237 6.91535C14.8067 6.91535 14.3482 7.60815 14.3482 8.99375C14.3482 9.84386 14.5256 10.4061 14.8803 10.6806C15.2284 10.9416 15.6668 11.0119 16.1956 10.8914V6.98563C16.0082 6.93878 15.8509 6.91535 15.7237 6.91535Z" fill="url(#paint1_linear_2287_5506)"/>
<path d="M27.6908 0C28.6881 0 29.5717 0.137222 30.3415 0.411665C31.0979 0.699496 31.4761 1.08439 31.4761 1.56634C31.4761 2.0349 31.2987 2.62395 30.9439 3.33348C30.5825 4.04302 30.2745 4.39779 30.0202 4.39779C29.9867 4.39779 29.9432 4.38105 29.8897 4.34759C29.8428 4.31412 29.7558 4.26726 29.6286 4.20702C29.5081 4.14008 29.3575 4.07984 29.1768 4.02629C28.8421 3.94596 28.5609 3.9058 28.3334 3.9058C27.5167 3.9058 26.8674 4.19698 26.3855 4.77933C25.9102 5.35499 25.6726 6.20175 25.6726 7.31961C25.6726 8.44416 25.9136 9.29761 26.3955 9.87996C26.8842 10.4623 27.5301 10.7535 28.3334 10.7535C28.6814 10.7535 29.0429 10.7066 29.4177 10.6129C29.7993 10.5192 30.067 10.3954 30.221 10.2414C30.3482 10.1142 30.5624 10.2515 30.8636 10.6531C31.0845 10.9476 31.2886 11.3526 31.4761 11.868C31.6702 12.4169 31.7672 12.8051 31.7672 13.0327C31.7672 13.5682 31.3556 13.9933 30.5323 14.3079C29.7022 14.6225 28.7283 14.7798 27.6104 14.7798C25.8098 14.7798 24.3238 14.1439 23.1524 12.8721C21.981 11.6003 21.3953 9.79629 21.3953 7.46018C21.3953 5.15083 22.0011 3.33014 23.2126 1.99808C24.4041 0.666027 25.8968 0 27.6908 0Z" fill="url(#paint2_linear_2287_5506)"/>
<path d="M43.0027 14.6191C41.8112 14.6191 41.1653 14.4284 41.0649 14.0468L40.3921 11.3961H37.1189L36.5265 13.9464C36.4462 14.3681 35.7868 14.579 34.5485 14.579C34.1469 14.579 33.7888 14.5589 33.4742 14.5187C33.1662 14.4786 32.9453 14.4384 32.8115 14.3982C32.6843 14.3581 32.6207 14.3213 32.6207 14.2878L36.2554 0.371503C36.2554 0.257709 37.1959 0.200812 39.0768 0.200812C40.9511 0.200812 41.8882 0.257709 41.8882 0.371503L45.4526 14.3079C45.4526 14.4016 45.1347 14.4786 44.4987 14.5388C43.9365 14.5924 43.4378 14.6191 43.0027 14.6191ZM38.7455 4.52832L37.631 8.7755H39.7897L38.866 4.52832H38.7455Z" fill="url(#paint3_linear_2287_5506)"/>
<path d="M52.481 3.92588V14.2476C52.481 14.5221 51.8016 14.6593 50.4428 14.6593C49.084 14.6593 48.4045 14.5221 48.4045 14.2476V3.92588H45.9446C45.7103 3.92588 45.543 3.61127 45.4426 2.98206C45.3622 2.36624 45.3622 1.75041 45.4426 1.13459C45.543 0.498684 45.7103 0.180731 45.9446 0.180731H54.8807C55.115 0.180731 55.2824 0.498684 55.3828 1.13459C55.4631 1.75041 55.4631 2.36624 55.3828 2.98206C55.2824 3.61127 55.115 3.92588 54.8807 3.92588H52.481Z" fill="url(#paint4_linear_2287_5506)"/>
<defs>
<linearGradient id="paint0_linear_2287_5506" x1="10.0001" y1="9.50005" x2="10.0001" y2="13.5" gradientUnits="userSpaceOnUse">
<stop stop-color="#BBFD44"/>
<stop offset="0.4863" stop-color="#72C004"/>
</linearGradient>
<linearGradient id="paint1_linear_2287_5506" x1="10.0001" y1="9.50005" x2="10.0001" y2="13.5" gradientUnits="userSpaceOnUse">
<stop stop-color="#BBFD44"/>
<stop offset="0.4863" stop-color="#72C004"/>
</linearGradient>
<linearGradient id="paint2_linear_2287_5506" x1="38.626" y1="6.07261" x2="38.626" y2="10.17" gradientUnits="userSpaceOnUse">
<stop stop-color="#8A38F5"/>
<stop offset="0.4863" stop-color="#A07BFF"/>
</linearGradient>
<linearGradient id="paint3_linear_2287_5506" x1="38.626" y1="6.07261" x2="38.626" y2="10.17" gradientUnits="userSpaceOnUse">
<stop stop-color="#8A38F5"/>
<stop offset="0.4863" stop-color="#A07BFF"/>
</linearGradient>
<linearGradient id="paint4_linear_2287_5506" x1="38.626" y1="6.07261" x2="38.626" y2="10.17" gradientUnits="userSpaceOnUse">
<stop stop-color="#8A38F5"/>
<stop offset="0.4863" stop-color="#A07BFF"/>
</linearGradient>
</defs>
</svg>
