<svg width="24" height="24" viewBox="0 0 24 24" fill="none" xmlns="http://www.w3.org/2000/svg">
<path d="M19.05 21.5999L16.125 18.6999L14.625 20.1999C14.4417 20.3832 14.2083 20.4749 13.925 20.4749C13.6417 20.4749 13.4083 20.3832 13.225 20.1999C12.8417 19.8166 12.65 19.3416 12.65 18.7749C12.65 18.2082 12.8417 17.7332 13.225 17.3499L17.45 13.1249C17.8333 12.7416 18.3083 12.5499 18.875 12.5499C19.4417 12.5499 19.9167 12.7416 20.3 13.1249C20.4833 13.3082 20.575 13.5416 20.575 13.8249C20.575 14.1082 20.4833 14.3416 20.3 14.5249L18.8 16.0249L21.7 18.9499C21.9 19.1499 22 19.3832 22 19.6499C22 19.9166 21.9 20.1499 21.7 20.3499L20.45 21.5999C20.25 21.7999 20.0167 21.8999 19.75 21.8999C19.4833 21.8999 19.25 21.7999 19.05 21.5999ZM21.7 6.1999L10.65 17.2499L10.775 17.3499C11.1583 17.7332 11.35 18.2082 11.35 18.7749C11.35 19.3416 11.1583 19.8166 10.775 20.1999C10.5917 20.3832 10.3583 20.4749 10.075 20.4749C9.79167 20.4749 9.55833 20.3832 9.375 20.1999L7.875 18.6999L4.95 21.5999C4.75 21.7999 4.51667 21.8999 4.25 21.8999C3.98333 21.8999 3.75 21.7999 3.55 21.5999L2.3 20.3499C2.1 20.1499 2 19.9166 2 19.6499C2 19.3832 2.1 19.1499 2.3 18.9499L5.2 16.0249L3.7 14.5249C3.51667 14.3416 3.425 14.1082 3.425 13.8249C3.425 13.5416 3.51667 13.3082 3.7 13.1249C4.08333 12.7416 4.55833 12.5499 5.125 12.5499C5.69167 12.5499 6.16667 12.7416 6.55 13.1249L6.65 13.2499L17.425 2.4749C17.6083 2.29157 17.821 2.1499 18.063 2.0499C18.305 1.9499 18.559 1.8999 18.825 1.8999H21C21.2833 1.8999 21.521 1.9959 21.713 2.1879C21.905 2.3799 22.0007 2.61724 22 2.8999V5.4749C22 5.60824 21.975 5.73757 21.925 5.8629C21.875 5.98824 21.8 6.10057 21.7 6.1999ZM6.225 10.1249L2.575 6.4749C2.39167 6.29157 2.25 6.07924 2.15 5.8379C2.05 5.59657 2 5.34224 2 5.0749V2.8999C2 2.61657 2.096 2.37924 2.288 2.1879C2.48 1.99657 2.71733 1.90057 3 1.8999H5.175C5.44167 1.8999 5.696 1.9499 5.938 2.0499C6.18 2.1499 6.39233 2.29157 6.575 2.4749L10.225 6.1249C10.425 6.3249 10.525 6.56257 10.525 6.8379C10.525 7.11324 10.425 7.35057 10.225 7.5499L7.65 10.1249C7.45 10.3249 7.21267 10.4249 6.938 10.4249C6.66333 10.4249 6.42567 10.3249 6.225 10.1249Z" fill="url(#paint0_radial_2595_3875)"/>
<defs>
<radialGradient id="paint0_radial_2595_3875" cx="0" cy="0" r="1" gradientUnits="userSpaceOnUse" gradientTransform="translate(12 11.8999) rotate(90) scale(10.625 12.0734)">
<stop stop-color="#BBFD44"/>
<stop offset="0.934548" stop-color="#72C004"/>
</radialGradient>
</defs>
</svg>
