<svg width="24" height="24" viewBox="0 0 24 24" fill="none" xmlns="http://www.w3.org/2000/svg">
<path d="M19.05 21.6L16.125 18.7L14.625 20.2C14.4417 20.3834 14.2083 20.475 13.925 20.475C13.6417 20.475 13.4083 20.3834 13.225 20.2C12.8417 19.8167 12.65 19.3417 12.65 18.775C12.65 18.2084 12.8417 17.7334 13.225 17.35L17.45 13.125C17.8333 12.7417 18.3083 12.55 18.875 12.55C19.4417 12.55 19.9167 12.7417 20.3 13.125C20.4833 13.3084 20.575 13.5417 20.575 13.825C20.575 14.1084 20.4833 14.3417 20.3 14.525L18.8 16.025L21.7 18.95C21.9 19.15 22 19.3834 22 19.65C22 19.9167 21.9 20.15 21.7 20.35L20.45 21.6C20.25 21.8 20.0167 21.9 19.75 21.9C19.4833 21.9 19.25 21.8 19.05 21.6ZM21.7 6.20002L10.65 17.25L10.775 17.35C11.1583 17.7334 11.35 18.2084 11.35 18.775C11.35 19.3417 11.1583 19.8167 10.775 20.2C10.5917 20.3834 10.3583 20.475 10.075 20.475C9.79167 20.475 9.55833 20.3834 9.375 20.2L7.875 18.7L4.95 21.6C4.75 21.8 4.51667 21.9 4.25 21.9C3.98333 21.9 3.75 21.8 3.55 21.6L2.3 20.35C2.1 20.15 2 19.9167 2 19.65C2 19.3834 2.1 19.15 2.3 18.95L5.2 16.025L3.7 14.525C3.51667 14.3417 3.425 14.1084 3.425 13.825C3.425 13.5417 3.51667 13.3084 3.7 13.125C4.08333 12.7417 4.55833 12.55 5.125 12.55C5.69167 12.55 6.16667 12.7417 6.55 13.125L6.65 13.25L17.425 2.47502C17.6083 2.29169 17.821 2.15002 18.063 2.05002C18.305 1.95002 18.559 1.90002 18.825 1.90002H21C21.2833 1.90002 21.521 1.99602 21.713 2.18802C21.905 2.38002 22.0007 2.61736 22 2.90002V5.47502C22 5.60836 21.975 5.73769 21.925 5.86302C21.875 5.98836 21.8 6.10069 21.7 6.20002ZM6.225 10.125L2.575 6.47502C2.39167 6.29169 2.25 6.07936 2.15 5.83802C2.05 5.59669 2 5.34236 2 5.07502V2.90002C2 2.61669 2.096 2.37936 2.288 2.18802C2.48 1.99669 2.71733 1.90069 3 1.90002H5.175C5.44167 1.90002 5.696 1.95002 5.938 2.05002C6.18 2.15002 6.39233 2.29169 6.575 2.47502L10.225 6.12502C10.425 6.32502 10.525 6.56269 10.525 6.83802C10.525 7.11336 10.425 7.35069 10.225 7.55002L7.65 10.125C7.45 10.325 7.21267 10.425 6.938 10.425C6.66333 10.425 6.42567 10.325 6.225 10.125Z" fill="white" fill-opacity="0.4"/>
</svg>
