<svg width="32" height="32" viewBox="0 0 32 32" fill="none" xmlns="http://www.w3.org/2000/svg">
<path d="M12.0797 2.5733C9.55968 2.55996 7.10634 4.98663 8.22634 7.99996H3.99967C3.29243 7.99996 2.61415 8.28092 2.11406 8.78101C1.61396 9.28111 1.33301 9.95939 1.33301 10.6666V13.3333C1.33301 13.6869 1.47348 14.0261 1.72353 14.2761C1.97358 14.5262 2.31272 14.6666 2.66634 14.6666H14.6663V10.6666H17.333V14.6666H29.333C29.6866 14.6666 30.0258 14.5262 30.2758 14.2761C30.5259 14.0261 30.6663 13.6869 30.6663 13.3333V10.6666C30.6663 9.95939 30.3854 9.28111 29.8853 8.78101C29.3852 8.28092 28.7069 7.99996 27.9997 7.99996H23.773C25.333 3.63996 19.4663 0.559964 16.7597 4.31996L15.9997 5.3333L15.2397 4.2933C14.3997 3.10663 13.2397 2.58663 12.0797 2.5733ZM11.9997 5.3333C13.1863 5.3333 13.7863 6.7733 12.9463 7.6133C12.1063 8.4533 10.6663 7.8533 10.6663 6.66663C10.6663 6.31301 10.8068 5.97387 11.0569 5.72382C11.3069 5.47377 11.6461 5.3333 11.9997 5.3333ZM19.9997 5.3333C21.1863 5.3333 21.7863 6.7733 20.9463 7.6133C20.1063 8.4533 18.6663 7.8533 18.6663 6.66663C18.6663 6.31301 18.8068 5.97387 19.0569 5.72382C19.3069 5.47377 19.6461 5.3333 19.9997 5.3333ZM2.66634 16V26.6666C2.66634 27.3739 2.94729 28.0522 3.44739 28.5522C3.94749 29.0523 4.62576 29.3333 5.33301 29.3333H26.6663C27.3736 29.3333 28.0519 29.0523 28.552 28.5522C29.0521 28.0522 29.333 27.3739 29.333 26.6666V16H17.333V26.6666H14.6663V16H2.66634Z" fill="#291E42"/>
</svg>
