<svg width="24" height="24" viewBox="0 0 24 24" fill="none" xmlns="http://www.w3.org/2000/svg">
<path fill-rule="evenodd" clip-rule="evenodd" d="M21 9L18.75 6.75L13.59 1.59L12 0L10.41 1.59L5.25 6.75L3 9H7.5V19.5H16.5V9H21ZM8.625 21.75C8.32663 21.75 8.04048 21.8685 7.8295 22.0795C7.61853 22.2905 7.5 22.5766 7.5 22.875C7.5 23.1734 7.61853 23.4595 7.8295 23.6705C8.04048 23.8815 8.32663 24 8.625 24H15.375C15.6734 24 15.9595 23.8815 16.1705 23.6705C16.3815 23.4595 16.5 23.1734 16.5 22.875C16.5 22.5766 16.3815 22.2905 16.1705 22.0795C15.9595 21.8685 15.6734 21.75 15.375 21.75H8.625Z" fill="#BBFD44"/>
</svg>
