<svg width="29" height="33" viewBox="0 0 29 33" fill="none" xmlns="http://www.w3.org/2000/svg">
<path d="M20.9007 0.00602628C21.2881 -0.030569 21.7281 0.10137 22.0241 0.351102C22.8831 1.07608 23.1192 2.35286 23.2402 3.40497C25.0583 3.46944 26.2172 5.4313 25.7562 7.10823C25.4152 8.34838 24.5684 9.1145 23.5018 9.7495C24.3562 9.96955 25.2413 10.123 26.0971 10.3441C26.5114 10.4701 27.0726 10.5196 27.4475 10.7428C28.7448 11.5151 28.3093 12.8118 28.0439 14.0016C27.9108 14.5983 27.8442 15.158 27.6994 15.7375C27.5014 16.5301 27.3633 16.8225 26.5631 17.0609C26.5075 17.2494 26.4559 17.6009 26.4234 17.8003L26.2319 18.9757L25.2726 24.5572L24.9704 26.3658C24.9066 26.7531 24.8487 27.1523 24.7585 27.5344C24.6245 28.1461 24.1291 28.8826 23.5396 29.1575C22.5128 29.6363 21.3287 30.0242 20.2591 30.4143L17.8138 31.3154C17.0085 31.6136 16.2309 31.9033 15.3928 32.1032C13.8057 32.4817 12.4907 32.0295 11.0231 31.4995L8.47983 30.5651L6.54054 29.8574C5.91505 29.6285 5.28312 29.4226 4.71772 29.0659C3.64418 28.3657 3.56566 27.5358 3.37177 26.3829L3.03021 24.3663L2.20631 19.7224C2.05115 18.8439 1.87732 17.9373 1.74626 17.0572C1.26317 16.9047 0.885218 16.7058 0.767714 16.1656C0.648006 15.6153 0.5322 15.0619 0.420731 14.5095C0.265143 13.7387 0.00910547 12.9672 0 12.1766C0.0151035 11.9066 0.129464 11.6285 0.255893 11.4006C0.697038 10.589 1.61759 10.5173 2.40659 10.2981C3.22529 10.0705 4.06075 9.89732 4.87732 9.67839C4.5114 9.48613 4.25124 9.32389 3.91763 9.0728C2.52966 8.02813 1.9778 5.91382 3.12679 4.4899C3.66813 3.81906 4.30392 3.55016 5.14557 3.45888C5.09064 3.10027 5.26643 2.23434 5.37653 1.90145C6.20502 -0.603737 7.97823 -0.244685 9.69826 1.14847C11.3634 2.49717 12.3107 3.95835 13.252 5.83487C13.8322 5.66461 14.5687 5.68286 15.1433 5.86443C16.0388 3.83962 18.5145 0.300921 20.9007 0.00602628ZM17.8016 8.57641C18.859 8.33913 19.9218 8.14097 20.7596 7.37951C21.2333 6.94899 21.5152 6.45906 21.4074 5.79241C21.4024 5.76159 21.3908 5.73926 21.3758 5.71238L21.3547 5.70533C21.0305 5.88528 20.6649 6.08831 20.3578 6.2939C19.6341 6.77844 18.9725 7.37882 18.3294 7.96461C18.2073 8.07586 17.8115 8.42548 17.7427 8.53901L17.7465 8.57146C17.7556 8.57236 17.7939 8.57681 17.8016 8.57641ZM10.5719 8.47416C9.93584 7.70355 7.70359 6.06746 6.78498 5.69453C6.86939 6.39926 7.23242 7.0989 7.79439 7.53626C8.46899 8.06123 9.72609 8.41197 10.5719 8.47416Z" fill="#06112F"/>
<path d="M9.79102 19.0798C11.49 19.4788 13.1082 20.1819 14.8839 19.964C15.5086 19.8873 16.0602 19.7304 16.6665 19.5736L18.5766 19.0815C18.5742 19.3109 18.5573 19.5565 18.549 19.7882C18.5405 20.0253 18.5421 20.3323 18.5094 20.5637L18.1966 26.2519C18.1398 27.2894 18.0362 28.5115 18.031 29.5311C18.0213 29.9041 17.9909 30.2999 17.9751 30.6765C17.4882 30.8753 17.0485 31.0183 16.5642 31.1918C15.19 31.6841 14.0627 31.9252 12.617 31.476C11.868 31.2433 11.1566 30.941 10.409 30.6977C10.3931 30.3111 10.3418 29.9192 10.3349 29.5311L9.88077 20.7812C9.85165 20.6461 9.84052 20.2223 9.83578 20.0646C9.82585 19.7321 9.81053 19.4126 9.79102 19.0798Z" fill="url(#paint0_linear_2352_148)"/>
<path d="M9.79102 19.0798C11.49 19.4788 13.1082 20.1819 14.8839 19.964C15.5086 19.8873 16.0602 19.7304 16.6665 19.5736L18.5766 19.0815C18.5742 19.3109 18.5573 19.5565 18.549 19.7882C18.5405 20.0253 18.5421 20.3323 18.5094 20.5637C16.9207 21.0007 15.2558 21.5466 13.5885 21.4083C12.6051 21.3267 11.5871 21.0453 10.6331 20.7973C10.5146 20.7665 9.96453 20.5795 9.88959 20.6311C9.88529 20.6833 9.882 20.7284 9.88077 20.7812C9.85165 20.6461 9.84052 20.2223 9.83578 20.0646C9.82585 19.7321 9.81053 19.4126 9.79102 19.0798Z" fill="#A70800"/>
<path d="M10.335 29.5312L10.3528 29.5359C10.6525 29.617 11.27 29.8765 11.5938 29.9992C13.0352 30.5453 14.3183 30.7283 15.8264 30.2743C16.3088 30.1291 16.765 29.9751 17.2411 29.7979C17.3795 29.7463 17.9009 29.5537 18.031 29.5311C18.0214 29.9041 17.9909 30.2999 17.9752 30.6766C17.4883 30.8753 17.0485 31.0184 16.5643 31.1919C15.1901 31.6841 14.0628 31.9253 12.6171 31.4761C11.868 31.2433 11.1567 30.9411 10.409 30.6978C10.3931 30.3111 10.3418 29.9192 10.335 29.5312Z" fill="#A70800"/>
<path d="M13.2501 11.6439C13.8284 11.8202 14.4816 11.7895 15.0658 11.6594C15.3821 11.772 15.679 11.922 15.9774 12.0747C16.6065 12.3441 17.112 12.6051 17.7139 12.9296C18.0192 13.0943 18.5375 13.3764 18.8473 13.5008C18.9465 13.5344 19.0056 13.5583 19.1006 13.6004C19.1171 13.6726 19.1532 13.8045 19.1497 13.8728L19.1776 14.149C19.2136 14.4341 19.1858 14.8892 19.1851 15.1854C19.1829 16.0257 19.1143 16.8785 19.0938 17.7152C19.0805 17.9495 19.071 18.1811 19.0621 18.4155C18.2826 18.591 17.5177 18.7897 16.7417 18.9926C15.9233 19.2068 15.0889 19.4404 14.2334 19.4553C12.9434 19.4778 11.6902 18.9812 10.4511 18.6817C10.114 18.6001 9.70318 18.4689 9.36245 18.4392C9.33535 18.1983 9.32107 17.9542 9.30427 17.7122C9.29643 17.5718 9.2848 17.4291 9.27399 17.2887C9.19353 16.2453 9.17842 15.2016 9.16968 14.1558C9.18232 14.0815 9.2126 13.963 9.22984 13.8865C9.2547 13.7664 9.25968 13.7426 9.31132 13.6301C9.4135 13.5696 9.48067 13.526 9.59258 13.4852C9.88543 13.2988 10.3392 13.0819 10.6594 12.9203C11.1846 12.6552 11.7395 12.3668 12.273 12.1239C12.5362 11.9608 12.9591 11.7783 13.2501 11.6439Z" fill="url(#paint1_linear_2352_148)"/>
<path d="M9.16968 14.1559C9.71546 14.2391 10.2416 14.3791 10.7778 14.5127C11.4007 14.6678 12.4415 14.8582 13.0095 15.1615C13.4253 15.96 13.5607 17.0542 13.7681 17.9272C13.8151 18.1252 13.8215 18.3478 13.8763 18.5431C13.9231 18.7102 13.9046 18.7554 14.073 18.7861L14.343 18.7889C14.7864 18.7993 15.3717 18.6657 15.8109 18.5806C16.8445 18.3804 17.8498 18.0406 18.8776 17.8189C18.951 17.803 19.0534 17.7818 19.0938 17.7153C19.0805 17.9495 19.071 18.1812 19.0621 18.4156C18.2826 18.5911 17.5177 18.7897 16.7417 18.9927C15.9233 19.2069 15.0889 19.4405 14.2334 19.4554C12.9434 19.4779 11.6902 18.9813 10.4511 18.6817C10.114 18.6002 9.70318 18.469 9.36245 18.4392C9.33535 18.1984 9.32107 17.9543 9.30427 17.7123C9.29643 17.5719 9.2848 17.4292 9.27399 17.2888C9.19353 16.2454 9.17842 15.2017 9.16968 14.1559Z" fill="url(#paint2_linear_2352_148)"/>
<path d="M14.343 18.7888C14.7863 18.7993 15.3717 18.6657 15.8109 18.5806C16.8444 18.3804 17.8497 18.0405 18.8776 17.8188C18.951 17.803 19.0534 17.7818 19.0938 17.7153C19.0805 17.9495 19.0709 18.1811 19.062 18.4155C18.2826 18.591 17.5176 18.7897 16.7416 18.9927C15.9232 19.2068 15.0888 19.4404 14.2333 19.4553C12.9433 19.4778 11.6901 18.9812 10.451 18.6817C10.1139 18.6002 9.70311 18.4689 9.36237 18.4392C9.33527 18.1983 9.321 17.9542 9.3042 17.7123C9.85454 17.8563 10.4136 18.0068 10.9621 18.1513C11.8814 18.3935 13.1294 18.7756 14.0729 18.7861L14.343 18.7888Z" fill="#A70800"/>
<path d="M19.1776 14.149C19.2136 14.4341 19.1858 14.8892 19.1851 15.1854C19.1829 16.0257 19.1143 16.8785 19.0938 17.7152C19.0534 17.7817 18.951 17.8029 18.8776 17.8188C17.8497 18.0405 16.8445 18.3803 15.8109 18.5806C15.3717 18.6656 14.7864 18.7993 14.343 18.7888C14.4143 18.6924 14.5532 17.8321 14.5959 17.6575C14.7938 16.8493 14.9717 15.8684 15.3729 15.131C15.9145 14.8984 19.0778 14.2743 19.1776 14.149Z" fill="url(#paint3_linear_2352_148)"/>
<path d="M9.31132 13.6302C9.4135 13.5696 9.48067 13.5261 9.59258 13.4852C9.76142 13.5585 9.98021 13.583 10.162 13.6243C10.4605 13.6921 10.7574 13.7675 11.0547 13.84C13.87 14.5255 14.8695 14.4524 17.6355 13.7787C17.8379 13.7294 18.0427 13.6848 18.2477 13.6474C18.4207 13.6158 18.6267 13.6007 18.7886 13.5319C18.809 13.5232 18.8284 13.5127 18.8473 13.5008C18.9465 13.5344 19.0056 13.5583 19.1006 13.6005C19.1171 13.6727 19.1532 13.8045 19.1497 13.8728L19.1776 14.1491C19.0778 14.2743 15.9146 14.8985 15.373 15.131C14.9717 15.8684 14.7939 16.8493 14.596 17.6575C14.5532 17.8321 14.4143 18.6924 14.343 18.7888L14.073 18.7861C13.9046 18.7554 13.9231 18.7101 13.8763 18.5431C13.8215 18.3477 13.8151 18.1251 13.7681 17.9271C13.5607 17.0542 13.4253 15.9599 13.0095 15.1615C12.4415 14.8582 11.4007 14.6677 10.7778 14.5126C10.2416 14.379 9.71546 14.239 9.16968 14.1558C9.18232 14.0815 9.2126 13.9631 9.22984 13.8866C9.2547 13.7664 9.25968 13.7426 9.31132 13.6302Z" fill="url(#paint4_linear_2352_148)"/>
<path d="M9.31146 13.6302C9.41364 13.5696 9.48081 13.5261 9.59272 13.4852C9.76157 13.5585 9.98035 13.583 10.1622 13.6243C10.4606 13.6921 10.7575 13.7675 11.0549 13.84C13.8702 14.5255 14.8696 14.4524 17.6356 13.7787C17.8381 13.7294 18.0428 13.6848 18.2478 13.6474C18.4208 13.6158 18.6269 13.6007 18.7887 13.5319C18.8092 13.5232 18.8286 13.5127 18.8474 13.5008C18.9466 13.5344 19.0057 13.5583 19.1008 13.6005C19.1173 13.6727 19.1534 13.8045 19.1499 13.8728C17.4779 14.1788 15.7887 14.7415 14.0746 14.7412C12.8681 14.7409 11.6308 14.3886 10.4569 14.1396C10.049 14.0531 9.64551 13.9323 9.22998 13.8866C9.25484 13.7664 9.25983 13.7426 9.31146 13.6302Z" fill="#A70800"/>
<path d="M13.2501 11.6439C13.8283 11.8202 14.4816 11.7895 15.0657 11.6594C15.382 11.772 15.679 11.922 15.9773 12.0747C15.676 12.1609 15.3437 12.2565 15.0354 12.3063C14.2068 12.4403 13.0619 12.403 12.2729 12.1239C12.5361 11.9608 12.959 11.7783 13.2501 11.6439Z" fill="#A70800"/>
<path d="M15.7596 6.121C15.7077 6.09925 15.6734 6.09098 15.6375 6.04776C15.6337 5.97297 15.8188 5.65615 15.8617 5.57489C16.4229 4.51356 17.1253 3.4492 17.9445 2.55813C18.6693 1.78926 19.907 0.636272 20.9895 0.55433C22.2611 0.458073 22.6516 2.56991 22.6955 3.51565L22.4597 3.57292C22.3622 3.59608 22.2936 3.61245 22.1977 3.6463C22.1946 3.76352 22.1927 3.81016 22.2095 3.92709C22.96 3.82285 23.7309 3.90382 24.3548 4.37149C24.7998 4.70507 25.1316 5.25356 25.2456 5.79613C25.4017 6.31395 25.3154 7.03184 25.0734 7.49893C24.7018 8.45782 23.5191 9.20927 22.6076 9.61089C21.2538 10.2074 19.7624 10.425 18.291 10.394C17.8278 10.3843 17.3593 10.3702 16.9059 10.2578C16.9634 10.137 17.0287 10.0069 17.0762 9.8829L17.1468 9.68048C17.5146 9.71427 17.9106 9.67477 18.2795 9.65685C19.9554 9.57548 22.7247 9.00906 23.3103 7.17062C23.4959 6.39764 23.2609 5.78345 22.7388 5.21118C22.9844 5.14878 23.2742 5.11261 23.5276 5.13884C23.8452 5.17172 24.0731 5.38042 24.334 5.5277L24.3469 5.53482C22.5181 3.56063 19.5763 6.1666 18.131 7.4332C17.8581 7.67233 17.4812 8.0458 17.2469 8.31831C17.2179 8.13891 17.1855 7.88067 17.1161 7.71908L16.9387 7.30825L16.9067 7.22901C16.5864 6.71961 16.2714 6.4303 15.7596 6.121Z" fill="#E20004"/>
<path d="M22.2095 3.92715C22.9601 3.82291 23.731 3.90388 24.3549 4.37155C24.7999 4.70513 25.1316 5.25362 25.2456 5.79619C25.4018 6.31401 25.3154 7.0319 25.0735 7.49899C24.7018 8.45788 23.5191 9.20933 22.6077 9.61095C21.2539 10.2075 19.7625 10.4251 18.2911 10.3941C17.8279 10.3843 17.3594 10.3703 16.906 10.2579C16.9635 10.137 17.0288 10.0069 17.0763 9.88296L17.1469 9.68054C17.5147 9.71433 17.9106 9.67483 18.2796 9.65691C19.9555 9.57554 22.7248 9.00912 23.3104 7.17068C23.496 6.39769 23.261 5.78351 22.7389 5.21124C22.9845 5.14884 23.2743 5.11267 23.5277 5.1389C23.8453 5.17178 24.0732 5.38048 24.3341 5.52776L24.347 5.53488C22.5182 3.56069 19.5764 6.16666 18.1311 7.43326C17.8582 7.67239 17.4812 8.04586 17.247 8.31837C17.218 8.13897 17.1856 7.88073 17.1162 7.71914L16.9388 7.30831C17.4246 6.93134 17.8942 6.48651 18.3648 6.08601C19.5516 5.07596 20.6693 4.26319 22.2095 3.92715Z" fill="#E20004"/>
<path d="M17.0763 9.88299C17.2906 9.94731 17.9102 9.9566 18.1609 9.94886C19.977 9.89289 22.2029 9.65908 23.7697 8.66655C24.0438 8.48364 24.2916 8.26573 24.535 8.04589C24.6948 7.90154 24.8912 7.57613 25.0735 7.49902C24.7018 8.45792 23.5191 9.20937 22.6077 9.61099C21.2539 10.2075 19.7625 10.4251 18.2911 10.3941C17.8279 10.3844 17.3594 10.3703 16.906 10.2579C16.9635 10.1371 17.0288 10.007 17.0763 9.88299Z" fill="#E20004"/>
<path d="M16.9065 7.22908C17.1118 6.86352 17.4299 6.56962 17.7372 6.28113C18.8423 5.24361 20.1204 4.25596 21.5848 3.79671C21.7802 3.73539 21.9981 3.69883 22.1975 3.64636C22.1944 3.76358 22.1925 3.81023 22.2092 3.92715C20.669 4.26319 19.5513 5.07596 18.3645 6.08601C17.8939 6.48651 17.4243 6.93134 16.9385 7.30831L16.9065 7.22908Z" fill="#06112F"/>
<path d="M5.68844 3.26134C5.74319 2.40138 5.90315 1.49567 6.57663 0.877622C6.79198 0.679972 7.12602 0.56193 7.41996 0.595529C8.60892 0.731439 10.0161 2.08055 10.7755 2.9399C11.3597 3.60102 11.8809 4.46796 12.3133 5.22288C12.4376 5.43989 12.7062 5.79855 12.7173 6.03345C12.6804 6.08746 12.6862 6.07265 12.6192 6.106C12.1159 6.34542 11.8066 6.68008 11.4994 7.13853C11.4674 7.19638 11.4331 7.26406 11.3939 7.31612L11.2527 7.58925C11.1505 7.84843 11.1286 7.95745 11.0856 8.23491C10.2433 7.37195 9.19792 6.52536 8.15057 5.89498C7.1356 5.28412 5.26294 4.22456 4.1988 5.23065C4.07685 5.34595 3.95689 5.5411 3.87071 5.68639C4.40884 5.19376 4.73985 5.07376 5.47038 5.24304C5.107 5.65217 4.97139 6.03258 4.99433 6.59603C5.0197 7.21846 5.3076 7.83308 5.75518 8.2683C5.85668 8.36697 6.23351 8.61915 6.29793 8.69582C6.60015 8.85625 6.90211 9.01523 7.22225 9.13707C8.35212 9.56705 10.0067 9.76351 11.2077 9.69012C11.2481 9.79422 11.2956 9.92697 11.3427 10.0257C11.3785 10.0763 11.4614 10.2303 11.4964 10.291C10.4775 10.4396 9.44282 10.4178 8.41911 10.283C6.69528 10.0559 4.7293 9.46389 3.62053 8.03116C3.25873 7.56367 2.95225 6.79267 3.03377 6.19189C3.02972 5.60498 3.29157 4.99925 3.71165 4.59131C4.2556 4.06312 4.94469 3.94139 5.67197 3.95465C5.67218 3.78642 5.66366 3.40439 5.68844 3.26134Z" fill="#E20004"/>
<path d="M5.68848 3.26134C5.74322 2.40138 5.90318 1.49567 6.57666 0.877622C6.79201 0.679972 7.12606 0.56193 7.42 0.595529C8.60895 0.731439 10.0161 2.08055 10.7755 2.9399C11.3598 3.60102 11.8809 4.46796 12.3134 5.22288C12.4377 5.43989 12.7063 5.79855 12.7173 6.03345C12.6805 6.08746 12.6862 6.07265 12.6192 6.106C12.1159 6.34542 11.8066 6.68008 11.4994 7.13853C11.4119 7.07111 11.2848 6.90598 11.1988 6.81684C10.9979 6.60864 10.8028 6.40056 10.5827 6.21014C9.47704 5.25348 8.17001 4.40592 6.79779 3.88817C6.54154 3.79148 6.14932 3.70595 5.87785 3.64019L5.68237 3.59665L5.68848 3.26134Z" fill="#E20004"/>
<path d="M6.43359 18.178C7.40275 18.4381 8.50704 18.6947 9.45072 18.978C9.50944 19.6124 9.51066 20.2757 9.55612 20.9099L9.8213 26.1071L9.95586 28.5335C9.97031 28.7614 9.97389 29.0109 9.99296 29.2335C10.0075 29.3751 10.0047 29.5627 10.0137 29.7106C10.0307 29.9925 10.0485 30.2737 10.0674 30.5555C9.08712 30.2085 8.05 29.8432 7.08518 29.4644C7.07217 29.0687 7.02462 28.5889 6.99542 28.1869C6.95192 27.6979 6.9315 27.158 6.90245 26.6646L6.74477 23.9597L6.61151 21.4799C6.58709 21.0234 6.54821 20.5119 6.54026 20.0598C6.4715 19.443 6.46792 18.7981 6.43359 18.178Z" fill="#E20004"/>
<path d="M6.43359 18.178C7.40275 18.4381 8.50704 18.6947 9.45072 18.978C9.50944 19.6124 9.51066 20.2757 9.55612 20.9099C9.39634 20.8861 8.72774 20.6801 8.54277 20.6244C7.86691 20.4207 7.22523 20.2346 6.54026 20.0598C6.4715 19.443 6.46792 18.7981 6.43359 18.178Z" fill="#C93C35"/>
<path d="M6.99536 28.1868C7.65619 28.3998 8.32396 28.6786 8.98136 28.9062C9.28221 29.0103 9.68277 29.1578 9.9929 29.2334C10.0074 29.375 10.0046 29.5626 10.0136 29.7105C10.0307 29.9924 10.0484 30.2735 10.0674 30.5554C9.08705 30.2084 8.04993 29.8431 7.08512 29.4643C7.07211 29.0686 7.02456 28.5888 6.99536 28.1868Z" fill="#C93C35"/>
<path d="M18.9045 18.9873L21.9898 18.2129C21.9786 18.7231 21.9321 19.2534 21.8981 19.7646L21.5145 25.2558C21.4433 26.2159 21.385 27.2087 21.3002 28.1636C21.2569 28.6059 21.2025 29.0788 21.1928 29.5208C20.2463 29.8663 19.2362 30.2277 18.2988 30.5888C18.3252 30.281 18.3312 29.9834 18.3427 29.6756C18.3456 29.5954 18.3522 29.3122 18.3689 29.2463C18.543 26.5132 18.6613 23.7249 18.8083 20.9859C18.8549 20.331 18.8867 19.6426 18.9045 18.9873Z" fill="#E20004"/>
<path d="M18.9046 18.9873L21.9898 18.2129C21.9787 18.7231 21.9322 19.2534 21.8982 19.7646C21.5203 19.9095 21.1634 20.0836 20.7926 20.2415C20.1489 20.5155 19.4801 20.7893 18.8083 20.9859C18.855 20.331 18.8868 19.6426 18.9046 18.9873Z" fill="#C93C35"/>
<path d="M18.3689 29.2464C18.5569 29.2102 18.9416 29.0163 19.1458 28.9458C19.8629 28.6982 20.5859 28.4117 21.3002 28.1637C21.2569 28.606 21.2025 29.0788 21.1928 29.5209C20.2463 29.8664 19.2362 30.2278 18.2988 30.5889C18.3252 30.2811 18.3312 29.9835 18.3427 29.6757C18.3456 29.5955 18.3522 29.3123 18.3689 29.2464Z" fill="#C93C35"/>
<path d="M22.3133 18.143C23.5184 17.8309 24.8087 17.5363 25.99 17.1803C25.8821 17.6661 25.8162 18.1365 25.7423 18.6283C25.5723 19.3551 25.4636 20.2508 25.3411 21.0035L24.684 24.8659C24.5751 25.4943 24.4721 26.2767 24.3075 26.8823C24.1294 28.8379 22.9434 28.7256 21.5159 29.3979C21.5317 29.1731 21.552 28.6533 21.5848 28.449C21.642 27.4427 21.7276 26.4471 21.7961 25.4427L22.202 19.5902C22.2446 19.1017 22.2921 18.6332 22.3133 18.143Z" fill="url(#paint5_linear_2352_148)"/>
<path d="M22.3132 18.143C23.5184 17.8309 24.8087 17.5363 25.99 17.1803C25.8821 17.6661 25.8161 18.1365 25.7422 18.6283C24.4838 18.9685 23.4491 19.1172 22.2019 19.5902C22.2446 19.1017 22.2921 18.6332 22.3132 18.143Z" fill="#A70800"/>
<path d="M24.3075 26.8824C24.1294 28.8381 22.9434 28.7257 21.5159 29.398C21.5317 29.1732 21.552 28.6535 21.5848 28.4491C22.6934 27.9057 23.4206 27.9159 24.3075 26.8824Z" fill="#A70800"/>
<path d="M5.5357 10.0566C5.75752 10.1256 5.96066 10.1904 6.17883 10.2699C7.51578 10.6499 8.48526 10.8382 9.88306 10.8383C9.54518 11.0336 8.77439 11.2346 8.39222 11.3943C8.19884 11.4752 8.00065 11.5986 7.82128 11.6607C7.18929 11.9428 6.6117 12.1504 5.99665 12.4908C5.84818 12.6073 5.72558 12.7433 5.5955 12.8797C5.49635 13.0134 5.45278 13.095 5.39623 13.2546C5.29921 14.4638 5.35836 15.5804 5.50264 16.7876C5.5417 17.0156 5.55521 17.2579 5.58773 17.4882C5.10583 17.3607 4.62512 17.2308 4.14213 17.1072C3.83396 17.0284 3.48907 16.9737 3.19415 16.863C2.84746 16.7871 2.47851 16.6856 2.13232 16.5985C1.95245 16.5448 1.48532 16.4244 1.39712 16.2458C1.24576 15.9393 1.19106 15.5185 1.12468 15.1849L0.892275 14.0699C0.776506 13.526 0.633094 13.0014 0.554867 12.4497C0.469304 11.846 0.765883 11.4233 1.2961 11.1639C2.66773 10.7566 4.16855 10.4581 5.5357 10.0566Z" fill="url(#paint6_linear_2352_148)"/>
<path d="M5.53551 10.0566C5.75733 10.1256 5.96046 10.1904 6.17863 10.2699C7.51558 10.6499 8.48506 10.8382 9.88286 10.8383C9.54498 11.0336 8.7742 11.2346 8.39202 11.3943C8.19864 11.4752 8.00045 11.5986 7.82109 11.6607C7.18909 11.9428 6.6115 12.1504 5.99645 12.4908C5.84798 12.6073 5.72538 12.7433 5.59531 12.8797C5.49616 13.0134 5.45258 13.095 5.39603 13.2546C5.15015 13.1395 4.69386 13.0342 4.42594 12.964L2.89026 12.5727C2.52951 12.4819 2.14693 12.3538 1.78134 12.3023C1.62698 12.2805 1.50424 12.3279 1.36509 12.3837C1.37965 12.3291 1.4026 12.2994 1.43234 12.2519C1.41738 11.8277 1.44708 11.6769 1.36202 11.2413L1.2959 11.1639C2.66754 10.7566 4.16835 10.4581 5.53551 10.0566Z" fill="url(#paint7_linear_2352_148)"/>
<path d="M6.17884 10.2698C7.51579 10.6497 8.48527 10.838 9.88307 10.8381C9.54519 11.0334 8.7744 11.2344 8.39223 11.3942C8.19884 11.4751 8.00066 11.5984 7.82129 11.6606C7.73472 11.6103 7.47207 11.5849 7.36335 11.5777C6.07608 11.4925 4.78278 11.4744 3.51802 11.1871C3.39842 11.1599 3.2682 11.1282 3.14632 11.1155C3.09693 11.1107 3.06405 11.1141 3.02856 11.0814C3.0905 11.039 3.39651 10.9908 3.48673 10.9645C4.16093 10.7679 4.85439 10.647 5.53279 10.4669C5.7248 10.4159 6.00305 10.3556 6.17884 10.2698Z" fill="#A70800"/>
<path d="M3.14629 11.1155C3.26817 11.1282 3.39839 11.1599 3.51799 11.1871C4.78275 11.4745 6.07605 11.4925 7.36332 11.5777C7.47204 11.5849 7.73469 11.6104 7.82126 11.6606C7.18926 11.9427 6.61168 12.1502 5.99663 12.4906C5.73651 12.4698 5.27852 12.3667 5.02447 12.3089L3.7702 12.0187L2.54667 11.7314C2.35968 11.6863 2.07246 11.6237 1.89624 11.5623C2.22574 11.4446 2.86633 11.2854 3.14629 11.1155Z" fill="url(#paint8_linear_2352_148)"/>
<path d="M1.89622 11.5624C2.07244 11.6238 2.35966 11.6864 2.54665 11.7315L3.77018 12.0188L5.02446 12.309C5.27851 12.3668 5.73649 12.4699 5.99661 12.4907C5.84814 12.6073 5.72554 12.7433 5.59546 12.8797C5.54267 12.8554 5.25918 12.7996 5.18709 12.7834L4.02076 12.522C3.40816 12.3821 2.79376 12.1872 2.17654 12.0725C1.84567 12.011 1.26144 11.8418 1.89622 11.5624Z" fill="#A70800"/>
<path d="M1.36206 11.2412C1.45525 11.329 1.50464 12.1467 1.43237 12.2518C1.41742 11.8276 1.44712 11.6768 1.36206 11.2412Z" fill="#4EE0CA"/>
<path d="M3.19415 16.8628C2.84746 16.7869 2.47851 16.6855 2.13232 16.5984C1.95245 16.5446 1.48532 16.4243 1.39712 16.2457C1.24576 15.9392 1.19106 15.5183 1.12468 15.1847L0.892275 14.0698C0.776506 13.5259 0.633094 13.0013 0.554867 12.4495C0.469304 11.8458 0.765883 11.4231 1.2961 11.1637L1.36222 11.2411C1.44727 11.6767 1.41757 11.8276 1.43253 12.2517C1.4028 12.2992 1.37985 12.3289 1.36529 12.3836C1.24847 12.4696 1.20771 12.5382 1.13483 12.6593C1.22831 13.2573 1.35683 13.7955 1.49273 14.384C1.5896 14.8037 1.6403 15.151 1.778 15.5677C1.86761 15.9537 1.90212 16.0967 2.24939 16.3236C2.42398 16.4376 3.0919 16.7292 3.20279 16.8434L3.19415 16.8628Z" fill="url(#paint9_linear_2352_148)"/>
<path d="M1.77783 15.5678L1.79803 15.5442C1.87582 15.5802 1.94292 15.6559 2.01689 15.7048C2.13609 15.7834 2.33641 15.9058 2.46768 15.9565C3.11478 16.2066 3.79169 16.3738 4.46326 16.5418C4.80941 16.6284 5.15162 16.7393 5.50247 16.7875C5.54153 17.0155 5.55505 17.2578 5.58757 17.4881C5.10566 17.3606 4.62495 17.2307 4.14197 17.1072C3.83379 17.0283 3.4889 16.9736 3.19399 16.8629L3.20262 16.8435C3.09173 16.7293 2.42381 16.4377 2.24922 16.3236C1.90195 16.0967 1.86744 15.9538 1.77783 15.5678Z" fill="#A70800"/>
<path d="M2.33398 17.1967C2.50786 17.2392 2.68155 17.2875 2.84906 17.3506C3.93604 17.5901 5.04409 17.9562 6.10658 18.1719C6.12663 18.6041 6.18094 19.1425 6.18188 19.559C6.2317 20.0427 6.24645 20.5917 6.27344 21.0816L6.41056 23.5611L6.69048 28.4596C6.74053 28.6701 6.7324 29.1224 6.75321 29.3598C6.65381 29.3234 6.42942 29.2459 6.35495 29.1857C5.46009 28.888 4.48222 28.4959 4.17239 27.5134C4.05091 27.1282 4.00343 26.7077 3.93644 26.3084L3.67408 24.8037L2.90835 20.3703C2.72913 19.3215 2.55953 18.2344 2.33398 17.1967Z" fill="url(#paint10_linear_2352_148)"/>
<path d="M2.33398 17.1967C2.50786 17.2392 2.68155 17.2875 2.84906 17.3506C2.89972 17.804 3.00147 18.2663 3.06448 18.7201C3.09328 18.932 3.13252 19.1513 3.1731 19.3618C3.65746 21.8753 4.00845 24.4135 4.4841 26.9278C4.50701 27.049 4.56005 27.3268 4.63503 27.4121C4.71011 27.4325 5.05688 27.7194 5.21561 27.8075C5.6749 28.0624 6.24764 28.2192 6.69048 28.4596C6.74053 28.6701 6.7324 29.1224 6.75321 29.3598C6.65381 29.3234 6.42942 29.2459 6.35495 29.1857C5.46009 28.888 4.48222 28.4959 4.17239 27.5134C4.05091 27.1282 4.00343 26.7077 3.93644 26.3084L3.67408 24.8037L2.90835 20.3703C2.72913 19.3215 2.55953 18.2344 2.33398 17.1967Z" fill="url(#paint11_linear_2352_148)"/>
<path d="M4.63501 27.4121C4.71009 27.4325 5.05686 27.7194 5.21559 27.8075C5.67488 28.0624 6.24762 28.2192 6.69046 28.4596C6.74051 28.6701 6.73237 29.1224 6.75319 29.3598C6.65379 29.3234 6.4294 29.2459 6.35493 29.1857C6.25679 29.0612 5.96625 28.9033 5.8172 28.8174C5.27416 28.5044 4.90254 27.9678 4.63501 27.4121Z" fill="#A70800"/>
<path d="M2.84888 17.3506C3.93586 17.5901 5.04391 17.9562 6.10639 18.1719C6.12645 18.6041 6.18076 19.1425 6.1817 19.559C6.01346 19.5257 5.74424 19.4447 5.57297 19.3989L4.30684 19.0546C3.98132 18.9662 3.34108 18.8248 3.0643 18.7201C3.00128 18.2663 2.89954 17.8041 2.84888 17.3506Z" fill="#A70800"/>
<path d="M22.2368 10.3201C22.3637 10.2655 22.6747 10.1181 22.7986 10.1319C23.1439 10.1704 23.5365 10.3114 23.8795 10.3933L25.9601 10.8865C26.6365 11.0514 27.4707 11.1414 27.7657 11.8792C27.818 12.0101 27.848 12.1344 27.8492 12.2767C27.7479 13.02 27.5385 13.7664 27.3955 14.5041C27.291 15.0002 27.231 15.5109 27.0759 15.9947C26.9767 16.3042 26.7641 16.4815 26.4521 16.559C25.2527 16.8568 24.0594 17.1504 22.8686 17.4844C22.8736 17.2596 22.8821 16.8507 22.9238 16.6362C22.9779 15.6455 23.0939 14.2723 22.9718 13.3127C22.9296 13.1733 22.8944 13.056 22.8405 12.9212C22.7185 12.7594 22.6335 12.669 22.4895 12.5271C21.7686 12.1459 20.8301 11.7578 20.0724 11.4254C19.61 11.2682 19.1419 11.0704 18.6924 10.8792C19.6149 10.8655 20.3911 10.8201 21.2943 10.5905C21.6137 10.5092 21.9195 10.4058 22.2368 10.3201Z" fill="url(#paint12_linear_2352_148)"/>
<path d="M22.2368 10.3201C22.3637 10.2655 22.6747 10.1181 22.7986 10.1319C23.1439 10.1704 23.5365 10.3114 23.8795 10.3933L25.9601 10.8865C26.6365 11.0514 27.4707 11.1414 27.7657 11.8792C27.818 12.0101 27.848 12.1344 27.8492 12.2767C27.69 12.3143 27.4925 12.3663 27.3328 12.3772C26.4633 12.3159 25.6384 12.6483 24.8006 12.8509C24.1906 12.9984 23.5753 13.1425 22.9718 13.3127C22.9296 13.1733 22.8944 13.056 22.8405 12.9212C22.7185 12.7594 22.6335 12.669 22.4895 12.5271C21.7686 12.1459 20.8301 11.7578 20.0724 11.4254C19.61 11.2682 19.1419 11.0704 18.6924 10.8792C19.6149 10.8655 20.3911 10.8201 21.2943 10.5905C21.6137 10.5092 21.9195 10.4058 22.2368 10.3201Z" fill="url(#paint13_linear_2352_148)"/>
<path d="M22.2368 10.3201C22.3637 10.2655 22.6747 10.1181 22.7986 10.1319C23.1439 10.1704 23.5365 10.3114 23.8795 10.3933L25.9602 10.8865C26.6365 11.0514 27.4708 11.1414 27.7657 11.8792C27.8181 12.0101 27.8481 12.1344 27.8493 12.2767C27.69 12.3143 27.4926 12.3663 27.3328 12.3772C26.4633 12.3159 25.6384 12.6483 24.8007 12.8509C24.1907 12.9984 23.5754 13.1425 22.9719 13.3127C22.9297 13.1733 22.8945 13.056 22.8406 12.9212C22.7185 12.7594 22.6336 12.669 22.4895 12.5271C22.6159 12.5107 22.772 12.4806 22.8967 12.4506C23.9154 12.2054 24.9454 12.0043 25.9552 11.7236C26.0484 11.6977 26.1468 11.6742 26.2347 11.634C25.89 11.5676 25.4618 11.4139 25.1299 11.2863L25.1255 11.2665L25.1817 11.2372C25.3295 11.2348 25.4968 11.2184 25.6457 11.2072C25.2448 11.1544 22.493 10.4858 22.2368 10.3201Z" fill="url(#paint14_linear_2352_148)"/>
<path d="M26.2347 11.6341C26.3954 11.6058 26.6361 11.5331 26.7794 11.6407C26.8128 11.6658 26.8432 11.7012 26.8448 11.7449C26.8467 11.7962 26.8248 11.8383 26.7885 11.8733C26.6017 12.0536 24.2884 12.5667 23.9166 12.6488C23.6048 12.7177 23.1127 12.7744 22.8405 12.9212C22.7185 12.7594 22.6336 12.669 22.4895 12.5271C22.6158 12.5107 22.772 12.4806 22.8967 12.4506C23.9154 12.2055 24.9453 12.0043 25.9551 11.7237C26.0484 11.6978 26.1468 11.6742 26.2347 11.6341Z" fill="#A70800"/>
<path d="M18.6924 10.8792C19.6149 10.8655 20.3911 10.8201 21.2943 10.5905C21.6137 10.5092 21.9195 10.4058 22.2368 10.3201C22.4929 10.4858 25.2448 11.1544 25.6457 11.2072C25.4967 11.2184 25.3294 11.2348 25.1816 11.2372C24.7579 11.2091 24.2249 11.2895 23.7942 11.3292C22.9911 11.403 22.2142 11.4672 21.4061 11.4683C21.154 11.4687 20.1979 11.3608 20.0724 11.4254C19.61 11.2682 19.1419 11.0704 18.6924 10.8792Z" fill="#A70800"/>
<path d="M27.3328 12.3772C27.4925 12.3664 27.69 12.3143 27.8493 12.2767C27.748 13.0201 27.5385 13.7665 27.3955 14.5042C27.291 15.0003 27.231 15.511 27.076 15.9948C26.9768 16.3043 26.7641 16.4816 26.4522 16.5591C25.2527 16.8569 24.0595 17.1504 22.8687 17.4844C22.8737 17.2597 22.8821 16.8507 22.9239 16.6363C22.9249 16.677 22.9277 16.7082 22.9317 16.7488C22.9459 16.7635 22.9656 16.7924 22.9858 16.7885C23.9504 16.6027 25.1617 16.307 26.0207 15.8473C26.6975 15.4851 26.8459 14.4297 27.0017 13.7774L27.3328 12.3772Z" fill="#A70800"/>
<path d="M11.8679 7.60453C12.3694 6.61337 13.4483 6.0536 14.5474 6.21432C15.6465 6.375 16.5199 7.22018 16.7167 8.31341C16.7475 8.48443 16.7609 8.65809 16.7568 8.83181C16.7343 9.78894 16.1844 10.6551 15.3279 11.0828C14.4713 11.5105 13.4485 11.4296 12.6699 10.8724C11.8914 10.3153 11.4846 9.37337 11.613 8.42463C11.6516 8.13897 11.7378 7.86176 11.8679 7.60453Z" fill="#E20004"/>
<path d="M11.613 8.42468C11.5947 8.89007 11.8947 9.34954 12.1926 9.68044C13.2424 10.8465 14.9451 10.8736 16.0897 9.82418C16.4899 9.45718 16.5127 9.27178 16.7568 8.83186C16.7343 9.78899 16.1844 10.6552 15.3279 11.0829C14.4713 11.5106 13.4485 11.4296 12.6699 10.8725C11.8914 10.3154 11.4846 9.37342 11.613 8.42468Z" fill="#E20004"/>
<path d="M11.613 8.42468C11.5947 8.89007 11.8947 9.34954 12.1926 9.68044C13.2424 10.8465 14.9451 10.8736 16.0897 9.82418C16.4899 9.45718 16.5127 9.27178 16.7568 8.83186C16.7343 9.78899 16.1844 10.6552 15.3279 11.0829C14.4713 11.5106 13.4485 11.4296 12.6699 10.8725C11.8914 10.3154 11.4846 9.37342 11.613 8.42468Z" fill="black" fill-opacity="0.5"/>
<path d="M19.4278 13.6207C19.4236 13.5934 19.426 13.6046 19.4415 13.5717C19.5709 13.4919 20.5051 13.3008 20.7135 13.2598C21.1362 13.1766 21.981 12.8865 22.3719 12.9206C22.5676 13.0696 22.5955 13.1539 22.6505 13.3924C22.7179 14.6049 22.6475 15.6754 22.5839 16.8848C22.5751 17.1058 22.5484 17.3497 22.5475 17.5653C21.6119 17.8225 20.6806 18.0848 19.7372 18.3128C19.6253 18.3399 19.5063 18.3683 19.396 18.3998C19.399 18.2101 19.3978 17.8195 19.4338 17.6419C19.4777 16.4311 19.5265 15.3731 19.5148 14.1538C19.4995 13.9908 19.4571 13.7851 19.4278 13.6207Z" fill="#E20004"/>
<path d="M22.5839 16.8848C22.5751 17.1059 22.5484 17.3498 22.5475 17.5654C21.6119 17.8226 20.6806 18.0848 19.7372 18.3128C19.6253 18.3399 19.5063 18.3683 19.396 18.3998C19.399 18.2102 19.3978 17.8195 19.4338 17.6419C20.5087 17.4377 21.532 17.1324 22.5839 16.8848Z" fill="#C93C35"/>
<path d="M19.4279 13.6207C19.4237 13.5934 19.426 13.6046 19.4415 13.5717C19.5709 13.4919 20.5052 13.3008 20.7136 13.2598C21.1363 13.1766 21.981 12.8865 22.3719 12.9206C22.5676 13.0696 22.5955 13.1539 22.6505 13.3924C22.3203 13.4612 21.9799 13.564 21.6515 13.6466C21.0305 13.8026 20.408 13.9473 19.7841 14.0907C19.7029 14.1098 19.5949 14.1456 19.5149 14.1538C19.4996 13.9908 19.4572 13.7851 19.4279 13.6207Z" fill="#FDD995"/>
<path d="M19.4279 13.6207C19.4237 13.5934 19.426 13.6046 19.4415 13.5717C19.5709 13.4919 20.5052 13.3008 20.7136 13.2598C21.1363 13.1766 21.981 12.8865 22.3719 12.9206C22.0111 13.0549 19.6716 13.6866 19.4279 13.6207Z" fill="#F8BA6D"/>
<path d="M5.76628 13.3528C5.86167 13.0464 5.89726 12.8308 6.27962 12.9055C6.6864 12.985 7.087 13.0927 7.49017 13.1896C7.9259 13.3109 8.59342 13.4408 8.9968 13.5999C8.93914 13.7823 8.90087 13.9104 8.86463 14.1006C8.82694 14.6821 8.85401 15.2493 8.87778 15.8309L8.95048 17.5837C8.97859 17.8106 8.98698 18.1448 8.99912 18.381C8.57568 18.2615 8.13449 18.1601 7.70874 18.042C7.11811 17.8783 6.53858 17.7171 5.93639 17.601C5.90893 17.351 5.87319 17.0939 5.8419 16.8437C5.71547 15.9605 5.59833 14.2259 5.76628 13.3528Z" fill="#E20004"/>
<path d="M5.84204 16.8436C6.70157 17.0806 7.60417 17.2674 8.46922 17.4922C8.59699 17.5255 8.82303 17.5779 8.95062 17.5836C8.97873 17.8105 8.98711 18.1447 8.99925 18.3809C8.57581 18.2614 8.13463 18.16 7.70888 18.0419C7.11825 17.8782 6.53872 17.7171 5.93653 17.6009C5.90907 17.351 5.87333 17.0938 5.84204 16.8436Z" fill="#C93C35"/>
<path d="M5.76636 13.3528C5.86175 13.0464 5.89734 12.8308 6.2797 12.9055C6.68648 12.985 7.08708 13.0927 7.49025 13.1896C7.92598 13.3109 8.5935 13.4408 8.99688 13.5999C8.93922 13.7823 8.90095 13.9104 8.86471 14.1006C8.66005 14.0786 8.39 13.9821 8.1853 13.93C7.56172 13.7711 6.93764 13.6187 6.30896 13.4813C6.15497 13.4476 5.90879 13.407 5.76636 13.3528Z" fill="#FDD995"/>
<path d="M16.629 10.6633C17.4286 10.8574 18.0729 11.05 18.8454 11.3376C19.681 11.6173 20.4745 12.0005 21.2912 12.3302C21.526 12.4249 21.7574 12.5373 21.9894 12.6401L20.3254 13.0422C19.9467 13.1352 19.5297 13.2469 19.1483 13.3104C18.2033 12.7935 17.1524 12.282 16.1869 11.8002C15.9612 11.7039 15.7421 11.5968 15.5208 11.4908C15.9986 11.2172 16.2321 11.0516 16.629 10.6633Z" fill="#E20004"/>
<path d="M16.629 10.6633C17.4286 10.8574 18.0729 11.05 18.8454 11.3376C18.3172 11.4024 16.5747 11.5008 16.1869 11.8002C15.9612 11.7039 15.7421 11.5968 15.5208 11.4908C15.9986 11.2172 16.2321 11.0516 16.629 10.6633Z" fill="#C93C35"/>
<path d="M9.22942 11.447C10.0717 11.1389 10.9124 10.8004 11.8196 10.7419C12.1571 11.0708 12.3884 11.2423 12.8123 11.4624C12.5357 11.601 12.2459 11.752 11.9637 11.8753C11.0425 12.4316 10.1421 12.8186 9.21966 13.3183C8.39327 13.0695 7.36117 12.8118 6.52759 12.616C6.99764 12.3754 7.53381 12.1483 8.01879 11.9381C8.41188 11.7677 8.82553 11.5864 9.22942 11.447Z" fill="#E20004"/>
<path d="M9.22974 11.447C10.072 11.1389 10.9128 10.8004 11.82 10.7419C12.1574 11.0708 12.3887 11.2423 12.8126 11.4624C12.536 11.601 12.2462 11.752 11.9641 11.8753C11.8566 11.8172 11.7091 11.7796 11.5951 11.7303C10.8427 11.4045 10.0417 11.4688 9.22974 11.447Z" fill="#C93C35"/>
<path d="M22.4467 5.27612C22.7151 5.35598 23.0071 6.08629 23.0359 6.35555C23.1289 7.22415 22.6384 7.78587 21.9491 8.22218C20.664 9.03553 19.1621 9.2873 17.6844 9.50146C17.5164 9.533 17.3356 9.53994 17.1653 9.54319C17.194 9.42829 17.2192 9.29131 17.2438 9.17381C18.8724 8.92633 21.2401 8.47868 21.8347 6.66059C21.9547 6.29344 21.893 5.86946 21.7847 5.50629C22.0003 5.42105 22.2264 5.34947 22.4467 5.27612Z" fill="#E20004"/>
<path d="M22.4467 5.27612C22.7151 5.35598 23.0071 6.08629 23.0359 6.35555C23.1289 7.22415 22.6384 7.78587 21.9491 8.22218C20.664 9.03553 19.1621 9.2873 17.6844 9.50146C17.5164 9.533 17.3356 9.53994 17.1653 9.54319C17.194 9.42829 17.2192 9.29131 17.2438 9.17381C18.8724 8.92633 21.2401 8.47868 21.8347 6.66059C21.9547 6.29344 21.893 5.86946 21.7847 5.50629C22.0003 5.42105 22.2264 5.34947 22.4467 5.27612Z" fill="black" fill-opacity="0.5"/>
<path d="M5.83922 5.39648C5.98455 5.41408 6.14104 5.44606 6.28601 5.47269C6.23267 6.10975 6.52242 6.8479 6.89781 7.35358C7.60839 8.31081 8.88352 8.70668 10.014 8.89345C10.3528 8.94942 10.6866 8.97157 11.0235 9.02093L11.0848 9.30403C10.9435 9.2998 10.7972 9.29092 10.6554 9.28427C9.20958 9.21175 7.27821 9.01052 6.1319 8.03584C5.34521 7.36691 5.11693 6.21229 5.83922 5.39648Z" fill="#710002"/>
<defs>
<linearGradient id="paint0_linear_2352_148" x1="17.1772" y1="25.3966" x2="10.927" y2="27.2538" gradientUnits="userSpaceOnUse">
<stop stop-color="#FF8C1B"/>
<stop offset="0.485712" stop-color="#EF6F2B"/>
<stop offset="1" stop-color="#FFC74F"/>
</linearGradient>
<linearGradient id="paint1_linear_2352_148" x1="17.599" y1="15.55" x2="11.6311" y2="18.8228" gradientUnits="userSpaceOnUse">
<stop stop-color="#FF8C1B"/>
<stop offset="0.485712" stop-color="#EF6F2B"/>
<stop offset="1" stop-color="#FFC74F"/>
</linearGradient>
<linearGradient id="paint2_linear_2352_148" x1="17.5131" y1="16.806" x2="12.8282" y2="20.5542" gradientUnits="userSpaceOnUse">
<stop stop-color="#FF8C1B"/>
<stop offset="0.485712" stop-color="#EF6F2B"/>
<stop offset="1" stop-color="#FFC74F"/>
</linearGradient>
<linearGradient id="paint3_linear_2352_148" x1="18.423" y1="16.4692" x2="15.2911" y2="17.8688" gradientUnits="userSpaceOnUse">
<stop stop-color="#FF8C1B"/>
<stop offset="0.485712" stop-color="#EF6F2B"/>
<stop offset="1" stop-color="#FFC74F"/>
</linearGradient>
<linearGradient id="paint4_linear_2352_148" x1="17.5835" y1="16.137" x2="12.8878" y2="19.9232" gradientUnits="userSpaceOnUse">
<stop stop-color="#FF8C1B"/>
<stop offset="0.485712" stop-color="#EF6F2B"/>
<stop offset="1" stop-color="#FFC74F"/>
</linearGradient>
<linearGradient id="paint5_linear_2352_148" x1="25.2774" y1="23.2891" x2="21.8961" y2="23.8182" gradientUnits="userSpaceOnUse">
<stop stop-color="#FF8C1B"/>
<stop offset="0.485712" stop-color="#EF6F2B"/>
<stop offset="1" stop-color="#FFC74F"/>
</linearGradient>
<linearGradient id="paint6_linear_2352_148" x1="8.39494" y1="13.7724" x2="2.78129" y2="16.788" gradientUnits="userSpaceOnUse">
<stop stop-color="#FF8C1B"/>
<stop offset="0.485712" stop-color="#EF6F2B"/>
<stop offset="1" stop-color="#FFC74F"/>
</linearGradient>
<linearGradient id="paint7_linear_2352_148" x1="8.51513" y1="11.6556" x2="5.64494" y2="14.9487" gradientUnits="userSpaceOnUse">
<stop stop-color="#FF8C1B"/>
<stop offset="0.485712" stop-color="#EF6F2B"/>
<stop offset="1" stop-color="#FFC74F"/>
</linearGradient>
<linearGradient id="paint8_linear_2352_148" x1="6.87753" y1="11.803" x2="5.83244" y2="13.7271" gradientUnits="userSpaceOnUse">
<stop stop-color="#FF8C1B"/>
<stop offset="0.485712" stop-color="#EF6F2B"/>
<stop offset="1" stop-color="#FFC74F"/>
</linearGradient>
<linearGradient id="paint9_linear_2352_148" x1="2.7787" y1="14.0133" x2="0.796289" y2="14.409" gradientUnits="userSpaceOnUse">
<stop stop-color="#FF8C1B"/>
<stop offset="0.485712" stop-color="#EF6F2B"/>
<stop offset="1" stop-color="#FFC74F"/>
</linearGradient>
<linearGradient id="paint10_linear_2352_148" x1="6.04932" y1="23.2782" x2="2.70831" y2="23.7969" gradientUnits="userSpaceOnUse">
<stop stop-color="#FF8C1B"/>
<stop offset="0.485712" stop-color="#EF6F2B"/>
<stop offset="1" stop-color="#FFC74F"/>
</linearGradient>
<linearGradient id="paint11_linear_2352_148" x1="6.04932" y1="23.2782" x2="2.70831" y2="23.7969" gradientUnits="userSpaceOnUse">
<stop stop-color="#FF8C1B"/>
<stop offset="0.485712" stop-color="#EF6F2B"/>
<stop offset="1" stop-color="#FFC74F"/>
</linearGradient>
<linearGradient id="paint12_linear_2352_148" x1="26.3907" y1="13.8077" x2="20.8654" y2="16.7476" gradientUnits="userSpaceOnUse">
<stop stop-color="#FF8C1B"/>
<stop offset="0.485712" stop-color="#EF6F2B"/>
<stop offset="1" stop-color="#FFC74F"/>
</linearGradient>
<linearGradient id="paint13_linear_2352_148" x1="26.3907" y1="11.7218" x2="23.5687" y2="15.1922" gradientUnits="userSpaceOnUse">
<stop stop-color="#FF8C1B"/>
<stop offset="0.485712" stop-color="#EF6F2B"/>
<stop offset="1" stop-color="#FFC74F"/>
</linearGradient>
<linearGradient id="paint14_linear_2352_148" x1="26.9553" y1="11.7218" x2="24.1842" y2="13.8105" gradientUnits="userSpaceOnUse">
<stop stop-color="#FF8C1B"/>
<stop offset="0.485712" stop-color="#EF6F2B"/>
<stop offset="1" stop-color="#FFC74F"/>
</linearGradient>
</defs>
</svg>
