<svg height="49" viewBox="0 0 50 49" width="50" xmlns="http://www.w3.org/2000/svg" xmlns:xlink="http://www.w3.org/1999/xlink"><defs><linearGradient id="a" x1="25%" x2="74.92%" y1=".825%" y2="107.86%"><stop offset="0" stop-color="#ffd951"/><stop offset="1" stop-color="#ffb222"/></linearGradient><linearGradient id="b" x1="50%" x2="50%" y1="0%" y2="99.795%"><stop offset="0" stop-color="#e58f0d"/><stop offset=".99963" stop-color="#eb7915"/></linearGradient><linearGradient id="bg" x1="0%" y1="0%" x2="100%" y2="100%"><stop offset="0" stop-color="#6366f1"/><stop offset="1" stop-color="#8b5cf6"/></linearGradient><path id="c" d="m15.45 13.17 5.29-10.61c.61-1.22 2.09-1.71 3.3-1.09.47.24.86.63 1.09 1.11l5 10.23c.41.83 1.21 1.4 2.12 1.51l10.47 1.27c1.42.17 2.43 1.47 2.26 2.91-.07.59-.34 1.14-.76 1.56l-8.27 8.2c-.33.33-.49.8-.44 1.27l1.38 11.08c.2 1.59-.92 3.04-2.49 3.23-.59.08-1.19-.04-1.72-.32l-8.74-4.81c-.63-.35-1.39-.36-2.03-.03l-9.06 4.68c-1.27.66-2.83.14-3.48-1.14-.25-.49-.34-1.03-.26-1.57l.72-5.08c.36-2.49 1.89-4.64 4.1-5.78l10.06-5.17c.27-.14.37-.47.24-.74-.11-.21-.34-.33-.57-.29l-12.3 1.77c-1.88.27-3.78-.27-5.26-1.48l-4.09-3.36c-1.17-.96-1.35-2.7-.4-3.88.44-.55 1.08-.9 1.77-.99l10.5-1.36c.68-.09 1.26-.51 1.57-1.12z"/><filter id="d" height="111.7%" width="111.4%" x="-5.7%" y="-5.9%"><feOffset dx="2" dy="3" in="SourceAlpha" result="shadowOffsetInner1"/><feComposite in="shadowOffsetInner1" in2="SourceAlpha" k2="-1" k3="1" operator="arithmetic" result="shadowInnerInner1"/><feColorMatrix in="shadowInnerInner1" type="matrix" values="0 0 0 0 1   0 0 0 0 1   0 0 0 0 1  0 0 0 0.65667938 0"/></filter></defs><circle cx="25" cy="24.5" r="24" fill="url(#bg)"/><g fill="none" fill-rule="evenodd" transform="translate(2, 2)"><use fill="url(#a)" fill-rule="evenodd" xlink:href="#c"/><use fill="#000" filter="url(#d)" xlink:href="#c"/><use stroke="url(#b)" stroke-width="2" xlink:href="#c"/></g></svg>