<svg width="43" height="21" viewBox="0 0 43 21" fill="none" xmlns="http://www.w3.org/2000/svg">
<path d="M9.54734 2.0091C9.7776 1.94001 10.073 2.5008 10.4347 3.69092C10.7987 4.88873 10.8662 5.52285 10.6359 5.59285L6.94379 6.71579L7.64369 9.01496L10.1011 8.26863C10.3314 8.19863 10.6053 8.6836 10.9213 9.72346C11.2412 10.776 11.2915 11.3358 11.0744 11.4018L8.59637 12.155L10.0753 17.0217C10.1353 17.2191 9.92462 17.4226 9.44244 17.6339C9.01122 17.8224 8.59518 17.9779 8.19398 18.0999L7.23269 18.3492C6.54501 18.472 6.17159 18.4382 6.1132 18.2478L2.04794 4.8706C1.98595 4.6666 1.98409 4.51644 2.04106 4.42005C2.10258 4.31523 2.22514 4.23528 2.40907 4.1793L9.54734 2.0091Z" fill="url(#paint0_radial_2381_7862)"/>
<path fill-rule="evenodd" clip-rule="evenodd" d="M33.4213 6.67108C34.5044 5.84096 35.7442 5.56367 37.1409 5.84048C38.5237 6.11468 39.527 6.67819 40.1503 7.5309C40.7532 8.37963 40.9544 9.30993 40.7539 10.3219C40.3099 12.562 38.8019 13.4281 36.2312 12.9186L34.8056 12.6348C34.7253 13.0397 34.7765 13.345 34.9603 13.5497C35.1441 13.7542 35.4685 13.9028 35.9337 13.9951C36.8985 14.1863 37.8638 14.1497 38.8278 13.885C38.8359 13.8796 38.8481 13.9031 38.8657 13.9555C38.8914 14.0027 38.9208 14.0862 38.9534 14.2049C39.093 14.6321 39.1686 15.0151 39.1787 15.3536C39.1886 15.692 39.1415 15.9596 39.0394 16.1567C38.9372 16.3537 38.7902 16.4786 38.5974 16.5316C37.6469 16.8691 36.4794 16.902 35.0962 16.6279C33.7268 16.3563 32.6667 15.6569 31.9148 14.5333C31.1577 13.4015 30.9416 12.0163 31.2665 10.3769C31.5915 8.73741 32.3098 7.50261 33.4213 6.67108ZM36.5166 8.98745C36.2467 8.93395 36.0031 8.97352 35.7875 9.1061C35.5734 9.23195 35.4374 9.44035 35.3799 9.73034L35.2544 10.3683L36.3773 10.5902C36.8294 10.6798 37.1019 10.4917 37.1942 10.0261C37.3089 9.44627 37.0831 9.09977 36.5166 8.98745Z" fill="url(#paint1_radial_2381_7862)"/>
<path d="M18.3623 4.7038C19.1789 4.58379 19.6994 4.72022 19.9237 5.11135C20.0676 5.38235 20.1043 5.94038 20.0338 6.78457C19.9749 7.37683 19.8958 7.80247 19.7947 8.06055C19.7012 8.31576 19.6371 8.4495 19.6039 8.46295C19.5776 8.47376 19.443 8.43902 19.2015 8.35633C18.9698 8.29308 18.7521 8.2765 18.548 8.30646C18.024 8.38347 17.8231 8.83995 17.9461 9.67703L18.8025 15.5066C18.8135 15.6019 18.1841 15.7431 16.9143 15.9297C15.6458 16.0952 15.0048 16.1334 14.9918 16.0449L13.972 9.10266L13.4097 9.18521C13.1922 9.21687 12.9965 9.1105 12.8216 8.86535C12.6465 8.61995 12.5283 8.28988 12.4673 7.87483C12.2463 6.37091 12.5818 5.55362 13.4733 5.42261C14.0856 5.33274 14.6302 5.44401 15.107 5.75622C15.5906 6.0675 15.8687 6.47535 15.9427 6.97889C16.1445 6.36539 16.4694 5.85131 16.916 5.43809C17.3628 5.02486 17.8451 4.77984 18.3623 4.7038Z" fill="url(#paint2_radial_2381_7862)"/>
<path fill-rule="evenodd" clip-rule="evenodd" d="M26.0319 4.54903C27.442 4.56073 28.5331 4.9278 29.3044 5.6496C30.055 6.3712 30.4273 7.24728 30.4187 8.27895C30.3998 10.5625 29.079 11.6936 26.4584 11.6718L25.0036 11.6598C25.0002 12.0722 25.1084 12.3613 25.3269 12.5282C25.5456 12.6951 25.8926 12.7805 26.3673 12.7844C27.3507 12.7925 28.2914 12.5774 29.1892 12.1378C29.1962 12.1315 29.214 12.1519 29.2408 12.1998C29.2748 12.2413 29.3191 12.318 29.3732 12.4285C29.5899 12.8221 29.7336 13.1847 29.8066 13.5153C29.8795 13.846 29.8839 14.1177 29.8203 14.3304C29.7566 14.5431 29.6353 14.693 29.4557 14.7809C28.5848 15.2896 27.4437 15.539 26.0336 15.5273C24.6377 15.5155 23.4649 15.0277 22.517 14.0639C21.5622 13.0929 21.093 11.7713 21.1068 10.1001C21.1207 8.42879 21.5955 7.08116 22.5324 6.05716C23.4418 5.03996 24.6085 4.53741 26.0319 4.54903ZM26.0061 7.7579C25.7312 7.75561 25.5002 7.83884 25.3131 8.00896C25.126 8.1725 25.0301 8.40277 25.0276 8.69854L25.0225 9.34857L26.1678 9.35717C26.6285 9.361 26.8619 9.12651 26.866 8.65211C26.8709 8.06058 26.5839 7.7627 26.0061 7.7579Z" fill="url(#paint3_radial_2381_7862)"/>
<path d="M8.97249 0.093278C10.0137 -0.219127 10.7938 0.329843 11.0985 0.614762C11.4059 0.902322 11.5995 1.23384 11.7108 1.44484C11.9503 1.89899 12.1589 2.48514 12.3485 3.1089C12.4009 3.2814 12.4494 3.45296 12.495 3.62062C12.7128 3.53934 12.9425 3.47913 13.1825 3.44386L13.3797 3.41847C14.1903 3.33274 14.9933 3.45533 15.7342 3.81691C16.3921 3.25742 17.1731 2.85721 18.0711 2.72511C18.9591 2.59463 20.6481 2.54768 21.5721 3.97414L21.659 4.11672C22.8763 3.05854 24.3739 2.53566 26.0487 2.54933C27.7892 2.56381 29.4249 3.02325 30.6707 4.18898L30.6805 4.19875L30.6903 4.20754C31.0987 4.60025 31.4364 5.03325 31.703 5.49855C31.8624 5.3539 32.0297 5.2155 32.2049 5.08351L32.5008 4.86867C33.9952 3.84137 35.7174 3.51917 37.5301 3.87843C39.1304 4.19577 40.5671 4.88061 41.5701 6.10011L41.7645 6.35109L41.7733 6.36183L41.7811 6.37257C42.6991 7.66485 43.0241 9.15383 42.7157 10.7105C42.4701 11.9494 41.9257 13.1007 40.953 13.9175C41.0779 14.3659 41.1638 14.8283 41.1776 15.2944L41.1795 15.4956C41.174 15.977 41.0934 16.54 40.8153 17.0767V17.0777C40.5014 17.6829 39.9646 18.1992 39.2176 18.4321C37.8326 18.9113 36.2931 18.9035 34.7078 18.5894H34.7069C33.1156 18.2737 31.7765 17.5073 30.7616 16.3159C30.6587 16.3927 30.5485 16.4633 30.4305 16.5269C29.1563 17.2606 27.6376 17.5403 26.0174 17.5269H26.0164C24.11 17.5107 22.424 16.822 21.0907 15.4663C20.9759 15.3497 20.8685 15.2284 20.7645 15.106L20.7811 15.2163L20.786 15.2466L20.7889 15.2769C20.9281 16.4801 20.0261 17.1097 19.9412 17.1704C19.7146 17.3327 19.4976 17.4192 19.4051 17.4546C19.189 17.5372 18.9571 17.5947 18.7762 17.6353C18.3862 17.7227 17.8511 17.8138 17.2049 17.9087L17.1893 17.9107L17.1727 17.9126C16.528 17.9967 15.9941 18.0551 15.6014 18.0786C15.4189 18.0895 15.1873 18.0986 14.9657 18.0816C14.8721 18.0744 14.6475 18.0545 14.3924 17.9693C14.2662 17.9271 14.017 17.8315 13.7586 17.6265C13.4804 17.4056 13.1078 16.9835 13.0125 16.3355L12.4969 12.8296C12.285 13.0306 12.0109 13.2071 11.6561 13.315L11.0907 13.4859L11.9891 16.44C12.325 17.5453 11.7391 18.3863 11.3524 18.7603C10.9906 19.1101 10.5587 19.3279 10.245 19.4653L10.244 19.4663C9.75073 19.682 9.26036 19.8657 8.77523 20.0132L8.73617 20.0259L8.69613 20.0357L7.73519 20.2857L7.65999 20.3042L7.58382 20.3179C7.18798 20.3885 6.71279 20.449 6.25667 20.4077C6.00282 20.3847 4.62941 20.2309 4.20101 18.8345L4.20003 18.8296L0.134603 5.45168C0.0399281 5.14004 -0.190338 4.26526 0.319173 3.40285C0.748933 2.67454 1.43385 2.38578 1.82699 2.26613L8.96566 0.0952311L8.97249 0.093278ZM9.54769 2.00929L2.40902 4.17922C2.2251 4.23519 2.10237 4.3156 2.04085 4.42043L2.0096 4.50246C1.98899 4.59491 2.00121 4.71763 2.04769 4.87062L6.11312 18.2476C6.17149 18.438 6.54484 18.4718 7.23226 18.3491L8.19417 18.1001C8.49505 18.0086 8.80419 17.898 9.12191 17.7691L9.44222 17.6343C9.86395 17.4495 10.0779 17.2703 10.0848 17.0962L10.075 17.022L8.59652 12.1548L11.0741 11.4019C11.264 11.3441 11.25 10.9082 11.0291 10.0952L10.9217 9.72316C10.6058 8.68371 10.3317 8.19937 10.1014 8.26906L7.64339 9.01515L6.94417 6.71535L10.6356 5.59328C10.8659 5.52327 10.7984 4.88875 10.4344 3.69093C10.0728 2.50133 9.7779 1.94071 9.54769 2.00929ZM37.1405 5.84035C35.744 5.56369 34.5047 5.84145 33.4217 6.6714L33.2176 6.83156C32.2217 7.65832 31.5712 8.83956 31.2664 10.3765C30.9415 12.0159 31.1577 13.4019 31.9149 14.5337C32.6667 15.6571 33.7272 16.3559 35.0965 16.6275C36.4796 16.9016 37.6471 16.8693 38.5975 16.5318C38.7421 16.492 38.8604 16.4113 38.9539 16.2905L39.0389 16.1568C39.1155 16.009 39.1618 15.8215 39.1756 15.5943L39.1785 15.354C39.1685 15.0156 39.0926 14.6318 38.953 14.2046C38.9205 14.0863 38.8917 14.0027 38.866 13.9556C38.8485 13.9031 38.836 13.8799 38.828 13.8853C37.8639 14.15 36.8983 14.1859 35.9334 13.9946C35.4685 13.9024 35.1445 13.7538 34.9608 13.5493C34.777 13.3447 34.7254 13.0399 34.8055 12.6353L36.2313 12.9185C38.802 13.4279 40.3098 12.5619 40.7537 10.3218C40.9542 9.30987 40.7532 8.37948 40.1502 7.53078C39.5269 6.67813 38.5233 6.11453 37.1405 5.84035ZM19.9237 5.11183C19.6993 4.7207 19.1788 4.58362 18.3621 4.70363C17.8451 4.77969 17.3626 5.02481 16.9159 5.438C16.4693 5.85121 16.145 6.36556 15.9432 6.97902C15.8692 6.47556 15.5907 6.06763 15.1073 5.75636C14.6305 5.44419 14.0857 5.33256 13.4735 5.42238C12.582 5.55338 12.2467 6.37077 12.4676 7.87453C12.5286 8.28958 12.6461 8.62034 12.8211 8.86574C12.9741 9.08014 13.1435 9.18836 13.3289 9.19093L13.41 9.18507L13.9725 9.10304L14.992 16.0445C15.005 16.1329 15.6457 16.0947 16.9139 15.9292C18.104 15.7543 18.7317 15.6196 18.7967 15.5249L18.8026 15.5064L17.9461 9.67726C17.8231 8.84033 18.0239 8.38329 18.5477 8.30617C18.7516 8.27623 18.9695 8.29284 19.201 8.35597C19.4426 8.43866 19.5781 8.4742 19.6043 8.4634C19.6376 8.4494 19.7015 8.31537 19.7948 8.06105C19.8958 7.80298 19.9751 7.37691 20.034 6.78468C20.0957 6.04572 20.0751 5.52593 19.9725 5.22609L19.9237 5.11183ZM26.0321 4.54933C24.6086 4.53771 23.4415 5.03995 22.5321 6.05715C21.5952 7.08112 21.1211 8.42894 21.1073 10.1001L21.1102 10.4097C21.1539 11.9353 21.6224 13.1538 22.5174 14.064C23.406 14.9673 24.492 15.4522 25.7743 15.5191L26.034 15.5269C27.4439 15.5385 28.585 15.2894 29.4559 14.7808C29.6353 14.6929 29.7565 14.5431 29.8202 14.3306C29.8838 14.1179 29.8794 13.8459 29.8065 13.5152C29.7335 13.1846 29.5895 12.8218 29.3729 12.4282C29.3189 12.318 29.2751 12.2413 29.241 12.1997C29.2142 12.1519 29.1963 12.1319 29.1893 12.1382C28.2916 12.5778 27.3504 12.7928 26.367 12.7847C25.8925 12.7807 25.5457 12.6947 25.327 12.5278C25.1086 12.3609 25.0004 12.072 25.0037 11.6597L26.3758 11.6704L26.4588 11.6714C29.0792 11.693 30.3998 10.5623 30.4188 8.27882C30.4273 7.24731 30.0549 6.37145 29.3045 5.64992C28.5815 4.97327 27.5773 4.60784 26.2928 4.55519L26.0321 4.54933ZM35.7879 9.10597C36.0034 8.9736 36.2467 8.93438 36.5164 8.98781C37.0828 9.10012 37.3088 9.44618 37.1942 10.0259C37.1027 10.4874 36.8344 10.6753 36.3895 10.5913L35.4217 10.4009L35.2547 10.3687L35.2977 10.147V10.148L35.3866 9.70168C35.4394 9.46215 35.547 9.28002 35.7108 9.15675L35.7879 9.10597ZM26.0057 7.75832C26.5834 7.76312 26.8709 8.06051 26.866 8.65187L26.8534 8.81886C26.7996 9.18141 26.5709 9.36029 26.1678 9.35695L25.0223 9.34816L25.0272 8.69191C25.0305 8.43636 25.1046 8.23003 25.2469 8.07375L25.3133 8.00929C25.5003 7.83926 25.731 7.75612 26.0057 7.75832Z" fill="white"/>
<defs>
<radialGradient id="paint0_radial_2381_7862" cx="0" cy="0" r="1" gradientTransform="matrix(28.5923 10.2156 -2.61136 31.2318 9.23616 6.92882)" gradientUnits="userSpaceOnUse">
<stop stop-color="#E9CA2C"/>
<stop offset="0.65951" stop-color="#FF8800"/>
</radialGradient>
<radialGradient id="paint1_radial_2381_7862" cx="0" cy="0" r="1" gradientTransform="matrix(28.5923 10.2156 -2.61136 31.2318 9.23616 6.92882)" gradientUnits="userSpaceOnUse">
<stop stop-color="#E9CA2C"/>
<stop offset="0.65951" stop-color="#FF8800"/>
</radialGradient>
<radialGradient id="paint2_radial_2381_7862" cx="0" cy="0" r="1" gradientTransform="matrix(28.5923 10.2156 -2.61136 31.2318 9.23616 6.92882)" gradientUnits="userSpaceOnUse">
<stop stop-color="#E9CA2C"/>
<stop offset="0.65951" stop-color="#FF8800"/>
</radialGradient>
<radialGradient id="paint3_radial_2381_7862" cx="0" cy="0" r="1" gradientTransform="matrix(28.5923 10.2156 -2.61136 31.2318 9.23616 6.92882)" gradientUnits="userSpaceOnUse">
<stop stop-color="#E9CA2C"/>
<stop offset="0.65951" stop-color="#FF8800"/>
</radialGradient>
</defs>
</svg>
