<svg width="50" height="42" viewBox="0 0 50 42" fill="none" xmlns="http://www.w3.org/2000/svg">
<path fill-rule="evenodd" clip-rule="evenodd" d="M34 9L31.75 6.75L26.59 1.59L25 0L23.41 1.59L18.25 6.75L16 9H20.5V19.5H29.5V9H34ZM21.625 21.75C21.3266 21.75 21.0405 21.8685 20.8295 22.0795C20.6185 22.2905 20.5 22.5766 20.5 22.875C20.5 23.1734 20.6185 23.4595 20.8295 23.6705C21.0405 23.8815 21.3266 24 21.625 24H28.375C28.6734 24 28.9595 23.8815 29.1705 23.6705C29.3815 23.4595 29.5 23.1734 29.5 22.875C29.5 22.5766 29.3815 22.2905 29.1705 22.0795C28.9595 21.8685 28.6734 21.75 28.375 21.75H21.625Z" fill="white" fill-opacity="0.4"/>
<path d="M4.48047 39.2051C3.77344 39.2051 3.16406 39.0742 2.65234 38.8125C2.14062 38.5508 1.74609 38.1875 1.46875 37.7227C1.19141 37.2539 1.05273 36.709 1.05273 36.0879V30.5449H2.37109V35.9883C2.37109 36.3945 2.45312 36.752 2.61719 37.0605C2.78516 37.3691 3.02539 37.6094 3.33789 37.7812C3.6543 37.9531 4.03516 38.0391 4.48047 38.0391C4.92969 38.0391 5.31055 37.9531 5.62305 37.7812C5.93555 37.6094 6.17383 37.3691 6.33789 37.0605C6.50195 36.752 6.58398 36.3945 6.58398 35.9883V30.5449H7.90234V36.0879C7.90234 36.709 7.76367 37.2539 7.48633 37.7227C7.21289 38.1875 6.82031 38.5508 6.30859 38.8125C5.80078 39.0742 5.19141 39.2051 4.48047 39.2051ZM9.87109 41.1211V32.6367H11.1426V33.6387H11.2422C11.3633 33.4043 11.5195 33.2051 11.7109 33.041C11.9062 32.877 12.1289 32.75 12.3789 32.6602C12.6289 32.5703 12.9023 32.5254 13.1992 32.5254C13.7344 32.5254 14.1992 32.6621 14.5938 32.9355C14.9883 33.2051 15.293 33.5859 15.5078 34.0781C15.7266 34.5664 15.8359 35.1445 15.8359 35.8125V35.8242C15.8359 36.4961 15.7285 37.0781 15.5137 37.5703C15.2988 38.0586 14.9941 38.4375 14.5996 38.707C14.2051 38.9727 13.7383 39.1055 13.1992 39.1055C12.9062 39.1055 12.6328 39.0605 12.3789 38.9707C12.125 38.877 11.9004 38.748 11.7051 38.584C11.5098 38.4199 11.3555 38.2227 11.2422 37.9922H11.1426V41.1211H9.87109ZM12.8359 38.0156C13.1914 38.0156 13.4961 37.9277 13.75 37.752C14.0039 37.5762 14.1973 37.3242 14.3301 36.9961C14.4668 36.668 14.5352 36.2773 14.5352 35.8242V35.8125C14.5352 35.3555 14.4668 34.9629 14.3301 34.6348C14.1973 34.3066 14.0039 34.0547 13.75 33.8789C13.4961 33.7031 13.1914 33.6152 12.8359 33.6152C12.4844 33.6152 12.1797 33.7051 11.9219 33.8848C11.6641 34.0605 11.4668 34.3125 11.3301 34.6406C11.1934 34.9648 11.125 35.3555 11.125 35.8125V35.8242C11.125 36.2734 11.1934 36.6621 11.3301 36.9902C11.4668 37.3184 11.6641 37.5723 11.9219 37.752C12.1797 37.9277 12.4844 38.0156 12.8359 38.0156ZM20.0488 41.2441C19.5098 41.2441 19.041 41.1699 18.6426 41.0215C18.248 40.873 17.9355 40.666 17.7051 40.4004C17.4746 40.1348 17.334 39.8262 17.2832 39.4746L17.2891 39.4629H18.5781L18.584 39.4746C18.6387 39.6934 18.793 39.873 19.0469 40.0137C19.3008 40.1543 19.6406 40.2246 20.0664 40.2246C20.5898 40.2246 20.998 40.1055 21.291 39.8672C21.5879 39.6289 21.7363 39.2949 21.7363 38.8652V37.6172H21.6367C21.5117 37.8438 21.3516 38.0391 21.1562 38.2031C20.9609 38.3633 20.7383 38.4844 20.4883 38.5664C20.2383 38.6484 19.9668 38.6895 19.6738 38.6895C19.1348 38.6895 18.666 38.5605 18.2676 38.3027C17.873 38.041 17.5684 37.6816 17.3535 37.2246C17.1426 36.7637 17.0371 36.2344 17.0371 35.6367V35.625C17.0371 35.0195 17.1445 34.4844 17.3594 34.0195C17.5742 33.5508 17.8809 33.1855 18.2793 32.9238C18.6777 32.6582 19.1523 32.5254 19.7031 32.5254C20 32.5254 20.2715 32.5723 20.5176 32.666C20.7676 32.7598 20.9883 32.8926 21.1797 33.0645C21.3711 33.2363 21.5293 33.4414 21.6543 33.6797H21.7305V32.6367H23.002V38.8711C23.002 39.3516 22.8809 39.7695 22.6387 40.125C22.4004 40.4805 22.0605 40.7559 21.6191 40.9512C21.1777 41.1465 20.6543 41.2441 20.0488 41.2441ZM20.0312 37.6348C20.3906 37.6348 20.6992 37.5508 20.957 37.3828C21.2148 37.2109 21.4121 36.9746 21.5488 36.6738C21.6895 36.373 21.7598 36.0254 21.7598 35.6309V35.6191C21.7598 35.2285 21.6895 34.8809 21.5488 34.5762C21.4121 34.2715 21.2148 34.0332 20.957 33.8613C20.6992 33.6895 20.3906 33.6035 20.0312 33.6035C19.6719 33.6035 19.3652 33.6895 19.1113 33.8613C18.8613 34.0332 18.6699 34.2715 18.5371 34.5762C18.4043 34.877 18.3379 35.2246 18.3379 35.6191V35.6309C18.3379 36.0254 18.4043 36.373 18.5371 36.6738C18.6699 36.9746 18.8613 37.2109 19.1113 37.3828C19.3652 37.5508 19.6719 37.6348 20.0312 37.6348ZM24.8359 39V32.6367H26.1074V33.5977H26.207C26.3203 33.2578 26.5195 32.9941 26.8047 32.8066C27.0938 32.6191 27.4492 32.5254 27.8711 32.5254C27.9766 32.5254 28.0801 32.5312 28.1816 32.543C28.2832 32.5547 28.3652 32.5684 28.4277 32.584V33.7559C28.3145 33.7324 28.2012 33.7148 28.0879 33.7031C27.9785 33.6914 27.8633 33.6855 27.7422 33.6855C27.418 33.6855 27.1328 33.748 26.8867 33.873C26.6445 33.998 26.4531 34.1738 26.3125 34.4004C26.1758 34.623 26.1074 34.8887 26.1074 35.1973V39H24.8359ZM31.3516 39.1055C30.9492 39.1055 30.5879 39.0293 30.2676 38.877C29.9512 38.7207 29.7012 38.5 29.5176 38.2148C29.334 37.9297 29.2422 37.5957 29.2422 37.2129V37.2012C29.2422 36.8184 29.334 36.4922 29.5176 36.2227C29.7051 35.9531 29.9746 35.7422 30.3262 35.5898C30.6816 35.4336 31.1113 35.3398 31.6152 35.3086L33.9648 35.168V36.0645L31.791 36.2051C31.3535 36.2324 31.0312 36.3262 30.8242 36.4863C30.6172 36.6426 30.5137 36.8633 30.5137 37.1484V37.1602C30.5137 37.4492 30.625 37.6777 30.8477 37.8457C31.0703 38.0098 31.3516 38.0918 31.6914 38.0918C32.0078 38.0918 32.2891 38.0293 32.5352 37.9043C32.7852 37.7754 32.9805 37.6035 33.1211 37.3887C33.2617 37.1699 33.332 36.9238 33.332 36.6504V34.6465C33.332 34.2949 33.2227 34.0273 33.0039 33.8438C32.7891 33.6562 32.4688 33.5625 32.043 33.5625C31.6875 33.5625 31.3965 33.625 31.1699 33.75C30.9473 33.875 30.7988 34.0508 30.7246 34.2773L30.7129 34.2949H29.4883L29.4941 34.2539C29.5449 33.9023 29.6836 33.5977 29.9102 33.3398C30.1406 33.0781 30.4414 32.875 30.8125 32.7305C31.1875 32.5859 31.6152 32.5137 32.0957 32.5137C32.6309 32.5137 33.084 32.5996 33.4551 32.7715C33.8301 32.9395 34.1133 33.1836 34.3047 33.5039C34.5 33.8203 34.5977 34.2012 34.5977 34.6465V39H33.332V38.0977H33.2383C33.1133 38.3125 32.957 38.4961 32.7695 38.6484C32.582 38.7969 32.3691 38.9102 32.1309 38.9883C31.8926 39.0664 31.6328 39.1055 31.3516 39.1055ZM38.7109 39.1055C38.1797 39.1055 37.7148 38.9727 37.3164 38.707C36.9219 38.4375 36.6152 38.0566 36.3965 37.5645C36.1816 37.0723 36.0742 36.4922 36.0742 35.8242V35.8125C36.0742 35.1406 36.1816 34.5586 36.3965 34.0664C36.6113 33.5742 36.916 33.1953 37.3105 32.9297C37.7051 32.6602 38.1719 32.5254 38.7109 32.5254C39.0039 32.5254 39.2773 32.5723 39.5312 32.666C39.7852 32.7559 40.0098 32.8848 40.2051 33.0527C40.4004 33.2168 40.5547 33.4141 40.668 33.6445H40.7617V30.1406H42.0391V39H40.7617V37.998H40.668C40.543 38.2285 40.3848 38.4277 40.1934 38.5957C40.002 38.7598 39.7812 38.8867 39.5312 38.9766C39.2812 39.0625 39.0078 39.1055 38.7109 39.1055ZM39.0742 38.0156C39.4258 38.0156 39.7305 37.9277 39.9883 37.752C40.2461 37.5762 40.4434 37.3242 40.5801 36.9961C40.7168 36.6641 40.7852 36.2734 40.7852 35.8242V35.8125C40.7852 35.3594 40.7148 34.9688 40.5742 34.6406C40.4375 34.3125 40.2402 34.0605 39.9824 33.8848C39.7285 33.7051 39.4258 33.6152 39.0742 33.6152C38.7227 33.6152 38.418 33.7051 38.1602 33.8848C37.9062 34.0605 37.7109 34.3125 37.5742 34.6406C37.4414 34.9648 37.375 35.3555 37.375 35.8125V35.8242C37.375 36.2773 37.4414 36.668 37.5742 36.9961C37.7109 37.3242 37.9062 37.5762 38.1602 37.752C38.418 37.9277 38.7227 38.0156 39.0742 38.0156ZM46.5977 39.123C45.9766 39.123 45.4434 38.9902 44.998 38.7246C44.5527 38.4551 44.209 38.0742 43.9668 37.582C43.7285 37.0898 43.6094 36.5078 43.6094 35.8359V35.8301C43.6094 35.166 43.7285 34.5859 43.9668 34.0898C44.209 33.5938 44.5488 33.207 44.9863 32.9297C45.4277 32.6523 45.9434 32.5137 46.5332 32.5137C47.127 32.5137 47.6367 32.6465 48.0625 32.9121C48.4922 33.1777 48.8223 33.5508 49.0527 34.0312C49.2832 34.5078 49.3984 35.0664 49.3984 35.707V36.1523H44.2539V35.2441H48.7656L48.1562 36.0879V35.5781C48.1562 35.125 48.0859 34.75 47.9453 34.4531C47.8086 34.1523 47.6191 33.9277 47.377 33.7793C47.1348 33.6309 46.8555 33.5566 46.5391 33.5566C46.2227 33.5566 45.9395 33.6348 45.6895 33.791C45.4434 33.9434 45.248 34.1699 45.1035 34.4707C44.9629 34.7715 44.8926 35.1406 44.8926 35.5781V36.0879C44.8926 36.5059 44.9629 36.8633 45.1035 37.1602C45.2441 37.457 45.4434 37.6836 45.7012 37.8398C45.9629 37.9961 46.2715 38.0742 46.627 38.0742C46.9004 38.0742 47.1348 38.0371 47.3301 37.9629C47.5293 37.8848 47.6914 37.7891 47.8164 37.6758C47.9453 37.5625 48.0332 37.4512 48.0801 37.3418L48.1035 37.2949H49.334L49.3223 37.3477C49.2676 37.5586 49.1719 37.7695 49.0352 37.9805C48.8984 38.1875 48.7168 38.377 48.4902 38.5488C48.2676 38.7207 47.998 38.8594 47.6816 38.9648C47.3691 39.0703 47.0078 39.123 46.5977 39.123Z" fill="white" fill-opacity="0.4"/>
</svg>
